<svg width="139" height="142" viewBox="0 0 139 142" fill="none" xmlns="http://www.w3.org/2000/svg">
<ellipse cx="69.5" cy="122" rx="69.5" ry="20" fill="#FFE1E0"/>
<g clip-path="url(#clip0_317_163)">
<path d="M78.0359 26.2548C78.7636 26.7572 79.3318 27.2859 79.5148 28.1702C79.6535 29.6024 79.0298 30.58 78.1662 31.6664C78.1055 31.7534 78.0449 31.8403 77.9824 31.9298C78.0245 32.1939 78.0245 32.1939 78.125 32.5C78.2929 34.4141 77.1881 35.8629 76.1294 37.3465C76.0418 37.4694 76.0418 37.4694 75.9524 37.5948C75.6354 38.0377 75.3142 38.4775 74.989 38.9145C75.148 38.8626 75.148 38.8626 75.3103 38.8098C76.4173 38.47 77.5193 38.23 78.6595 38.0325C78.796 38.0087 78.9324 37.985 79.073 37.9605C80.8867 37.6561 82.6591 37.5977 84.4949 37.5959C84.6248 37.5957 84.7547 37.5955 84.8886 37.5952C86.8876 37.595 88.8452 37.6614 90.8114 38.0592C90.9188 38.08 91.0263 38.1008 91.137 38.1223C91.9161 38.2908 91.9161 38.2908 92.2368 38.7719C92.2809 39.2214 92.2904 39.3783 92.0943 39.7697C91.6126 40.2093 91.0686 40.5501 90.5263 40.9101C90.2082 41.1404 89.8949 41.3768 89.5819 41.6139C89.439 41.721 89.296 41.8281 89.1487 41.9385C88.8385 42.164 88.8385 42.164 88.6732 42.3355C88.788 42.3654 88.788 42.3654 88.905 42.3959C90.8012 42.8968 92.5946 43.5078 94.375 44.3311C94.4762 44.3778 94.5775 44.4245 94.6818 44.4726C97.2456 45.6704 99.5259 47.2471 101.606 49.1654C101.907 49.4416 102.215 49.7065 102.527 49.9705C103.098 50.4693 103.586 51.0165 104.068 51.6009C104.16 51.7089 104.252 51.817 104.347 51.9283C105.242 53.0148 105.242 53.0148 105.208 53.739C104.918 54.2274 104.676 54.3956 104.135 54.552C104.011 54.5887 103.886 54.6255 103.758 54.6633C103.628 54.6994 103.498 54.7354 103.364 54.7725C103.17 54.8298 103.17 54.8298 102.972 54.8883C102.404 55.0523 101.958 55.1645 101.36 55.1645C101.313 55.2585 101.266 55.3526 101.217 55.4496C100.933 55.5347 100.933 55.5347 100.585 55.601C100.102 55.6939 100.102 55.6939 99.6491 55.8772C99.7527 56.026 99.8564 56.1749 99.9631 56.3282C103.621 61.6536 107.263 69.3129 106.776 75.9759C106.545 76.3233 106.545 76.3233 106.206 76.546C105.819 76.619 105.819 76.619 105.351 76.546C104.979 76.2737 104.68 75.9423 104.371 75.6017C103.701 74.8803 103.022 74.2621 102.215 73.6952C102.242 73.7967 102.269 73.8982 102.297 74.0027C103.283 77.7115 103.947 81.3932 103.975 85.2399C103.978 85.4742 103.982 85.7085 103.987 85.9428C103.995 86.2849 103.998 86.6268 104 86.969C104.003 87.0734 104.006 87.1778 104.01 87.2853C104.008 87.8285 103.968 88.0477 103.588 88.4479C103.213 88.6623 103.213 88.6623 102.839 88.6534C102.483 88.513 102.303 88.3952 102.072 88.0921C102.072 87.998 102.072 87.9039 102.072 87.807C101.978 87.76 101.884 87.7129 101.787 87.6645C101.787 87.5234 101.787 87.3822 101.787 87.2368C101.693 87.1898 101.599 87.1428 101.502 87.0943C101.309 86.7823 101.127 86.4708 100.95 86.1499C100.901 86.0638 100.853 85.9776 100.803 85.8888C100.711 85.7237 100.619 85.5584 100.527 85.3929C100.284 84.9606 100.038 84.5309 99.7916 84.1009C99.7767 84.3413 99.7767 84.3413 99.7614 84.5866C99.4688 89.2385 99.0637 93.8237 98.2137 98.4093C98.1955 98.5078 98.1773 98.6064 98.1585 98.7079C98.1089 98.9743 98.0585 99.2405 98.008 99.5067C97.9268 99.9232 97.9268 99.9232 97.9386 100.351C98.0751 100.237 98.2116 100.123 98.3523 100.006C99.7362 98.8604 101.16 97.8012 102.643 96.7873C102.773 96.6967 102.773 96.6967 102.907 96.6044C106.024 94.4461 109.362 92.6156 112.817 91.0588C112.967 90.9901 113.117 90.9213 113.271 90.8505C114.036 90.5134 114.632 90.2652 115.471 90.3728C115.748 90.5332 115.748 90.5332 115.899 90.8004C115.956 91.4645 115.857 91.8288 115.502 92.3873C115.415 92.5243 115.329 92.6613 115.24 92.8024C115.146 92.9473 115.052 93.0922 114.955 93.2415C114.858 93.3927 114.762 93.544 114.662 93.6998C113.81 95.0255 112.915 96.3196 111.998 97.6013C111.776 97.912 111.558 98.2245 111.34 98.5379C110.432 99.845 109.482 101.117 108.511 102.378C108.417 102.5 108.323 102.621 108.227 102.747C108.143 102.855 108.059 102.964 107.972 103.076C107.767 103.337 107.767 103.337 107.632 103.629C107.743 103.582 107.854 103.535 107.969 103.486C122.225 97.4806 122.225 97.4806 128.3 97.9276C128.568 98.1504 128.568 98.1504 128.728 98.4978C128.703 99.0423 128.682 99.3818 128.324 99.8035C128.204 99.893 128.085 99.9825 127.962 100.075C127.82 100.183 127.677 100.292 127.531 100.403C127.36 100.528 127.189 100.654 127.018 100.779C126.814 100.93 126.61 101.082 126.406 101.234C125.828 101.663 125.248 102.088 124.667 102.513C124.205 102.851 123.744 103.191 123.284 103.531C122.08 104.421 120.869 105.302 119.654 106.176C118.923 106.703 118.195 107.233 117.467 107.763C117.704 107.761 117.704 107.761 117.945 107.759C123.226 107.713 123.226 107.713 124.924 107.879C125.089 107.894 125.089 107.894 125.258 107.909C125.661 107.957 125.96 108.006 126.295 108.244C126.447 108.476 126.447 108.476 126.563 108.93C126.309 110.125 124.854 110.737 123.882 111.371C121.966 112.599 120.022 113.777 118.037 114.89C118.037 114.937 118.037 114.984 118.037 115.033C118.136 115.039 118.234 115.044 118.336 115.05C124.992 115.445 132.625 116.328 138.706 119.309C138.926 119.749 138.891 120.109 138.849 120.592C138.365 121.116 137.701 121.178 137.032 121.306C136.85 121.342 136.85 121.342 136.665 121.38C136.28 121.457 135.894 121.532 135.508 121.608C135.249 121.659 134.989 121.711 134.73 121.763C134.151 121.879 133.572 121.993 132.993 122.106C132.469 122.209 131.946 122.315 131.424 122.421C129.734 122.764 128.041 123.081 126.343 123.384C126.13 123.423 125.917 123.464 125.705 123.508C125.134 123.619 124.56 123.71 123.986 123.803C123.792 123.834 123.792 123.834 123.594 123.866C123.176 123.933 122.758 124 122.34 124.067C122.199 124.089 122.057 124.112 121.912 124.135C119.907 124.455 117.905 124.745 115.888 124.975C115.671 125.004 115.456 125.044 115.241 125.088C114.668 125.199 114.084 125.21 113.501 125.24C113.019 125.227 113.019 125.227 112.621 125.439C112.773 125.518 112.926 125.597 113.083 125.678C113.282 125.782 113.482 125.887 113.681 125.991C113.782 126.043 113.882 126.095 113.986 126.149C114.743 126.547 114.743 126.547 114.901 126.864C114.946 127.354 114.946 127.354 114.901 127.862C113.564 129.413 109.047 129.228 107.12 129.374C104.185 129.571 101.233 129.528 98.2929 129.534C97.3257 129.537 96.3585 129.542 95.3913 129.548C93.4744 129.559 91.5575 129.566 89.6406 129.57C88.8844 129.572 88.1282 129.574 87.372 129.578C86.865 129.58 86.3581 129.581 85.8512 129.582C85.6266 129.583 85.4021 129.584 85.1776 129.585C84.1518 129.59 83.1383 129.583 82.1181 129.463C81.7627 129.422 81.4097 129.408 81.0521 129.4C80.9236 129.396 80.7951 129.392 80.6626 129.388C80.3984 129.38 80.1341 129.374 79.8697 129.369C79.7425 129.364 79.6152 129.36 79.4841 129.355C79.3701 129.352 79.256 129.35 79.1384 129.347C78.7667 129.273 78.6417 129.154 78.4101 128.86C78.2764 128.512 78.2764 128.512 78.2675 128.147C78.517 127.817 78.517 127.817 78.8377 127.577C78.9788 127.577 79.1199 127.577 79.2653 127.577C79.262 127.444 79.2587 127.31 79.2553 127.173C79.2134 124.12 79.6518 121.282 80.8333 118.454C79.0589 118.341 79.0589 118.341 77.4601 118.926C77.0235 119.501 76.8648 120.185 76.6995 120.877C76.6416 121.082 76.5829 121.286 76.5236 121.491C76.042 123.223 75.9733 124.811 76.03 126.597C76.0445 127.569 76.0513 128.238 75.4166 129.002C74.6531 129.595 73.8012 129.454 72.8865 129.394C72.7364 129.387 72.5862 129.379 72.4316 129.371C71.3293 129.311 71.3293 129.311 70.9978 129.145C70.9939 128.937 70.9912 128.729 70.9889 128.521C70.9872 128.405 70.9856 128.29 70.9839 128.17C70.9978 127.862 70.9978 127.862 71.1403 127.577C71.5637 127.577 71.987 127.577 72.4232 127.577C72.4028 127.4 72.4028 127.4 72.382 127.219C72.1382 124.594 72.5182 122.106 73.2785 119.594C73.3252 119.434 73.3718 119.274 73.4199 119.109C73.5125 118.795 73.6087 118.482 73.7061 118.169C73.574 118.121 73.4419 118.073 73.3058 118.023C73.1351 117.959 72.9644 117.896 72.7885 117.83C72.6182 117.767 72.4478 117.705 72.2723 117.64C71.853 117.456 71.853 117.456 71.7105 117.171C71.63 117.152 71.5495 117.133 71.4666 117.113C69.982 116.728 68.6445 115.258 67.5945 114.195C67.3094 113.891 67.3094 113.891 66.9976 113.697C66.666 113.418 66.4978 113.099 66.2961 112.72C66.1392 112.431 66.1392 112.431 65.8306 112.066C65.5811 111.754 65.5811 111.754 65.5811 111.469C65.487 111.469 65.393 111.469 65.296 111.469C65.1549 111.187 65.0138 110.905 64.8684 110.614C64.7672 110.774 64.7672 110.774 64.664 110.938C63.9281 112.077 63.1205 113.075 62.1601 114.035C62.2085 114.884 62.3736 115.694 62.5542 116.524C63.2309 119.644 63.4356 122.723 63.1579 125.902C63.1443 126.064 63.1307 126.226 63.1167 126.394C63.0835 126.788 63.0497 127.182 63.0153 127.577C63.1149 127.572 63.2145 127.567 63.3171 127.562C63.5117 127.556 63.5117 127.556 63.7102 127.55C63.8392 127.545 63.9682 127.54 64.1011 127.535C64.2132 127.549 64.3253 127.563 64.4408 127.577C64.7704 128.071 64.7864 128.278 64.7258 128.86C64.4857 129.197 64.3458 129.278 63.9361 129.358C63.4718 129.382 63.0078 129.404 62.5431 129.421C62.3823 129.431 62.2214 129.44 62.0557 129.45C60.7329 129.504 60.7329 129.504 60.2101 129.165C59.5007 128.51 59.3686 127.942 59.3092 127.007C59.351 126.815 59.3987 126.625 59.4517 126.436C59.4553 126.243 59.4549 126.05 59.4517 125.857C59.4517 125.296 59.4517 125.296 59.5943 124.868C59.6076 124.634 59.6129 124.399 59.6132 124.165C59.6135 123.955 59.6135 123.955 59.6138 123.742C59.6132 123.596 59.6127 123.451 59.6121 123.3C59.6126 123.159 59.6132 123.018 59.6138 122.872C59.6333 121.21 59.6333 121.21 59.3092 119.594C59.2876 119.384 59.2703 119.173 59.2557 118.962C59.178 118.099 58.9624 117.294 58.739 116.458C57.6806 117.023 57.6806 117.023 56.6008 117.599C56.647 117.88 56.6931 118.162 56.7406 118.452C56.9041 119.602 56.936 120.741 56.9305 121.902C56.9304 122.004 56.9303 122.106 56.9303 122.211C56.9264 124.038 56.7849 125.805 56.3158 127.577C56.5539 127.564 56.5539 127.564 56.7968 127.55C56.9674 127.559 57.1379 127.568 57.3136 127.577C57.6433 128.071 57.6471 128.279 57.5987 128.86C57.3136 129.287 57.3136 129.287 56.8859 129.43C56.3965 129.463 55.9064 129.456 55.416 129.457C55.2823 129.458 55.1486 129.46 55.0109 129.462C53.9807 129.464 53.9807 129.464 53.4788 129.269C52.7402 129.061 52.0344 129.264 51.2911 129.403C51.0557 129.444 51.0557 129.444 50.8156 129.486C50.0512 129.6 50.0512 129.6 49.3311 129.857C48.9291 129.891 48.53 129.917 48.1273 129.935C48.0062 129.941 47.8851 129.947 47.7604 129.953C46.4845 130.012 45.2094 130.034 43.9323 130.036C43.8138 130.036 43.6954 130.036 43.5734 130.037C41.4603 130.039 39.397 129.892 37.302 129.612C36.9291 129.565 36.9291 129.565 36.5492 129.574C36.1116 129.572 35.7752 129.431 35.3618 129.287C34.9304 129.176 34.4961 129.08 34.0611 128.984C33.8905 128.946 33.8905 128.946 33.7164 128.906C33.6064 128.881 33.4963 128.857 33.3829 128.832C33.2838 128.81 33.1848 128.788 33.0827 128.765C32.7507 128.701 32.7507 128.701 32.2259 128.717C32.2259 128.623 32.2259 128.529 32.2259 128.432C32.079 128.422 31.9322 128.413 31.781 128.403C30.8433 128.284 29.9673 127.936 29.081 127.621C28.8955 127.556 28.7101 127.491 28.5246 127.426C24.8819 126.145 24.8819 126.145 24.671 125.724C24.4196 125.622 24.4196 125.622 24.1137 125.54C23.3229 125.291 22.624 124.922 21.9003 124.521C21.7641 124.446 21.6279 124.371 21.4875 124.294C20.2733 123.616 19.1169 122.868 17.9754 122.075C17.6906 121.878 17.4036 121.685 17.1156 121.492C16.9435 121.377 16.7715 121.261 16.5995 121.144C16.4506 121.044 16.3018 120.944 16.1485 120.84C15.9925 120.718 15.9925 120.718 15.8333 120.592C15.8333 120.498 15.8333 120.404 15.8333 120.307C15.7569 120.272 15.6804 120.236 15.6017 120.2C14.8583 119.809 14.2729 119.346 13.6951 118.739C13.1119 118.145 12.5034 117.585 11.8827 117.031C10.8679 116.113 10.8679 116.113 10.7908 115.38C10.8443 114.89 10.8443 114.89 11.028 114.648C11.8052 114.057 13.7452 114.535 14.693 114.605C14.5812 114.494 14.4695 114.382 14.3544 114.267C14.1347 114.047 13.9149 113.827 13.6951 113.607C13.5364 113.451 13.5364 113.451 13.3744 113.291C12.8716 112.783 12.3903 112.256 11.9078 111.728C11.469 111.25 11.0189 110.787 10.5592 110.329C9.56066 109.273 8.61287 108.188 7.70831 107.05C7.61456 106.933 7.61456 106.933 7.51892 106.813C7.11799 106.31 6.72105 105.804 6.32755 105.295C6.14956 105.067 5.96851 104.84 5.78731 104.614C4.93161 103.512 4.93161 103.512 4.89307 102.917C4.99997 102.489 4.99997 102.489 5.20488 102.204C6.28907 101.781 7.72247 102.434 8.76848 102.765C8.85836 102.793 8.94824 102.822 9.04085 102.851C12.0908 103.812 15.0278 105.025 17.9397 106.343C18.2709 106.492 18.2709 106.492 18.6842 106.623C18.5607 106.443 18.5607 106.443 18.4347 106.259C18.3278 106.101 18.2209 105.943 18.114 105.785C18.0082 105.63 17.9023 105.474 17.7933 105.314C17.5438 104.912 17.5438 104.912 17.5438 104.627C17.4498 104.627 17.3557 104.627 17.2587 104.627C17.2238 104.552 17.1889 104.478 17.153 104.401C16.7557 103.577 16.3101 102.792 15.8422 102.008C14.0683 99.0113 14.0683 99.0113 14.2653 97.9276C14.4702 97.6247 14.4702 97.6247 14.8355 97.5C15.8855 97.6707 16.7916 98.0446 17.7576 98.48C17.8975 98.5419 18.0373 98.6038 18.1814 98.6676C18.5871 98.8475 18.992 99.0289 19.3969 99.2105C19.6448 99.3209 19.8928 99.4311 20.1408 99.5413C20.2451 99.5876 20.3494 99.6339 20.4568 99.6817C20.5304 99.7143 20.604 99.747 20.6798 99.7807C20.6249 99.6536 20.6249 99.6536 20.5688 99.524C20.4006 99.1345 20.2328 98.7449 20.0651 98.3553C20.0075 98.222 19.9499 98.0888 19.8905 97.9516C19.5628 97.1896 19.2562 96.4251 18.9693 95.6469C18.8177 95.2754 18.6639 94.905 18.5088 94.535C18.3991 94.2215 18.3991 94.2215 18.3991 93.7939C18.305 93.7468 18.2109 93.6998 18.114 93.6513C18.114 93.4161 18.114 93.1809 18.114 92.9386C18.0199 92.8916 17.9259 92.8445 17.8289 92.796C17.6177 92.3088 17.4719 91.7966 17.3122 91.2904C17.2659 91.1511 17.2196 91.0117 17.1719 90.8681C16.9132 90.0567 16.752 89.372 16.8311 88.5197C17.1254 88.171 17.2933 88.1026 17.7442 88.0587C18.1816 88.0982 18.3289 88.2003 18.6586 88.4835C18.7576 88.567 18.8567 88.6505 18.9587 88.7366C19.0622 88.8267 19.1656 88.9169 19.2722 89.0097C19.4891 89.1939 19.7061 89.378 19.9231 89.5621C20.0282 89.6523 20.1333 89.7425 20.2417 89.8355C20.623 90.1609 21.0114 90.4765 21.4014 90.7915C22.0285 91.3035 22.6412 91.8299 23.2456 92.3684C23.2147 92.2234 23.2147 92.2234 23.1832 92.0755C22.7194 89.7502 22.7194 89.7502 23.1236 89.1211C23.5161 88.8633 23.7792 88.9023 24.2434 88.9474C24.682 89.1779 24.682 89.1779 25.1449 89.4997C25.2285 89.5571 25.3122 89.6145 25.3984 89.6737C25.6651 89.8574 25.9297 90.0438 26.1945 90.2303C26.3695 90.3513 26.5446 90.4721 26.7198 90.5927C27.7593 91.3109 28.7845 92.0479 29.8026 92.796C29.801 92.6413 29.7993 92.4866 29.7976 92.3272C29.7963 92.1212 29.795 91.9152 29.7937 91.7092C29.7925 91.6075 29.7913 91.5059 29.7901 91.4012C29.7896 91.3011 29.7892 91.2009 29.7887 91.0978C29.7879 91.0067 29.7872 90.9156 29.7864 90.8218C29.8026 90.5153 29.8026 90.5153 29.8719 90.1038C29.9433 89.6713 29.9741 89.2576 29.9903 88.8199C29.9962 88.6612 30.0022 88.5025 30.0083 88.339C30.014 88.1723 30.0196 88.0055 30.0253 87.8337C30.0315 87.6628 30.0376 87.4918 30.044 87.3156C30.0834 86.151 30.0973 84.9897 30.0788 83.8247C30.0877 83.3882 30.0877 83.3882 30.2302 82.9605C30.2493 82.7683 30.2621 82.5755 30.2703 82.3826C30.2783 82.2158 30.2783 82.2158 30.2865 82.0457C30.2914 81.9301 30.2964 81.8145 30.3015 81.6954C30.3613 80.3161 30.3613 80.3161 30.5153 79.682C30.1801 79.7673 29.8474 79.8629 29.5175 79.9671C29.4705 80.0612 29.4234 80.1553 29.375 80.2522C29.2809 80.2051 29.1868 80.1581 29.0899 80.1096C29.0428 80.2037 28.9958 80.2978 28.9473 80.3947C28.5755 80.5043 28.2115 80.5965 27.8337 80.6798C27.7331 80.7033 27.6325 80.7269 27.5289 80.7511C27.1948 80.8272 26.8599 80.897 26.5241 80.9649C26.3971 80.9912 26.2701 81.0175 26.1392 81.0446C24.952 81.2687 23.783 81.3007 22.5774 81.2945C22.4771 81.2944 22.3768 81.2942 22.2735 81.294C20.7533 81.2891 19.3076 81.2025 17.8289 80.8224C17.6819 80.7882 17.5349 80.754 17.3835 80.7188C16.7119 80.5452 16.3444 80.4447 15.9759 79.8246C15.9759 79.3969 15.9759 79.3969 16.1184 78.9693C16.596 78.5467 17.1167 78.2025 17.6507 77.8557C18.6931 77.1659 19.6732 76.4555 20.5373 75.5482C20.745 75.3432 20.9529 75.1383 21.1609 74.9335C22.1069 73.9813 22.9234 72.9991 23.6999 71.9045C23.7729 71.8017 23.8458 71.699 23.9209 71.5932C24.2501 71.1229 24.5632 70.6532 24.8431 70.1516C25.1146 69.676 25.4109 69.3617 25.8114 68.9912C26.002 68.8017 26.1921 68.6117 26.3816 68.421C26.12 68.3612 26.12 68.3612 25.8531 68.3002C23.6876 67.791 21.6035 67.1412 19.6107 66.1403C19.4787 66.0771 19.4787 66.0771 19.3441 66.0127C18.8871 65.7696 18.6184 65.5296 18.3946 65.0713C18.2566 64.5724 18.2566 64.5724 18.3505 64.2746C18.5931 63.9288 18.7865 63.8533 19.1803 63.706C19.31 63.6558 19.4396 63.6056 19.5732 63.5539C19.712 63.5019 19.8508 63.4499 19.9938 63.3964C21.8591 62.665 23.5404 61.8103 25.1855 60.6619C25.5263 60.4386 25.5263 60.4386 25.9539 60.296C25.9539 60.202 25.9539 60.1079 25.9539 60.011C26.1482 59.8461 26.1482 59.8461 26.4261 59.6546C27.6411 58.7714 28.6969 57.7381 29.6601 56.5899C29.8583 56.3635 30.0573 56.1379 30.257 55.9128C30.3472 55.8107 30.4374 55.7085 30.5304 55.6032C30.8021 55.3052 31.0832 55.0197 31.3706 54.7368C31.2693 54.699 31.1681 54.6611 31.0638 54.6221C30.9328 54.5718 30.8018 54.5214 30.6668 54.4696C30.4708 54.3951 30.4708 54.3951 30.2709 54.3192C29.9451 54.1667 29.9451 54.1667 29.8026 53.8816C29.5659 53.7844 29.3281 53.6898 29.0899 53.5965C28.8162 53.436 28.546 53.2694 28.2792 53.0976C28.1434 53.0109 28.0076 52.9241 27.8677 52.8348C27.5219 52.5987 27.5219 52.5987 27.2368 52.3136C27.1133 52.1945 27.1133 52.1945 26.9874 52.073C26.8092 51.7434 26.8092 51.7434 26.8983 51.2267C27.0943 50.7456 27.0943 50.7456 27.5219 50.4605C27.8145 50.4126 28.109 50.3756 28.4039 50.3447C32.1643 49.8384 35.2524 47.7756 38.1042 45.3947C38.4303 45.1241 38.762 44.861 39.0947 44.5984C39.4908 44.2838 39.88 43.9628 40.264 43.6334C40.3477 43.5617 40.4315 43.49 40.5178 43.4161C40.6824 43.2746 40.8464 43.1326 41.0099 42.99C41.3604 42.6885 41.618 42.4833 42.0614 42.3355C42.0614 42.2414 42.0614 42.1474 42.0614 42.0504C42.2919 41.8706 42.2919 41.8706 42.6137 41.6673C43.1005 41.3542 43.5772 41.0328 44.0481 40.6963C44.7422 40.207 45.461 39.7685 46.1951 39.3421C46.1837 39.2626 46.1722 39.1831 46.1604 39.1012C46.047 38.3137 45.9346 37.5259 45.823 36.7381C45.7746 36.3983 45.7252 36.0586 45.6756 35.7189C45.3248 33.2429 45.3248 33.2429 45.625 32.6425C46.1851 32.4812 46.5403 32.3938 47.076 32.6466C47.4139 32.8743 47.7308 33.1175 48.0482 33.3731C48.1649 33.4631 48.2816 33.5531 48.4019 33.6458C48.7621 33.9255 49.1183 34.2097 49.4737 34.4956C49.5844 34.584 49.6952 34.6724 49.8093 34.7634C50.3855 35.224 50.9572 35.6896 51.5254 36.1601C51.8366 36.4164 52.1514 36.668 52.4671 36.9189C52.5699 35.9694 52.6224 35.0399 52.6007 34.0847C52.6096 33.7829 52.6096 33.7829 52.7522 33.6403C52.802 33.2938 52.8439 32.9493 52.8808 32.6013C52.905 32.3855 52.9292 32.1696 52.9535 31.9538C52.9909 31.6132 53.0281 31.2726 53.0651 30.9319C53.1009 30.6034 53.1378 30.2749 53.1748 29.9465C53.1853 29.846 53.1959 29.7456 53.2068 29.6422C53.2798 28.9974 53.4148 28.4127 53.6074 27.796C54.6431 27.5969 54.6431 27.5969 55.1754 27.9386C55.3871 28.1721 55.3871 28.1721 55.5875 28.4536C55.664 28.5596 55.7405 28.6656 55.8194 28.7748C55.9009 28.8899 55.9824 29.0049 56.0663 29.1235C56.2433 29.3688 56.4206 29.614 56.5981 29.859C56.6909 29.9875 56.7838 30.116 56.8795 30.2483C57.4663 31.0506 58.0741 31.837 58.6793 32.6254C59.1869 33.2882 59.6839 33.9555 60.1644 34.6381C61.0111 34.5476 61.7519 34.2323 62.5381 33.9249C64.4594 33.1894 66.4088 32.5592 68.3696 31.9387C68.7096 31.8303 69.0495 31.7218 69.3894 31.6133C72.0099 30.7781 72.0099 30.7781 72.9934 30.5044C73.0875 29.8929 73.1815 29.2814 73.2785 28.6513C73.3726 28.6513 73.4666 28.6513 73.5636 28.6513C73.575 28.5488 73.5864 28.4462 73.5981 28.3406C73.8434 27.4276 74.6926 26.6998 75.4701 26.2102C76.3487 25.9982 77.1764 25.9524 78.0359 26.2548Z" fill="#CE4327"/>
<path d="M78.0359 26.2548C78.7636 26.7572 79.3318 27.2859 79.5148 28.1702C79.6535 29.6024 79.0298 30.58 78.1662 31.6664C78.1055 31.7534 78.0449 31.8403 77.9824 31.9298C78.0245 32.1939 78.0245 32.1939 78.125 32.5C78.3271 34.8042 76.6268 36.7994 75.2437 38.4859C74.9026 38.9083 74.6347 39.3184 74.396 39.807C73.6151 41.3183 73.6151 41.3183 72.7501 41.6106C71.806 41.7918 70.8516 41.8258 69.8933 41.8727C64.9344 42.2495 60.1172 45.3703 56.9305 49.0368C56.623 49.411 56.3265 49.792 56.0307 50.1754C55.8259 50.4161 55.621 50.6566 55.416 50.8971C52.5816 54.3821 49.8741 59.0956 50.0099 63.7405C50.0171 64.0044 50.0171 64.0044 50.1864 64.1447C50.8926 64.2101 51.3347 64.1562 51.9771 63.8596C54.1486 63.0235 56.5143 63.5842 58.625 64.3005C64.6979 66.2683 71.4084 66.5208 77.5548 64.7149C77.7764 64.6544 77.998 64.5941 78.2196 64.5339C81.1123 63.7295 84.2661 62.5515 86.6776 60.7237C86.7717 60.7237 86.8658 60.7237 86.9627 60.7237C86.9399 60.6485 86.9171 60.5734 86.8937 60.4959C86.8024 60.071 86.7905 59.6704 86.7845 59.2359C86.7808 59.0773 86.7772 58.9187 86.7734 58.7553C86.8292 58.2123 87.0016 57.8339 87.3903 57.4452C87.8803 57.4184 87.8803 57.4184 88.3881 57.4452C88.4822 57.5392 88.5763 57.6333 88.6732 57.7303C88.6707 58.0998 88.6536 58.4505 88.6198 58.8172C88.6117 58.9178 88.6036 59.0185 88.5953 59.1223C88.5751 59.3711 88.5531 59.6198 88.5307 59.8684C89.2867 59.8692 89.2867 59.8692 89.9222 59.5143C90.1378 59.2601 90.335 59.001 90.5263 58.7281C90.6145 58.6134 90.7027 58.4987 90.7936 58.3806C90.8465 58.3071 90.8994 58.2336 90.9539 58.1579C91.9161 58.2648 91.9161 58.2648 92.2368 58.5855C92.3245 59.297 92.1639 59.644 91.7379 60.207C91.6453 60.3315 91.5527 60.4561 91.4573 60.5845C91.3853 60.6775 91.3132 60.7704 91.239 60.8662C91.629 60.6427 91.928 60.4654 92.2279 60.1268C92.5219 59.8684 92.5219 59.8684 92.9584 59.8061C93.3772 59.8684 93.3772 59.8684 93.6534 60.0199C93.8048 60.296 93.8048 60.296 93.8315 60.7593C93.5959 61.5035 93.133 61.8337 92.5219 62.2917C92.991 62.2376 92.991 62.2376 93.3772 62.0066C93.7723 61.965 94.0064 61.9547 94.3483 62.1669C94.6 62.5644 94.5834 62.8287 94.5175 63.2895C94.1337 63.821 93.7212 63.9967 93.0921 64.1447C92.7597 64.1555 92.4266 64.158 92.0943 64.1447C92.4409 64.6647 92.6557 64.6765 93.2346 64.8575C93.3287 64.9515 93.4228 65.0456 93.5197 65.1425C93.493 65.6414 93.493 65.6414 93.3772 66.1403C92.9124 66.4502 92.8466 66.4573 92.3259 66.3898C92.1655 66.3711 92.1655 66.3711 92.0018 66.3519C91.6666 66.2829 91.6666 66.2829 91.3309 66.1092C90.9542 65.9517 90.9542 65.9517 90.6242 66.1588C90.458 66.2913 90.458 66.2913 90.2885 66.4265C83.3785 71.6496 73.04 73.5322 64.5613 72.5148C63.7441 72.4182 62.9383 72.3849 62.1155 72.3855C62.0056 72.3855 61.8956 72.3854 61.7824 72.3853C61.1358 72.3915 60.5195 72.4559 59.8794 72.5548C58.2795 72.7109 56.6744 72.7125 55.0685 72.7152C54.9681 72.7155 54.8677 72.7159 54.7643 72.7163C54.0933 72.7182 53.4231 72.7112 52.7522 72.6974C52.5731 72.6942 52.394 72.6911 52.2095 72.6879C51.9605 72.6774 51.9605 72.6774 51.7065 72.6667C51.487 72.6588 51.487 72.6588 51.263 72.6506C50.8991 72.5548 50.8991 72.5548 50.6529 72.238C50.4893 71.8866 50.4893 71.8866 50.3428 71.4985C50.1013 70.9286 49.7248 70.5753 49.1886 70.2741C48.7302 70.1667 48.7302 70.1667 48.3333 70.2741C48.0131 70.6717 48.0131 70.6717 48.0393 71.1027C48.2287 71.6709 48.5017 71.8676 48.9753 72.2135C49.0457 72.2791 49.1161 72.3447 49.1886 72.4123C49.1886 72.5534 49.1886 72.6945 49.1886 72.8399C48.4144 73.0334 48.0103 72.9668 47.3132 72.5821C47.0504 72.4123 47.0504 72.4123 46.6762 72.0916C46.2509 71.7782 45.9992 71.7834 45.4824 71.8421C45.2925 72.0049 45.2925 72.0049 45.2597 72.4301C45.3627 73.1399 45.6143 73.3319 46.1601 73.7648C46.5863 74.0516 46.9943 74.2366 47.478 74.4079C47.431 74.6431 47.384 74.8783 47.3355 75.1206C46.5596 75.1853 46.1405 75.0491 45.4624 74.6785C45.1174 74.5118 44.8611 74.484 44.4846 74.5504C44.1657 74.8183 44.1657 74.8183 44.1104 75.2364C44.1522 75.6886 44.1522 75.6886 44.4245 75.8951C45.3989 76.5218 46.3383 76.7349 47.478 76.8311C47.5251 77.0663 47.5721 77.3015 47.6206 77.5439C47.0965 77.8932 46.7095 77.8566 46.1061 77.8379C45.7549 77.829 45.4062 77.826 45.0548 77.8289C44.8589 77.9951 44.8589 77.9951 44.8588 78.4526C44.8596 78.9688 44.8596 78.9688 45.1706 79.2455C46.4031 79.6563 47.3976 79.3825 48.5427 78.8401C48.9035 78.6842 48.9035 78.6842 49.3311 78.6842C49.1602 79.197 49.0714 79.2012 48.6095 79.4326C48.2976 79.6047 48.2976 79.6047 48.0482 79.8246C47.9293 80.3418 47.9293 80.3418 48.0482 80.8224C48.3069 81.1399 48.3069 81.1399 48.673 81.1475C49.0955 81.1021 49.2663 81.0101 49.5984 80.7511C49.6862 80.6849 49.774 80.6188 49.8645 80.5506C50.1854 80.2739 50.1854 80.2739 50.38 79.9772C50.7141 79.522 50.978 79.1699 51.535 79.013C51.9541 78.9846 52.3593 78.991 52.7789 79.0105C52.9334 79.0129 53.088 79.0153 53.2472 79.0177C53.5771 79.0234 53.907 79.0316 54.2369 79.0421C55.0906 79.0693 55.9445 79.0787 56.7985 79.0907C56.9663 79.0936 57.1341 79.0964 57.307 79.0994C58.6842 79.1203 60.0477 79.0748 61.4206 78.9693C61.6925 78.9488 61.6925 78.9488 61.9699 78.9279C62.3661 78.8963 62.7621 78.863 63.1579 78.8267C63.2095 81.4944 63.1292 84.0868 62.8318 86.7412C62.4353 90.2941 62.1034 93.8422 62.1155 97.4198C62.1159 97.5392 62.1162 97.6587 62.1166 97.7817C62.1244 100.681 62.1244 100.681 62.5521 103.54C62.5772 103.653 62.6023 103.767 62.6282 103.883C63.0893 105.908 63.7214 107.763 64.6163 109.64C64.8133 110.11 64.9152 110.356 64.7192 110.841C64.0066 112.057 63.1539 113.041 62.1601 114.035C62.2231 114.883 62.3735 115.694 62.5542 116.524C63.2309 119.644 63.4356 122.723 63.1579 125.902C63.1443 126.064 63.1307 126.226 63.1167 126.394C63.0835 126.788 63.0497 127.182 63.0153 127.577C63.1149 127.572 63.2145 127.567 63.3171 127.562C63.5117 127.556 63.5117 127.556 63.7102 127.55C63.8392 127.545 63.9682 127.54 64.1011 127.535C64.2132 127.549 64.3253 127.563 64.4408 127.577C64.7704 128.071 64.7864 128.278 64.7259 128.86C64.4857 129.197 64.3458 129.278 63.9361 129.358C63.4718 129.382 63.0078 129.404 62.5432 129.421C62.3823 129.431 62.2214 129.44 62.0557 129.45C60.7329 129.504 60.7329 129.504 60.2101 129.165C59.5007 128.51 59.3686 127.942 59.3092 127.007C59.3511 126.815 59.3987 126.625 59.4517 126.436C59.4553 126.243 59.4549 126.05 59.4517 125.857C59.4517 125.296 59.4517 125.296 59.5943 124.868C59.6076 124.634 59.6129 124.399 59.6132 124.165C59.6135 123.955 59.6135 123.955 59.6138 123.742C59.6132 123.596 59.6127 123.451 59.6121 123.3C59.6126 123.159 59.6132 123.018 59.6138 122.872C59.6333 121.21 59.6333 121.21 59.3092 119.594C59.2876 119.384 59.2703 119.173 59.2557 118.962C59.178 118.099 58.9624 117.294 58.739 116.458C57.6806 117.023 57.6806 117.023 56.6009 117.599C56.647 117.88 56.6931 118.162 56.7406 118.452C56.9041 119.602 56.936 120.741 56.9305 121.902C56.9304 122.004 56.9303 122.106 56.9303 122.211C56.9264 124.038 56.7849 125.805 56.3158 127.577C56.5539 127.564 56.5539 127.564 56.7969 127.55C56.9674 127.559 57.1379 127.568 57.3136 127.577C57.6433 128.071 57.6471 128.279 57.5987 128.86C57.3136 129.287 57.3136 129.287 56.8859 129.43C56.3965 129.463 55.9064 129.456 55.416 129.457C55.2823 129.458 55.1486 129.46 55.0109 129.462C53.9807 129.464 53.9807 129.464 53.4788 129.269C52.7402 129.061 52.0344 129.264 51.2911 129.403C51.0557 129.444 51.0557 129.444 50.8156 129.486C50.0512 129.6 50.0512 129.6 49.3311 129.857C48.9291 129.891 48.5301 129.917 48.1273 129.935C48.0062 129.941 47.8852 129.947 47.7604 129.953C46.4845 130.012 45.2095 130.034 43.9323 130.036C43.8138 130.036 43.6954 130.036 43.5734 130.037C41.4603 130.039 39.397 129.892 37.302 129.612C36.9291 129.565 36.9291 129.565 36.5492 129.574C36.1116 129.572 35.7752 129.431 35.3618 129.287C34.9304 129.176 34.4961 129.08 34.0611 128.984C33.8905 128.946 33.8905 128.946 33.7164 128.906C33.6064 128.881 33.4963 128.857 33.3829 128.832C33.2838 128.81 33.1848 128.788 33.0827 128.765C32.7507 128.701 32.7507 128.701 32.2259 128.717C32.2259 128.623 32.2259 128.529 32.2259 128.432C32.079 128.422 31.9322 128.413 31.781 128.403C30.8433 128.284 29.9673 127.936 29.081 127.621C28.8955 127.556 28.7101 127.491 28.5246 127.426C24.8819 126.145 24.8819 126.145 24.671 125.724C24.4196 125.622 24.4196 125.622 24.1137 125.54C23.3229 125.291 22.624 124.922 21.9003 124.521C21.7641 124.446 21.6279 124.371 21.4875 124.294C20.2733 123.616 19.1169 122.868 17.9754 122.075C17.6906 121.878 17.4036 121.685 17.1156 121.492C16.9435 121.377 16.7715 121.261 16.5995 121.144C16.4506 121.044 16.3018 120.944 16.1485 120.84C15.9925 120.718 15.9925 120.718 15.8333 120.592C15.8333 120.498 15.8333 120.404 15.8333 120.307C15.7569 120.272 15.6804 120.236 15.6017 120.2C14.8583 119.809 14.2729 119.346 13.6952 118.739C13.1119 118.145 12.5034 117.585 11.8827 117.031C10.8679 116.113 10.8679 116.113 10.7908 115.38C10.8443 114.89 10.8443 114.89 11.028 114.648C11.8052 114.057 13.7452 114.535 14.693 114.605C14.5812 114.494 14.4695 114.382 14.3544 114.267C14.1347 114.047 13.9149 113.827 13.6952 113.607C13.5364 113.451 13.5364 113.451 13.3744 113.291C12.8716 112.783 12.3903 112.256 11.9078 111.728C11.469 111.25 11.0189 110.787 10.5592 110.329C9.56066 109.273 8.61287 108.188 7.70831 107.05C7.61456 106.933 7.61456 106.933 7.51892 106.813C7.11799 106.31 6.72105 105.804 6.32755 105.295C6.14956 105.067 5.96851 104.84 5.78731 104.614C4.93161 103.512 4.93161 103.512 4.89307 102.917C4.99997 102.489 4.99997 102.489 5.20488 102.204C6.28907 101.781 7.72247 102.434 8.76848 102.765C8.85836 102.793 8.94824 102.822 9.04085 102.851C12.0908 103.812 15.0278 105.025 17.9397 106.343C18.2709 106.492 18.2709 106.492 18.6842 106.623C18.5607 106.443 18.5607 106.443 18.4347 106.259C18.3278 106.101 18.2209 105.943 18.114 105.785C18.0082 105.63 17.9023 105.474 17.7933 105.314C17.5438 104.912 17.5438 104.912 17.5438 104.627C17.4498 104.627 17.3557 104.627 17.2587 104.627C17.2238 104.552 17.1889 104.478 17.153 104.401C16.7557 103.577 16.3101 102.792 15.8422 102.008C14.0683 99.0113 14.0683 99.0113 14.2653 97.9276C14.4702 97.6247 14.4702 97.6247 14.8355 97.5C15.8855 97.6707 16.7916 98.0446 17.7577 98.48C17.8975 98.5419 18.0373 98.6038 18.1814 98.6676C18.5871 98.8475 18.992 99.0289 19.3969 99.2105C19.6448 99.3209 19.8928 99.4311 20.1408 99.5413C20.2451 99.5876 20.3494 99.6339 20.4568 99.6817C20.5304 99.7143 20.604 99.747 20.6798 99.7807C20.6249 99.6536 20.6249 99.6536 20.5688 99.524C20.4006 99.1345 20.2329 98.7449 20.0651 98.3553C20.0075 98.222 19.9499 98.0888 19.8905 97.9516C19.5628 97.1896 19.2562 96.4251 18.9693 95.6469C18.8177 95.2754 18.6639 94.905 18.5088 94.535C18.3991 94.2215 18.3991 94.2215 18.3991 93.7939C18.305 93.7468 18.2109 93.6998 18.114 93.6513C18.114 93.4161 18.114 93.1809 18.114 92.9386C18.0199 92.8916 17.9259 92.8445 17.8289 92.796C17.6177 92.3088 17.4719 91.7966 17.3122 91.2904C17.2659 91.1511 17.2196 91.0117 17.1719 90.8681C16.9132 90.0567 16.752 89.372 16.8311 88.5197C17.1254 88.171 17.2933 88.1026 17.7442 88.0587C18.1816 88.0982 18.3289 88.2003 18.6586 88.4835C18.7576 88.567 18.8567 88.6505 18.9587 88.7366C19.0622 88.8267 19.1656 88.9169 19.2722 89.0097C19.4891 89.1939 19.7061 89.378 19.9231 89.5621C20.0282 89.6523 20.1333 89.7425 20.2417 89.8355C20.6231 90.1609 21.0114 90.4765 21.4014 90.7915C22.0285 91.3035 22.6412 91.8299 23.2456 92.3684C23.2147 92.2234 23.2147 92.2234 23.1832 92.0755C22.7194 89.7502 22.7194 89.7502 23.1236 89.1211C23.5161 88.8633 23.7792 88.9023 24.2434 88.9474C24.682 89.1779 24.682 89.1779 25.1449 89.4997C25.2285 89.5571 25.3122 89.6145 25.3984 89.6737C25.6651 89.8574 25.9297 90.0438 26.1945 90.2303C26.3695 90.3513 26.5446 90.4721 26.7198 90.5927C27.7593 91.3109 28.7845 92.0479 29.8026 92.796C29.801 92.6413 29.7993 92.4866 29.7976 92.3272C29.7963 92.1212 29.795 91.9152 29.7937 91.7092C29.7925 91.6075 29.7913 91.5059 29.7901 91.4012C29.7896 91.3011 29.7892 91.2009 29.7887 91.0978C29.7879 91.0067 29.7872 90.9156 29.7864 90.8218C29.8026 90.5153 29.8026 90.5153 29.8719 90.1038C29.9433 89.6713 29.9741 89.2576 29.9903 88.8199C29.9962 88.6612 30.0022 88.5025 30.0083 88.339C30.014 88.1723 30.0196 88.0055 30.0253 87.8337C30.0315 87.6628 30.0376 87.4918 30.044 87.3156C30.0834 86.151 30.0973 84.9897 30.0788 83.8247C30.0877 83.3882 30.0877 83.3882 30.2302 82.9605C30.2493 82.7683 30.2621 82.5755 30.2703 82.3826C30.2783 82.2158 30.2783 82.2158 30.2865 82.0457C30.2914 81.9301 30.2964 81.8145 30.3015 81.6954C30.3613 80.3161 30.3613 80.3161 30.5153 79.682C30.1801 79.7673 29.8474 79.8629 29.5175 79.9671C29.4705 80.0612 29.4234 80.1553 29.375 80.2522C29.2809 80.2051 29.1868 80.1581 29.0899 80.1096C29.0428 80.2037 28.9958 80.2978 28.9473 80.3947C28.5755 80.5043 28.2115 80.5965 27.8337 80.6798C27.7331 80.7033 27.6325 80.7269 27.5289 80.7511C27.1948 80.8272 26.8599 80.897 26.5241 80.9649C26.3971 80.9912 26.2701 81.0175 26.1392 81.0446C24.952 81.2687 23.783 81.3007 22.5774 81.2945C22.4771 81.2944 22.3768 81.2942 22.2735 81.294C20.7533 81.2891 19.3076 81.2025 17.8289 80.8224C17.6819 80.7882 17.5349 80.754 17.3835 80.7188C16.7119 80.5452 16.3444 80.4447 15.9759 79.8246C15.9759 79.3969 15.9759 79.3969 16.1184 78.9693C16.596 78.5467 17.1167 78.2025 17.6507 77.8557C18.6931 77.1659 19.6732 76.4555 20.5373 75.5482C20.745 75.3432 20.9529 75.1383 21.1609 74.9335C22.1069 73.9813 22.9234 72.9991 23.6999 71.9045C23.7729 71.8017 23.8458 71.699 23.9209 71.5932C24.2501 71.1229 24.5632 70.6532 24.8431 70.1516C25.1146 69.676 25.4109 69.3617 25.8114 68.9912C26.002 68.8017 26.1921 68.6117 26.3816 68.421C26.12 68.3612 26.12 68.3612 25.8531 68.3002C23.6876 67.791 21.6035 67.1412 19.6107 66.1403C19.4787 66.0771 19.4787 66.0771 19.3441 66.0127C18.8871 65.7696 18.6184 65.5296 18.3946 65.0713C18.2566 64.5724 18.2566 64.5724 18.3506 64.2746C18.5931 63.9288 18.7865 63.8533 19.1803 63.706C19.31 63.6558 19.4396 63.6056 19.5732 63.5539C19.712 63.5019 19.8508 63.4499 19.9938 63.3964C21.8591 62.665 23.5404 61.8103 25.1855 60.6619C25.5263 60.4386 25.5263 60.4386 25.9539 60.296C25.9539 60.202 25.9539 60.1079 25.9539 60.011C26.1483 59.8461 26.1483 59.8461 26.4261 59.6546C27.6411 58.7714 28.6969 57.7381 29.6601 56.5899C29.8583 56.3635 30.0573 56.1379 30.257 55.9128C30.3472 55.8107 30.4374 55.7085 30.5304 55.6032C30.8021 55.3052 31.0832 55.0197 31.3706 54.7368C31.2693 54.699 31.1681 54.6611 31.0638 54.6221C30.9328 54.5718 30.8018 54.5214 30.6668 54.4696C30.4708 54.3951 30.4708 54.3951 30.2709 54.3192C29.9452 54.1667 29.9452 54.1667 29.8026 53.8816C29.5659 53.7844 29.3281 53.6898 29.0899 53.5965C28.8162 53.436 28.546 53.2694 28.2792 53.0976C28.1434 53.0109 28.0076 52.9241 27.8677 52.8348C27.5219 52.5987 27.5219 52.5987 27.2368 52.3136C27.1133 52.1945 27.1133 52.1945 26.9874 52.073C26.8092 51.7434 26.8092 51.7434 26.8983 51.2267C27.0943 50.7456 27.0943 50.7456 27.5219 50.4605C27.8145 50.4126 28.109 50.3756 28.4039 50.3447C32.1643 49.8384 35.2525 47.7756 38.1042 45.3947C38.4303 45.1241 38.7621 44.861 39.0947 44.5984C39.4908 44.2838 39.88 43.9628 40.264 43.6334C40.3477 43.5617 40.4315 43.49 40.5178 43.4161C40.6824 43.2746 40.8464 43.1326 41.0099 42.99C41.3604 42.6885 41.618 42.4833 42.0614 42.3355C42.0614 42.2414 42.0614 42.1474 42.0614 42.0504C42.2919 41.8706 42.2919 41.8706 42.6137 41.6673C43.1005 41.3542 43.5772 41.0328 44.0481 40.6963C44.7422 40.207 45.461 39.7685 46.1952 39.3421C46.1837 39.2626 46.1722 39.1831 46.1604 39.1012C46.047 38.3137 45.9346 37.5259 45.823 36.7381C45.7746 36.3983 45.7253 36.0586 45.6756 35.7189C45.3248 33.2429 45.3248 33.2429 45.625 32.6425C46.1851 32.4812 46.5403 32.3938 47.076 32.6466C47.4139 32.8743 47.7308 33.1175 48.0482 33.3731C48.1649 33.4631 48.2816 33.5531 48.4019 33.6458C48.7621 33.9255 49.1183 34.2097 49.4737 34.4956C49.5844 34.584 49.6952 34.6724 49.8093 34.7634C50.3855 35.224 50.9572 35.6896 51.5254 36.1601C51.8366 36.4164 52.1514 36.668 52.4671 36.9189C52.5699 35.9694 52.6224 35.0399 52.6007 34.0847C52.6096 33.7829 52.6096 33.7829 52.7522 33.6403C52.802 33.2938 52.8439 32.9493 52.8808 32.6013C52.905 32.3855 52.9292 32.1696 52.9535 31.9538C52.9909 31.6132 53.0281 31.2726 53.0651 30.9319C53.1009 30.6034 53.1378 30.2749 53.1748 29.9465C53.1853 29.846 53.1959 29.7456 53.2068 29.6422C53.2798 28.9974 53.4148 28.4127 53.6074 27.796C54.6431 27.5969 54.6431 27.5969 55.1754 27.9386C55.3871 28.1721 55.3871 28.1721 55.5875 28.4536C55.664 28.5596 55.7405 28.6656 55.8194 28.7748C55.9009 28.8899 55.9824 29.0049 56.0663 29.1235C56.2433 29.3688 56.4206 29.614 56.5981 29.859C56.6909 29.9875 56.7838 30.116 56.8795 30.2483C57.4663 31.0506 58.0742 31.837 58.6793 32.6254C59.1869 33.2882 59.6839 33.9555 60.1645 34.6381C61.0111 34.5476 61.7519 34.2323 62.5381 33.9249C64.4594 33.1894 66.4088 32.5592 68.3696 31.9387C68.7096 31.8303 69.0495 31.7218 69.3894 31.6133C72.0099 30.7781 72.0099 30.7781 72.9934 30.5044C73.0875 29.8929 73.1816 29.2814 73.2785 28.6513C73.3726 28.6513 73.4666 28.6513 73.5636 28.6513C73.575 28.5488 73.5864 28.4462 73.5981 28.3406C73.8434 27.4276 74.6926 26.6998 75.4701 26.2102C76.3487 25.9982 77.1764 25.9524 78.0359 26.2548Z" fill="#3B301B"/>
<path d="M124.87 107.879C124.984 107.889 125.098 107.899 125.216 107.909C125.632 107.956 125.951 108 126.298 108.244C126.591 108.698 126.559 108.949 126.447 109.474C124.395 111.785 120.713 113.389 118.037 114.89C118.037 114.937 118.037 114.984 118.037 115.033C118.136 115.039 118.234 115.044 118.336 115.05C124.992 115.445 132.625 116.328 138.706 119.309C138.926 119.749 138.891 120.109 138.849 120.592C138.365 121.116 137.701 121.178 137.032 121.306C136.85 121.342 136.85 121.342 136.665 121.38C136.28 121.457 135.894 121.532 135.508 121.608C135.249 121.659 134.989 121.711 134.73 121.763C134.151 121.879 133.572 121.993 132.993 122.106C132.469 122.209 131.946 122.315 131.424 122.421C129.734 122.764 128.041 123.081 126.343 123.384C126.13 123.423 125.917 123.464 125.705 123.508C125.134 123.619 124.56 123.71 123.986 123.803C123.857 123.823 123.727 123.844 123.594 123.866C123.176 123.933 122.758 124 122.34 124.067C122.128 124.101 122.128 124.101 121.912 124.135C119.907 124.455 117.905 124.745 115.888 124.975C115.671 125.004 115.456 125.044 115.242 125.088C114.668 125.199 114.084 125.21 113.501 125.24C113.019 125.227 113.019 125.227 112.621 125.439C112.773 125.518 112.926 125.597 113.083 125.678C113.282 125.782 113.482 125.887 113.681 125.991C113.782 126.043 113.882 126.095 113.986 126.149C114.743 126.547 114.743 126.547 114.901 126.864C114.946 127.354 114.946 127.354 114.901 127.862C113.564 129.413 109.048 129.228 107.12 129.374C104.186 129.571 101.233 129.528 98.2929 129.534C97.3257 129.537 96.3585 129.542 95.3913 129.548C93.6437 129.558 91.8962 129.564 90.1485 129.568C89.2205 129.57 88.2926 129.574 87.3647 129.581C86.8549 129.585 86.3452 129.588 85.8355 129.59C85.609 129.592 85.3826 129.594 85.1561 129.596C83.1215 129.617 83.1215 129.617 82.1162 129.287C82.2334 129.187 82.3507 129.087 82.4715 128.983C83.069 128.264 82.8834 127.335 82.8467 126.454C82.7981 123.93 83.2148 121.831 84.1322 119.481C84.2376 119.21 84.3365 118.936 84.4342 118.662C84.7251 117.981 84.9408 117.681 85.6186 117.352C86.1533 117.155 86.6931 117.015 87.2478 116.886C87.3636 116.857 87.4793 116.828 87.5986 116.798C87.671 116.78 87.7434 116.762 87.818 116.743C87.8854 116.888 87.9528 117.033 88.0223 117.182C89.2264 119.712 90.9974 122.291 93.6712 123.425C94.4793 123.692 95.1798 123.705 95.9697 123.372C96.6851 122.971 97.0773 122.38 97.3066 121.6C97.5082 120.787 97.5556 120.011 97.5466 119.176C97.546 119.051 97.5455 118.927 97.5449 118.798C97.5334 117.939 97.448 117.149 97.2259 116.316C97.3438 116.367 97.4618 116.419 97.5833 116.472C98.7292 116.917 99.7532 117.102 100.985 117.109C101.181 117.112 101.181 117.112 101.38 117.115C102.435 117.099 103.368 116.873 104.13 116.111C104.57 115.39 104.785 114.745 104.638 113.893C104.267 112.944 103.62 112.201 102.928 111.469C103.395 111.073 103.855 110.89 104.432 110.692C104.524 110.66 104.616 110.629 104.71 110.597C105.013 110.494 105.315 110.393 105.618 110.293C105.723 110.259 105.828 110.224 105.936 110.188C112.046 108.183 118.451 107.311 124.87 107.879Z" fill="#3B301B"/>
<path d="M18.114 88.0921C18.3925 88.2549 18.3925 88.2549 18.6586 88.4835C18.8071 88.6088 18.8071 88.6088 18.9587 88.7366C19.0622 88.8267 19.1656 88.9169 19.2722 89.0097C19.4891 89.1939 19.7061 89.378 19.9231 89.5621C20.0808 89.6974 20.0808 89.6974 20.2417 89.8355C20.623 90.1609 21.0114 90.4765 21.4014 90.7915C22.0285 91.3035 22.6412 91.8299 23.2456 92.3684C23.2147 92.2234 23.2147 92.2234 23.1832 92.0755C22.7194 89.7502 22.7194 89.7502 23.1236 89.1211C23.5161 88.8633 23.7792 88.9023 24.2434 88.9474C24.682 89.1779 24.682 89.1779 25.1449 89.4997C25.2285 89.5571 25.3122 89.6145 25.3984 89.6737C25.6651 89.8574 25.9297 90.0438 26.1945 90.2303C26.3695 90.3513 26.5446 90.4721 26.7198 90.5927C29.5642 92.5576 29.5642 92.5576 30.0877 93.0811C30.1178 93.4252 30.1307 93.754 30.1317 94.0984C30.1349 94.3155 30.1382 94.5325 30.1416 94.7495C30.1429 94.865 30.1442 94.9805 30.1456 95.0995C30.2108 100.322 30.5832 105.645 31.5822 110.778C31.6557 111.184 31.6557 111.184 31.6557 111.612C31.5059 111.683 31.3562 111.753 31.2019 111.826C30.0727 112.369 29.0295 112.904 28.0921 113.75C28.0068 113.822 27.9216 113.894 27.8337 113.969C26.9589 114.764 26.3368 115.835 25.8114 116.886C25.0323 116.732 24.2541 116.574 23.4767 116.411C21.9249 116.09 20.377 115.776 18.8089 115.546C18.7021 115.531 18.5952 115.515 18.4851 115.499C17.9651 115.423 17.4449 115.35 16.9241 115.28C16.734 115.254 16.544 115.227 16.3539 115.2C16.1878 115.178 16.0217 115.156 15.8505 115.133C15.0256 114.947 14.5516 114.495 13.9802 113.893C13.779 113.691 13.577 113.491 13.3744 113.291C12.8716 112.783 12.3903 112.256 11.9078 111.728C11.469 111.25 11.0189 110.787 10.5592 110.329C9.56066 109.273 8.61287 108.188 7.70831 107.05C7.64581 106.972 7.58331 106.894 7.51892 106.813C7.11799 106.31 6.72105 105.804 6.32755 105.295C6.14956 105.067 5.96851 104.84 5.78731 104.614C4.93161 103.512 4.93161 103.512 4.89307 102.917C4.99997 102.489 4.99997 102.489 5.20488 102.204C6.28907 101.781 7.72247 102.434 8.76848 102.765C8.9033 102.808 8.9033 102.808 9.04085 102.851C12.0908 103.812 15.0278 105.025 17.9397 106.343C18.2709 106.492 18.2709 106.492 18.6842 106.623C18.6019 106.503 18.5195 106.382 18.4347 106.259C18.3278 106.101 18.2209 105.943 18.114 105.785C18.0082 105.63 17.9023 105.474 17.7933 105.314C17.5438 104.912 17.5438 104.912 17.5438 104.627C17.4498 104.627 17.3557 104.627 17.2587 104.627C17.2064 104.515 17.2064 104.515 17.153 104.401C16.7557 103.577 16.3101 102.792 15.8422 102.008C14.0683 99.0113 14.0683 99.0113 14.2653 97.9276C14.4702 97.6247 14.4702 97.6247 14.8355 97.5C15.8855 97.6707 16.7916 98.0446 17.7576 98.48C17.8975 98.5419 18.0373 98.6038 18.1814 98.6676C18.5871 98.8475 18.992 99.0289 19.3969 99.2105C19.6448 99.3209 19.8928 99.4311 20.1408 99.5413C20.2451 99.5876 20.3494 99.6339 20.4568 99.6817C20.5304 99.7143 20.604 99.747 20.6798 99.7807C20.6432 99.696 20.6066 99.6113 20.5688 99.524C20.4006 99.1345 20.2328 98.7449 20.0651 98.3553C20.0075 98.222 19.9499 98.0888 19.8905 97.9516C19.5628 97.1896 19.2562 96.4251 18.9693 95.6469C18.8177 95.2754 18.6639 94.905 18.5088 94.535C18.3991 94.2215 18.3991 94.2215 18.3991 93.7939C18.305 93.7468 18.2109 93.6998 18.114 93.6513C18.114 93.4161 18.114 93.1809 18.114 92.9386C18.0199 92.8916 17.9259 92.8445 17.8289 92.7961C17.6177 92.3088 17.4719 91.7966 17.3122 91.2904C17.2659 91.1511 17.2196 91.0117 17.1719 90.8681C16.9132 90.0567 16.752 89.372 16.8311 88.5197C17.2133 88.0668 17.5425 88.0405 18.114 88.0921Z" fill="#CE4327"/>
<path d="M90.8114 38.0592C90.9189 38.08 91.0264 38.1008 91.1371 38.1223C91.9161 38.2908 91.9161 38.2908 92.2369 38.7719C92.2809 39.2214 92.2904 39.3783 92.0943 39.7697C91.6127 40.2093 91.0686 40.5501 90.5263 40.9101C90.2083 41.1404 89.895 41.3768 89.582 41.6139C89.439 41.721 89.2961 41.8281 89.1488 41.9385C88.8385 42.164 88.8385 42.164 88.6733 42.3355C88.788 42.3654 88.788 42.3654 88.9051 42.3959C90.8013 42.8968 92.5947 43.5078 94.375 44.3311C94.4763 44.3778 94.5775 44.4245 94.6818 44.4726C97.2456 45.6704 99.526 47.2471 101.606 49.1654C101.907 49.4416 102.215 49.7065 102.527 49.9705C103.098 50.4693 103.586 51.0165 104.068 51.6009C104.16 51.7089 104.252 51.817 104.347 51.9283C105.242 53.0148 105.242 53.0148 105.208 53.739C104.918 54.2274 104.676 54.3956 104.135 54.552C104.011 54.5887 103.886 54.6255 103.758 54.6633C103.628 54.6993 103.498 54.7354 103.364 54.7725C103.17 54.8298 103.17 54.8298 102.972 54.8883C102.404 55.0523 101.958 55.1645 101.36 55.1645C101.313 55.2585 101.266 55.3526 101.217 55.4496C100.933 55.5347 100.933 55.5347 100.585 55.601C100.102 55.6939 100.102 55.6939 99.6491 55.8772C99.7528 56.026 99.8564 56.1749 99.9632 56.3282C103.621 61.6536 107.263 69.3129 106.776 75.9759C106.545 76.3233 106.545 76.3233 106.206 76.546C105.819 76.619 105.819 76.619 105.351 76.546C104.979 76.2737 104.68 75.9423 104.371 75.6017C103.701 74.8803 103.022 74.2621 102.215 73.6952C102.242 73.7967 102.269 73.8982 102.297 74.0027C103.283 77.7115 103.947 81.3932 103.975 85.2399C103.978 85.4742 103.982 85.7085 103.987 85.9428C103.995 86.2849 103.998 86.6268 104 86.969C104.003 87.0734 104.007 87.1778 104.01 87.2853C104.008 87.8285 103.968 88.0477 103.588 88.4479C103.213 88.6623 103.213 88.6623 102.839 88.6534C102.483 88.513 102.303 88.3952 102.072 88.0921C102.072 87.998 102.072 87.9039 102.072 87.807C101.978 87.76 101.884 87.7129 101.787 87.6645C101.787 87.5233 101.787 87.3822 101.787 87.2368C101.693 87.1898 101.599 87.1428 101.502 87.0943C101.315 86.7912 101.139 86.4885 100.968 86.1767C100.874 86.0075 100.779 85.8384 100.685 85.6694C100.635 85.5768 100.586 85.4842 100.534 85.3888C100.367 85.0913 100.367 85.0913 100.137 84.8235C99.2638 83.6705 99.3903 82.3565 99.3975 80.9749C99.4012 80.2372 99.3912 79.4997 99.3835 78.7622C99.3825 78.618 99.3814 78.4739 99.3802 78.3254C99.3658 76.6786 99.2427 75.0484 99.079 73.4101C99.0599 73.1963 99.041 72.9825 99.0222 72.7686C98.4504 66.6604 97.0656 60.0897 94.2325 54.5943C94.1539 54.44 94.1539 54.44 94.0736 54.2825C91.3151 48.9341 87.277 44.7859 81.5461 42.7186C78.8085 41.8789 75.9838 41.5891 73.136 41.4803C73.5954 40.6033 73.5954 40.6033 73.8487 40.1974C73.9118 40.0936 73.9749 39.9898 74.0399 39.8829C74.5976 39.0587 75.067 38.7416 76.0339 38.5192C76.2576 38.4767 76.2576 38.4767 76.4858 38.4334C76.6444 38.4001 76.8031 38.3668 76.9666 38.3325C77.4468 38.235 77.9279 38.1461 78.4101 38.0592C78.6041 38.0212 78.6041 38.0212 78.8021 37.9824C82.5984 37.2532 87.026 37.2933 90.8114 38.0592Z" fill="#E9E1C1"/>
<path d="M46.4802 39.3421C46.5764 39.7784 46.671 40.215 46.7653 40.6517C46.7925 40.7749 46.8197 40.8981 46.8477 41.0251C46.8734 41.145 46.8992 41.2649 46.9257 41.3884C46.9496 41.4981 46.9734 41.6078 46.9981 41.7209C47.1428 42.6321 47.1428 42.6321 46.8722 43.0159C46.7899 43.0913 46.7076 43.1666 46.6228 43.2442C46.5303 43.3304 46.4379 43.4166 46.3427 43.5054C46.0784 43.7382 45.8121 43.9683 45.5448 44.1975C44.1041 45.4448 42.8085 46.8241 41.6337 48.3224C41.498 48.4884 41.3619 48.6541 41.2256 48.8196C40.2328 50.0297 39.3299 51.2731 38.4978 52.5987C38.4317 52.7039 38.3656 52.8091 38.2974 52.9175C36.4315 55.9108 34.8763 58.9824 33.6513 62.2917C33.5811 62.4783 33.5811 62.4783 33.5094 62.6686C32.316 65.8761 31.6138 69.2876 31.2676 72.6869C31.228 72.9825 31.228 72.9825 31.1567 73.2638C31.0769 73.5873 31.0434 73.8984 31.0142 74.2303C31.0025 74.3626 30.9908 74.495 30.9788 74.6314C30.967 74.7723 30.9551 74.9131 30.9429 75.0582C30.9306 75.2027 30.9182 75.3471 30.9054 75.4959C30.7933 76.8425 30.7177 78.1897 30.6578 79.5395C29.8382 79.9671 29.8382 79.9671 29.5175 79.9671C29.4705 80.0612 29.4234 80.1553 29.375 80.2522C29.2809 80.2051 29.1868 80.1581 29.0899 80.1096C29.0428 80.2037 28.9958 80.2978 28.9473 80.3947C28.5755 80.5043 28.2115 80.5965 27.8337 80.6798C27.7331 80.7033 27.6325 80.7269 27.5288 80.7511C27.1948 80.8272 26.8599 80.897 26.5241 80.9649C26.3971 80.9912 26.2701 81.0175 26.1392 81.0446C24.952 81.2687 23.783 81.3007 22.5774 81.2945C22.4771 81.2944 22.3768 81.2942 22.2735 81.294C20.7532 81.2891 19.3076 81.2025 17.8289 80.8224C17.6819 80.7882 17.5349 80.754 17.3835 80.7188C16.7119 80.5452 16.3444 80.4447 15.9758 79.8246C15.9758 79.3969 15.9758 79.3969 16.1184 78.9693C16.596 78.5467 17.1167 78.2025 17.6507 77.8557C18.693 77.1659 19.6732 76.4555 20.5372 75.5482C20.745 75.3432 20.9529 75.1383 21.1609 74.9335C22.1069 73.9813 22.9234 72.9991 23.6999 71.9045C23.8093 71.7504 23.8093 71.7504 23.9209 71.5932C24.2501 71.1229 24.5632 70.6532 24.8431 70.1516C25.1146 69.676 25.4108 69.3617 25.8114 68.9912C26.0019 68.8017 26.1921 68.6117 26.3815 68.421C26.2072 68.3812 26.0328 68.3413 25.8531 68.3002C23.6876 67.791 21.6035 67.1412 19.6107 66.1403C19.4787 66.0771 19.4787 66.0771 19.3441 66.0127C18.8871 65.7696 18.6184 65.5296 18.3946 65.0713C18.2565 64.5724 18.2565 64.5724 18.3505 64.2746C18.5931 63.9288 18.7865 63.8533 19.1803 63.706C19.3099 63.6558 19.4396 63.6056 19.5732 63.5539C19.712 63.5019 19.8508 63.4499 19.9938 63.3964C21.8591 62.665 23.5404 61.8103 25.1855 60.6619C25.5263 60.4386 25.5263 60.4386 25.9539 60.296C25.9539 60.202 25.9539 60.1079 25.9539 60.011C26.1482 59.8461 26.1482 59.8461 26.4261 59.6546C27.6411 58.7714 28.6969 57.7381 29.66 56.5899C29.8582 56.3635 30.0572 56.1379 30.2569 55.9128C30.3472 55.8107 30.4374 55.7085 30.5303 55.6032C30.8021 55.3052 31.0832 55.0197 31.3706 54.7368C31.2693 54.699 31.1681 54.6611 31.0638 54.6221C30.9328 54.5718 30.8017 54.5214 30.6668 54.4696C30.5361 54.42 30.4055 54.3703 30.2709 54.3192C29.9451 54.1667 29.9451 54.1667 29.8026 53.8816C29.5659 53.7844 29.3281 53.6898 29.0899 53.5965C28.8162 53.436 28.5459 53.2694 28.2791 53.0976C28.1434 53.0109 28.0076 52.9241 27.8677 52.8348C27.5219 52.5987 27.5219 52.5987 27.2368 52.3136C27.1545 52.2342 27.0722 52.1548 26.9873 52.073C26.8092 51.7434 26.8092 51.7434 26.8983 51.2267C27.0943 50.7456 27.0943 50.7456 27.5219 50.4605C27.8145 50.4126 28.109 50.3756 28.4039 50.3447C32.1643 49.8384 35.2524 47.7756 38.1042 45.3947C38.4303 45.1241 38.762 44.861 39.0947 44.5984C39.4908 44.2838 39.88 43.9628 40.264 43.6335C40.3477 43.5617 40.4315 43.49 40.5178 43.4161C40.6823 43.2747 40.8464 43.1326 41.0099 42.99C41.3604 42.6885 41.618 42.4833 42.0614 42.3355C42.0614 42.2414 42.0614 42.1474 42.0614 42.0504C42.2919 41.8706 42.2919 41.8706 42.6137 41.6673C43.1005 41.3542 43.5772 41.0328 44.0481 40.6963C45.9753 39.3421 45.9753 39.3421 46.4802 39.3421Z" fill="#E49F24"/>
<path d="M11.8605 114.428C12.0309 114.434 12.0309 114.434 12.2047 114.44C12.7482 114.475 13.2879 114.524 13.8289 114.587C13.9335 114.599 14.0381 114.61 14.146 114.621C14.8135 114.697 15.4637 114.814 16.1213 114.95C16.645 115.052 17.1709 115.138 17.6976 115.223C17.9108 115.257 18.1241 115.292 18.3373 115.326C18.4465 115.344 18.5556 115.361 18.6681 115.379C23.7234 116.198 23.7234 116.198 25.6689 116.886C25.5944 117.28 25.5109 117.645 25.3838 118.026C25.248 119.766 25.248 119.766 25.954 121.305C26.7921 122.101 27.5391 122.238 28.6622 122.254C29.9205 122.22 30.8807 121.646 31.9408 121.02C32.1299 120.923 32.3193 120.826 32.511 120.735C32.525 120.854 32.5389 120.972 32.5533 121.095C32.7714 122.736 33.1783 124.019 34.4916 125.088C35.4356 125.714 36.4005 125.712 37.5001 125.581C39.0127 125.257 40.1482 124.112 41.0185 122.882C41.345 122.37 41.6378 121.842 41.9189 121.305C42.2409 121.604 42.4532 121.894 42.6673 122.276C43.1767 123.109 43.8279 123.718 44.7698 124.013C45.9131 124.123 47.1109 124.199 48.0483 123.443C49.3486 122.27 49.7484 120.691 50.0439 119.024C50.4327 118.928 50.8217 118.833 51.211 118.739C51.3206 118.712 51.4302 118.685 51.5431 118.657C52.0995 118.523 52.6029 118.417 53.1799 118.454C53.7565 121.09 53.6549 124 52.9538 126.604C52.7744 127.395 52.7955 128.282 53.1799 129.002C52.4105 129.24 51.6499 129.388 50.8546 129.51C50.07 129.606 50.07 129.606 49.3312 129.857C48.9292 129.891 48.5301 129.917 48.1274 129.935C48.0063 129.941 47.8852 129.947 47.7605 129.953C46.4846 130.012 45.2095 130.034 43.9323 130.036C43.8139 130.036 43.6955 130.036 43.5735 130.037C41.4604 130.039 39.3971 129.892 37.302 129.612C36.9292 129.565 36.9292 129.565 36.5493 129.574C36.1117 129.572 35.7752 129.431 35.3619 129.287C34.9305 129.176 34.4962 129.08 34.0612 128.984C33.9474 128.958 33.8337 128.933 33.7165 128.906C33.6064 128.881 33.4964 128.857 33.383 128.832C33.2839 128.81 33.1849 128.788 33.0828 128.765C32.7508 128.701 32.7508 128.701 32.2259 128.717C32.2259 128.623 32.2259 128.529 32.2259 128.432C32.0791 128.422 31.9323 128.413 31.781 128.403C30.8434 128.284 29.9674 127.936 29.0811 127.621C28.8956 127.556 28.7101 127.491 28.5247 127.426C24.882 126.145 24.882 126.145 24.6711 125.724C24.4197 125.622 24.4197 125.622 24.1137 125.54C23.323 125.291 22.6241 124.922 21.9004 124.521C21.7642 124.446 21.6279 124.371 21.4876 124.294C20.2734 123.616 19.117 122.868 17.9755 122.075C17.6907 121.878 17.4037 121.685 17.1157 121.492C16.9436 121.377 16.7716 121.261 16.5996 121.144C16.4507 121.044 16.3019 120.944 16.1485 120.84C16.0445 120.758 15.9405 120.677 15.8334 120.592C15.8334 120.498 15.8334 120.404 15.8334 120.307C15.7569 120.272 15.6805 120.236 15.6017 120.2C14.8584 119.809 14.2729 119.346 13.6952 118.739C13.112 118.145 12.5035 117.585 11.8828 117.031C10.868 116.113 10.868 116.113 10.7909 115.38C10.8443 114.89 10.8443 114.89 11.0247 114.648C11.3309 114.419 11.4817 114.414 11.8605 114.428Z" fill="#CE4327"/>
<path d="M119.552 115.104C119.755 115.12 119.959 115.135 120.163 115.15C126.21 115.624 133.187 116.604 138.706 119.309C138.926 119.749 138.891 120.109 138.849 120.592C138.366 121.116 137.701 121.178 137.032 121.306C136.911 121.33 136.79 121.355 136.666 121.38C136.28 121.457 135.894 121.532 135.508 121.608C135.249 121.659 134.989 121.711 134.73 121.763C134.151 121.879 133.572 121.993 132.993 122.106C132.469 122.209 131.946 122.315 131.424 122.421C129.734 122.764 128.041 123.081 126.343 123.384C126.13 123.423 125.917 123.464 125.705 123.508C125.134 123.619 124.56 123.71 123.986 123.803C123.857 123.824 123.728 123.844 123.595 123.866C123.177 123.933 122.758 124 122.34 124.067C122.199 124.089 122.057 124.112 121.912 124.135C120.015 124.438 118.12 124.72 116.212 124.939C115.768 124.99 115.338 125.064 114.901 125.154C112.466 125.599 110.769 124.933 108.558 123.942C106.207 122.934 103.714 122.265 101.217 121.732C101.217 121.638 101.217 121.544 101.217 121.447C101.319 121.417 101.421 121.386 101.527 121.354C105.669 120.105 109.693 118.721 113.618 116.886C113.754 116.823 113.889 116.76 114.029 116.695C114.607 116.426 115.183 116.155 115.758 115.879C115.854 115.834 115.95 115.789 116.049 115.743C116.328 115.609 116.328 115.609 116.58 115.439C117.521 114.859 118.491 115.013 119.552 115.104Z" fill="#E49F24"/>
<path d="M75.0553 47.8992C76.2794 48.8498 77.2331 50.2077 77.5549 51.7434C77.6733 53.2305 77.7839 54.8512 76.9847 56.1623C76.9259 56.269 76.8671 56.3758 76.8065 56.4858C75.698 58.3343 73.8525 59.4551 71.7997 60.0021C69.7617 60.3987 67.7293 60.2875 65.9554 59.1201C64.6422 58.1155 63.6948 56.8347 63.443 55.1645C63.2713 52.7638 63.8626 50.6372 65.403 48.7678C67.9789 46.0681 72.0351 45.848 75.0553 47.8992Z" fill="#E9DFC0"/>
<path d="M128.3 97.9276C128.568 98.1504 128.568 98.1504 128.728 98.4978C128.703 99.0423 128.682 99.3818 128.324 99.8035C128.204 99.893 128.085 99.9825 127.962 100.075C127.82 100.183 127.677 100.292 127.531 100.403C127.36 100.528 127.189 100.654 127.017 100.779C126.814 100.93 126.61 101.082 126.406 101.234C125.828 101.663 125.248 102.088 124.667 102.513C124.205 102.851 123.744 103.191 123.284 103.531C121.971 104.502 120.653 105.464 119.325 106.414C119.052 106.611 118.782 106.812 118.513 107.014C118.354 107.13 118.196 107.246 118.037 107.362C117.839 107.511 117.839 107.511 117.636 107.662C116.664 108.183 115.525 108.226 114.444 108.36C110.923 108.808 107.562 109.71 104.232 110.93C103.174 111.307 103.174 111.307 102.642 111.327C102.287 111.14 102.078 110.898 101.787 110.614C102.251 109.566 103.145 108.702 103.908 107.861C104.455 107.254 104.956 106.617 105.451 105.967C105.651 105.707 105.857 105.452 106.064 105.197C106.151 105.082 106.239 104.967 106.33 104.849C107.177 103.81 108.082 103.339 109.315 102.863C109.509 102.786 109.703 102.708 109.896 102.63C122.677 97.5474 122.677 97.5474 128.3 97.9276Z" fill="#E49F24"/>
<path d="M8.76848 102.765C8.85836 102.793 8.94824 102.822 9.04085 102.851C12.1917 103.843 15.2698 105.068 18.2566 106.48C18.354 106.526 18.4515 106.571 18.5519 106.618C19.2328 106.966 19.5865 107.414 20.0027 108.03C20.1379 108.222 20.2734 108.414 20.4092 108.606C20.4774 108.703 20.5456 108.8 20.6159 108.9C21.4657 110.089 22.3944 111.218 23.3831 112.294C23.6425 112.576 23.895 112.863 24.1454 113.153C24.8712 113.987 25.6293 114.793 26.3816 115.603C26.2105 116.043 26.0252 116.466 25.8114 116.886C25.0323 116.732 24.2541 116.574 23.4767 116.411C21.9249 116.09 20.377 115.776 18.8089 115.546C18.7021 115.531 18.5952 115.515 18.4851 115.499C17.9651 115.423 17.4449 115.35 16.9241 115.28C16.734 115.254 16.544 115.227 16.3539 115.2C16.1878 115.178 16.0217 115.156 15.8505 115.133C15.0256 114.947 14.5516 114.495 13.9802 113.893C13.779 113.691 13.577 113.491 13.3744 113.291C12.8716 112.783 12.3903 112.256 11.9078 111.728C11.469 111.25 11.0189 110.787 10.5592 110.329C9.56066 109.273 8.61287 108.188 7.70831 107.05C7.61456 106.933 7.61456 106.933 7.51892 106.813C7.11799 106.31 6.72105 105.804 6.32755 105.295C6.14956 105.067 5.96851 104.84 5.78731 104.614C4.93161 103.512 4.93161 103.512 4.89307 102.917C4.99997 102.489 4.99997 102.489 5.20488 102.204C6.28907 101.781 7.72247 102.434 8.76848 102.765Z" fill="#E9E1C1"/>
<path d="M115.472 90.3728C115.748 90.5332 115.748 90.5332 115.899 90.8004C115.956 91.4645 115.857 91.8288 115.502 92.3874C115.415 92.5243 115.329 92.6613 115.24 92.8024C115.099 93.0198 115.099 93.0198 114.955 93.2415C114.858 93.3927 114.762 93.544 114.662 93.6998C113.81 95.0255 112.915 96.3197 111.998 97.6013C111.777 97.912 111.558 98.2245 111.341 98.5379C110.542 99.687 109.716 100.813 108.87 101.928C108.776 102.052 108.682 102.175 108.586 102.303C108.084 102.96 107.566 103.593 107.017 104.211C106.62 104.663 106.245 105.131 105.868 105.598C105.705 105.799 105.543 105.999 105.381 106.199C105.165 106.466 104.95 106.732 104.735 106.999C104.062 107.833 103.373 108.643 102.649 109.432C102.348 109.769 102.066 110.117 101.787 110.471C101.107 110.237 100.534 109.863 99.9343 109.474C100.385 109.097 100.847 108.77 101.347 108.462C102.691 107.636 104.546 106.473 105.066 104.912C105.151 104.191 105.198 103.665 104.754 103.068C104.622 102.971 104.489 102.874 104.353 102.774C104.253 102.689 104.153 102.604 104.05 102.516C102.905 102.043 101.616 102.362 100.502 102.795C99.3845 103.276 98.1727 103.831 97.2073 104.577C96.9408 104.77 96.9408 104.77 96.6558 104.77C96.8541 103.74 97.0562 102.71 97.2883 101.687C97.3175 101.556 97.3467 101.425 97.3768 101.29C97.674 100.473 98.3097 99.9904 98.981 99.4778C99.0685 99.4102 99.156 99.3425 99.2462 99.2729C99.5221 99.0607 99.7992 98.8502 100.077 98.6404C100.163 98.5752 100.249 98.51 100.337 98.4429C104.211 95.5205 108.393 93.0522 112.817 91.0588C113.042 90.9557 113.042 90.9557 113.271 90.8505C114.036 90.5135 114.632 90.2652 115.472 90.3728Z" fill="#3C301B"/>
<path d="M85.6993 0.0924303C86.3454 0.420403 86.7211 0.900287 86.9627 1.56798C87.0852 2.08753 87.1751 2.60728 87.2478 3.13596C87.3272 3.02884 87.4065 2.92171 87.4883 2.81134C88.425 1.70857 89.9588 0.978528 91.39 0.823455C92.5698 0.739858 93.6687 0.706239 94.6601 1.42544C95.1369 1.92669 95.3451 2.30044 95.4173 2.99342C95.3617 5.20494 93.5303 6.92919 92.038 8.36387C90.6709 9.64333 88.8217 11.2562 86.9627 11.6886C86.9157 11.7827 86.8686 11.8768 86.8201 11.9737C86.5094 12.1262 86.5094 12.1262 86.1252 12.2766C85.9992 12.3269 85.8731 12.3773 85.7433 12.4292C85.3947 12.5439 85.3947 12.5439 84.9671 12.5439C84.92 12.6379 84.873 12.732 84.8245 12.8289C84.2554 12.9143 83.8727 12.8289 83.3902 12.5349C82.5626 11.8751 82.3852 10.8113 82.1162 9.83553C82.0675 9.70598 82.0188 9.57644 81.9686 9.44297C81.7646 8.75635 81.6936 8.0598 81.6084 7.34992C81.5726 7.06204 81.5368 6.77417 81.5009 6.4863C81.4844 6.35022 81.4678 6.21415 81.4508 6.07395C81.4119 5.76841 81.3663 5.46373 81.3188 5.15942C81.1259 3.64147 81.3683 2.25705 82.2587 0.997806C83.2116 0.057527 84.3832 -0.306978 85.6993 0.0924303Z" fill="#CE4327"/>
<path d="M43.9145 49.1776C44.3287 49.5388 44.4688 49.7556 44.5331 50.3024C44.4727 50.8545 44.3199 51.0146 43.9323 51.4049C43.7559 51.5904 43.7559 51.5904 43.5759 51.7796C43.4525 51.9088 43.329 52.038 43.2018 52.171C40.459 55.2259 38.5181 58.9874 37.2149 62.8618C37.1575 63.0298 37.1575 63.0298 37.0989 63.2011C36.3687 65.369 35.9338 67.6031 35.5044 69.8465C35.4807 69.9673 35.457 70.0882 35.4326 70.2127C34.902 72.9438 34.668 75.7606 34.5366 78.5372C34.5066 78.9693 34.5066 78.9693 34.4383 79.327C34.3365 80.0089 34.3111 80.6867 34.2855 81.3753C34.2766 81.615 34.2766 81.615 34.2675 81.8595C34.1941 84.0621 34.1948 86.2656 34.1951 88.4692C34.1951 88.9698 34.1941 89.4704 34.1922 89.971C34.1813 92.7921 34.2135 95.5989 34.4065 98.4143C34.4696 99.3347 34.5246 100.255 34.551 101.178C34.5564 101.338 34.5617 101.498 34.5672 101.662C34.5066 102.061 34.5066 102.061 34.2449 102.326C33.8155 102.553 33.5606 102.567 33.0811 102.489C32.5181 102.051 32.3263 101.755 32.2259 101.064C32.1583 100.367 32.1184 99.6692 32.0767 98.9711C32.0672 98.813 32.0672 98.813 32.0575 98.6518C31.9012 95.9722 31.896 93.2935 31.904 90.6101C31.9052 90.2059 31.9059 89.8017 31.9065 89.3975C31.9169 83.4696 32.0453 77.5865 32.7961 71.6996C32.8139 71.5583 32.8317 71.4171 32.85 71.2716C32.9498 70.5061 33.0759 69.7488 33.2237 68.9912C33.2519 68.8449 33.2802 68.6986 33.3093 68.5479C34.6811 61.5575 37.3887 54.6112 42.489 49.4627C43.0211 49.108 43.2851 49.1003 43.9145 49.1776Z" fill="#56462F"/>
<path d="M68.8864 10.8155C70.272 11.593 70.8236 13.0914 71.2829 14.5395C71.3348 14.7761 71.384 15.0135 71.4255 15.2522C71.553 15.1181 71.6805 14.9839 71.8119 14.8457C73.1301 13.4798 74.4111 12.1668 76.4234 12.0717C77.1892 12.1325 77.6253 12.3232 78.1607 12.8735C78.654 13.6311 78.7624 14.2566 78.6468 15.1419C78.3196 16.5164 77.4747 17.6324 76.5571 18.6732C76.4958 18.7431 76.4345 18.813 76.3713 18.885C75.5825 19.7799 74.7749 20.6269 73.8487 21.3816C73.7654 21.4502 73.682 21.5187 73.5961 21.5894C72.9239 22.1425 72.2499 22.6934 71.568 23.2346C71.4171 23.3563 71.4171 23.3563 71.2632 23.4805C71.1641 23.5583 71.0649 23.6361 70.9628 23.7163C70.8739 23.7868 70.7851 23.8572 70.6936 23.9299C70.3064 24.1629 70.0018 24.1762 69.5657 24.0827C68.9996 23.8075 68.6542 23.3047 68.2895 22.807C68.2096 22.7065 68.1297 22.606 68.0473 22.5024C67.8619 22.2368 67.8619 22.2368 67.8619 21.9518C67.7678 21.9518 67.6737 21.9518 67.5768 21.9518C67.5386 21.8823 67.5004 21.8128 67.461 21.7413C67.4051 21.6402 67.3493 21.5392 67.2917 21.435C67.227 21.3176 67.1623 21.2002 67.0957 21.0792C66.9307 20.7869 66.7609 20.4972 66.5879 20.2095C65.7047 18.7353 65.0601 17.2304 64.7771 15.5217C64.7364 15.2409 64.7364 15.2409 64.5834 14.9671C64.6522 13.5637 64.775 12.0492 65.8312 11.0165C66.7917 10.316 67.8228 10.3636 68.8864 10.8155Z" fill="#CE4327"/>
<path d="M65.4386 35.921C65.7237 36.2061 65.7237 36.2061 65.7816 36.636C65.7589 37.3652 65.4142 37.9592 65.0822 38.5937C65.0177 38.7197 64.9532 38.8457 64.8867 38.9755C64.3882 39.9287 63.8397 40.7886 63.1579 41.6228C63.0956 41.7048 63.0333 41.7867 62.9691 41.8711C62.4868 42.4896 61.905 42.9775 61.3048 43.4759C61.1962 43.568 61.1962 43.568 61.0854 43.662C59.6793 44.8515 58.2045 45.8497 56.6009 46.7544C56.5036 46.8096 56.4064 46.8647 56.3062 46.9216C54.4063 47.9822 52.4399 48.5167 50.3022 48.8747C50.1913 48.8936 50.0805 48.9125 49.9663 48.932C49.2981 49.0332 48.7142 49.0567 48.0482 48.8925C47.7631 48.4649 47.7631 48.4649 47.7759 48.0089C47.9312 47.3607 48.1931 46.9054 48.556 46.3535C48.6203 46.2535 48.6846 46.1535 48.7509 46.0505C51.4379 41.9306 55.3047 38.836 59.8794 37.0614C59.9679 37.0271 60.0564 36.9927 60.1475 36.9573C61.789 36.3354 63.6685 35.8082 65.4386 35.921Z" fill="#E7DFBF"/>
<path d="M86.8291 20.954C88.1943 21.7057 88.7271 22.8047 89.2434 24.2325C89.3504 24.1448 89.4573 24.0572 89.5675 23.9669C90.6522 23.1103 91.6205 22.4421 93.0565 22.5308C93.8457 22.6617 94.3283 23.0147 94.8472 23.6177C95.2557 24.4197 95.3332 25.1467 95.0788 26.0143C94.022 28.7593 91.3913 30.0148 88.9447 31.3116C88.1981 31.7098 87.4963 32.1321 86.81 32.628C86.5351 32.7851 86.5351 32.7851 86.0451 32.7762C85.6798 32.6426 85.6798 32.6426 85.3947 32.5C85.2577 32.1788 85.2577 32.1788 85.1175 31.7578C85.0669 31.6065 85.0164 31.4551 84.9643 31.2992C84.9123 31.1398 84.8603 30.9804 84.8068 30.8162C84.7271 30.5796 84.7271 30.5796 84.6458 30.3382C84.2544 29.1531 84.2544 29.1531 84.2544 28.5088C84.1603 28.4617 84.0662 28.4147 83.9693 28.3662C83.8802 27.9844 83.8082 27.6123 83.7466 27.2259C83.7281 27.1158 83.7095 27.0057 83.6904 26.8923C83.5957 26.3188 83.5124 25.7463 83.4526 25.1679C83.4316 24.6834 83.4316 24.6834 83.2566 24.375C83.4509 21.6968 83.4509 21.6968 84.1787 21.0542C85.0644 20.4664 85.893 20.5356 86.8291 20.954Z" fill="#CE4327"/>
<path d="M66.1513 81.9627C66.5166 82.23 66.5166 82.23 66.7215 82.6754C66.7831 83.44 66.5584 84.1908 66.3853 84.929C64.607 92.6843 65.1267 101.98 69.3891 108.871C69.7224 109.387 70.0593 109.899 70.4113 110.403C70.4876 110.514 70.5639 110.625 70.6426 110.739C70.7454 110.884 70.7454 110.884 70.8503 111.032C71.0319 111.395 71.0398 111.638 70.9978 112.039C70.784 112.369 70.784 112.369 70.4276 112.61C69.6553 112.72 69.6553 112.72 69.2873 112.61C65.3764 109.225 63.6876 102.163 63.3004 97.2149C63.2776 96.6765 63.2706 96.1385 63.2665 95.5996C63.2651 95.4482 63.2637 95.2968 63.2623 95.1408C63.2587 94.6532 63.2569 94.1657 63.2559 93.678C63.2555 93.5118 63.2551 93.3455 63.2548 93.1742C63.2541 90.6162 63.3875 88.1848 63.8706 85.6689C63.9226 85.3716 63.9742 85.0743 64.0254 84.7769C64.1162 84.2641 64.2079 83.7516 64.3083 83.2406C64.327 83.1445 64.3458 83.0484 64.3651 82.9494C64.4507 82.6396 64.563 82.3822 64.7259 82.1053C65.1858 81.8753 65.654 81.8803 66.1513 81.9627Z" fill="#DA6552"/>
<path d="M18.114 88.0921C18.3925 88.2549 18.3925 88.2549 18.6586 88.4835C18.7576 88.567 18.8566 88.6505 18.9587 88.7365C19.1139 88.8718 19.1139 88.8718 19.2722 89.0097C19.4895 89.1942 19.7068 89.3787 19.9242 89.5632C20.0294 89.6535 20.1346 89.7437 20.2429 89.8367C20.6177 90.1563 20.9998 90.4651 21.3836 90.7737C21.4961 90.8674 21.6085 90.9611 21.7244 91.0576C21.9652 91.2555 22.2102 91.4486 22.4603 91.6347C23.4695 92.4367 23.8626 93.2796 24.2186 94.4878C24.3695 94.9984 24.5364 95.5037 24.7011 96.01C24.7339 96.1121 24.7667 96.2143 24.8005 96.3195C25.7472 99.2396 27.142 102.032 28.5197 104.77C28.1145 104.577 27.7529 104.36 27.3866 104.102C27.2787 104.026 27.1707 103.951 27.0595 103.873C26.9446 103.793 26.8296 103.712 26.7112 103.629C25.8143 103.009 24.91 102.414 23.9672 101.865C23.8679 101.807 23.7686 101.75 23.6663 101.69C23.2187 101.431 22.7689 101.178 22.3118 100.937C21.3783 100.431 20.829 100.042 20.3947 99.068C20.356 98.9838 20.3173 98.8996 20.2774 98.8129C19.8391 97.8575 19.4317 96.8944 19.0673 95.9084C18.8938 95.4455 18.6999 94.9909 18.5088 94.535C18.3991 94.2215 18.3991 94.2215 18.3991 93.7939C18.305 93.7468 18.2109 93.6998 18.114 93.6513C18.114 93.4161 18.114 93.1809 18.114 92.9386C18.0199 92.8916 17.9259 92.8445 17.8289 92.7961C17.6177 92.3088 17.4719 91.7966 17.3122 91.2904C17.2428 91.0814 17.2428 91.0814 17.1719 90.8681C16.9132 90.0567 16.752 89.372 16.8311 88.5197C17.2133 88.0668 17.5425 88.0405 18.114 88.0921Z" fill="#E9E0C0"/>
<path d="M73.1733 49.946C74.0384 50.5537 74.6092 51.2655 74.8465 52.3136C74.9849 53.6216 74.7714 54.771 73.9879 55.8449C73.3904 56.5403 72.8317 57.0666 71.9957 57.4452C71.8663 57.504 71.7369 57.5628 71.6037 57.6234C70.3638 57.9095 69.2594 57.7828 68.147 57.1601C67.2323 56.5551 66.6115 55.794 66.2939 54.7368C66.1337 53.4691 66.2165 52.2568 67.0105 51.2256C68.7729 49.214 70.7463 48.4538 73.1733 49.946Z" fill="#3C311C"/>
<path d="M67.1491 44.9013C67.5055 45.124 67.5055 45.124 67.7193 45.4715C67.7995 45.9704 67.7995 45.9704 67.7193 46.4693C67.1717 47.0074 66.5446 47.2661 65.8484 47.5562C63.7671 48.4563 61.774 49.4321 60.0219 50.8882C59.9086 50.9767 59.7952 51.0653 59.6784 51.1565C58.879 51.812 58.3225 52.5743 57.7613 53.4328C57.4419 53.9025 57.1304 54.321 56.7434 54.7368C56.1706 54.8373 55.8897 54.8292 55.3982 54.5141C55.1685 54.1558 55.0657 53.9061 55.0958 53.4773C55.7802 50.826 58.7058 48.7159 60.9278 47.3913C62.1096 46.7075 63.3205 46.0864 64.5566 45.5071C64.685 45.4457 64.8133 45.3844 64.9455 45.3211C65.7211 44.9698 66.2969 44.8133 67.1491 44.9013Z" fill="#DA6552"/>
<path d="M34.9343 54.5943C35.3502 54.9192 35.3588 55.1396 35.4242 55.6634C35.3619 56.1623 35.3619 56.1623 35.157 56.4652C34.8425 56.6953 34.5474 56.8648 34.2037 57.0443C33.0904 57.6447 32.2394 58.5091 31.4597 59.4942C29.9085 61.4387 27.9333 62.811 25.7402 63.9487C25.6481 63.9976 25.556 64.0466 25.4611 64.097C24.8429 64.404 24.3596 64.4964 23.6733 64.4298C23.2037 64.1209 23.1155 63.9004 22.9517 63.3607C22.9606 62.8618 22.9606 62.8618 23.2512 62.5779C23.7246 62.2569 24.2166 62.0148 24.7335 61.7749C26.989 60.6858 28.8943 59.1135 30.4586 57.1601C31.1346 56.3399 31.9155 55.7541 32.7961 55.1645C32.8893 55.0991 32.9824 55.0336 33.0784 54.9662C33.7218 54.5481 34.1919 54.4953 34.9343 54.5943Z" fill="#F2BB61"/>
<path d="M78.036 26.2548C78.7637 26.7572 79.3319 27.2859 79.5149 28.1702C79.622 29.2755 79.3139 30.1588 78.6719 31.0545C77.9378 31.9103 76.9566 32.6669 75.8176 32.8296C75.0369 32.8718 74.4446 32.735 73.8487 32.2149C73.1788 31.351 73.0787 30.4038 73.1605 29.3267C73.1918 29.1003 73.2337 28.8754 73.2786 28.6513C73.3726 28.6513 73.4667 28.6513 73.5637 28.6513C73.5807 28.4975 73.5807 28.4975 73.5982 28.3406C73.8435 27.4276 74.6927 26.6998 75.4702 26.2102C76.3488 25.9982 77.1765 25.9524 78.036 26.2548Z" fill="#CE4326"/>
<path d="M125.815 116.841C125.914 116.839 126.014 116.836 126.116 116.834C126.54 116.834 126.841 116.869 127.221 117.063C127.499 117.374 127.526 117.532 127.525 117.946C127.528 118.055 127.532 118.163 127.535 118.275C127.401 118.755 127.142 118.895 126.732 119.167C126.295 119.246 126.295 119.246 125.798 119.26C125.516 119.271 125.516 119.271 125.228 119.282C125.128 119.285 125.028 119.288 124.925 119.291C122.899 119.353 120.901 119.543 118.893 119.808C118.774 119.823 118.656 119.839 118.534 119.855C117.411 120.001 116.29 120.149 115.184 120.395C114.547 120.519 113.981 120.591 113.413 120.227C113.116 119.763 113.048 119.432 113.048 118.882C113.361 118.422 113.67 118.271 114.195 118.151C114.439 118.107 114.683 118.065 114.928 118.026C115.063 118.003 115.198 117.98 115.336 117.957C117.367 117.624 119.414 117.398 121.458 117.171C121.611 117.154 121.764 117.136 121.922 117.119C123.218 116.974 124.51 116.861 125.815 116.841Z" fill="#F2BB61"/>
<path d="M29.3037 67.4945C29.8026 67.5658 29.8026 67.5658 30.1501 67.7885C30.4595 68.2713 30.4288 68.566 30.3728 69.1338C30.1767 69.485 29.994 69.7661 29.7492 70.0781C29.6847 70.1639 29.6203 70.2497 29.554 70.3381C29.4197 70.5162 29.2843 70.6935 29.1479 70.87C28.9597 71.1134 28.7746 71.3589 28.5904 71.6054C27.3693 73.2296 26.0406 74.7609 24.671 76.261C24.5333 76.4137 24.3955 76.5664 24.2579 76.7192C24.1165 76.8753 23.975 77.0314 23.8336 77.1875C23.7342 77.298 23.7342 77.298 23.6328 77.4108C23.3277 77.7459 23.0552 78.0034 22.6754 78.2566C22.1797 78.2355 21.8923 78.1634 21.4816 77.8824C21.25 77.5438 21.25 77.5438 21.1342 77.0895C21.2893 76.3616 21.6497 76.0791 22.186 75.5839C22.5812 75.2184 22.9249 74.8267 23.2745 74.4185C23.5556 74.0941 23.8459 73.7794 24.1365 73.4635C25.4007 72.0584 26.5162 70.54 27.6053 68.9971C28.6021 67.5947 28.6021 67.5947 29.3037 67.4945Z" fill="#F2BB61"/>
<path d="M118.75 101.206C119.08 101.429 119.08 101.429 119.32 101.776C119.383 102.282 119.407 102.619 119.155 103.069C118.816 103.425 118.516 103.525 118.051 103.683C117.879 103.743 117.707 103.803 117.53 103.865C117.438 103.896 117.347 103.928 117.252 103.96C115.648 104.509 114.079 105.117 112.532 105.812C112.379 105.88 112.227 105.949 112.07 106.019C111.175 106.425 110.296 106.856 109.425 107.311C108.907 107.546 108.616 107.594 108.059 107.478C107.59 107.169 107.501 106.949 107.338 106.409C107.347 105.91 107.347 105.91 107.604 105.643C108.254 105.21 108.94 104.881 109.645 104.547C109.879 104.435 109.879 104.435 110.118 104.322C112.344 103.275 114.621 102.327 116.95 101.536C117.103 101.484 117.103 101.484 117.258 101.43C117.767 101.265 118.214 101.146 118.75 101.206Z" fill="#F2BB61"/>
<path d="M117.325 109.046C117.722 109.342 117.748 109.445 117.824 109.955C117.752 110.471 117.752 110.471 117.476 110.872C117.078 111.157 116.928 111.235 116.475 111.326C116.362 111.35 116.248 111.373 116.131 111.397C115.597 111.5 115.063 111.603 114.529 111.704C112.129 112.165 109.783 112.715 107.548 113.724C107.035 113.952 106.628 114.111 106.064 114.035C105.734 113.812 105.734 113.812 105.493 113.465C105.411 112.896 105.413 112.594 105.725 112.105C106.378 111.429 107.329 111.2 108.202 110.899C108.352 110.847 108.352 110.847 108.505 110.794C110.135 110.24 111.805 109.857 113.485 109.492C113.636 109.458 113.636 109.458 113.791 109.424C116.342 108.861 116.341 108.861 117.325 109.046Z" fill="#56462F"/>
<path d="M20.7767 101.288C21.4212 101.371 21.801 101.649 22.3191 102.026C22.4186 102.096 22.5182 102.167 22.6208 102.24C24.9095 103.891 27.5197 106.002 28.9474 108.476C29.0081 108.936 29.0081 108.936 28.9474 109.331C28.5506 109.682 28.2447 109.868 27.7268 109.981C27.2374 109.869 26.9993 109.544 26.6667 109.189C26.5928 109.11 26.5189 109.031 26.4428 108.95C26.2814 108.778 26.1205 108.604 25.9599 108.431C25.61 108.053 25.2577 107.677 24.9055 107.301C24.7163 107.099 24.5283 106.895 24.3409 106.691C23.5002 105.806 22.5356 105.088 21.5613 104.358C21.4635 104.285 21.3658 104.212 21.2651 104.136C21.0584 103.984 20.8498 103.834 20.6397 103.686C20.5362 103.612 20.4328 103.538 20.3262 103.462C20.2325 103.397 20.1388 103.332 20.0422 103.264C19.8246 103.059 19.8246 103.059 19.7177 102.551C19.8648 101.877 20.0474 101.404 20.7767 101.288Z" fill="#DA6552"/>
<path d="M83.9359 45.9877C86.0148 46.2312 88.0762 48.4216 89.3471 49.943C90.0466 50.8394 90.8604 51.9553 91.0252 53.0887C90.954 53.5965 90.954 53.5965 90.5798 54.0241C90.0987 54.3092 90.0987 54.3092 89.6711 54.3716C89.085 54.0907 88.9263 53.7123 88.6198 53.1527C88.2234 52.4486 87.7405 51.8123 87.2478 51.1732C87.1616 51.0613 87.0755 50.9494 86.9867 50.8341C86.1186 49.7833 85.0132 49.0646 83.8552 48.3669C83.0184 47.8544 83.0184 47.8544 82.7755 47.3246C82.8635 46.6204 83.2027 46.0881 83.9359 45.9877Z" fill="#DA6552"/>
<path d="M99.6435 123.643C99.7387 123.643 99.8338 123.643 99.9319 123.643C100.133 123.644 100.335 123.647 100.536 123.651C100.837 123.657 101.137 123.657 101.438 123.656C103.345 123.665 105.464 123.917 107.204 124.726C107.541 125.069 107.541 125.069 107.774 125.439C107.766 125.933 107.718 126.278 107.48 126.713C106.882 127.04 106.279 126.926 105.652 126.745C105.503 126.696 105.353 126.647 105.199 126.597C103.373 126.01 101.618 125.974 99.7174 126.044C99.5694 126.048 99.4213 126.051 99.2688 126.054C99.1361 126.059 99.0034 126.064 98.8667 126.069C98.3922 125.989 98.2297 125.814 97.9386 125.439C97.8584 124.949 97.8584 124.949 97.9386 124.441C98.4621 123.771 98.8039 123.639 99.6435 123.643Z" fill="#56462F"/>
<path d="M108.781 94.4799C109.249 94.6691 109.417 94.7615 109.627 95.2193C109.698 95.638 109.698 95.638 109.627 96.0746C109.16 96.698 108.545 97.0198 107.878 97.4076C106.414 98.2918 104.938 99.4292 103.759 100.678C103.498 100.921 103.498 100.921 103.008 101.001C102.5 100.921 102.5 100.921 102.072 100.627C101.787 100.208 101.787 100.208 101.743 99.7362C102.011 98.981 102.472 98.5874 103.07 98.0702C103.189 97.9671 103.307 97.864 103.429 97.7578C104.403 96.938 105.428 96.2037 106.491 95.5044C106.644 95.403 106.797 95.3015 106.954 95.197C108.176 94.4279 108.176 94.4279 108.781 94.4799Z" fill="#56462F"/>
<path d="M59.1578 55.4496C59.8054 55.661 60.0006 56.0133 60.326 56.5921C60.8281 57.5964 60.8757 58.4512 60.5832 59.5299C60.2497 60.4256 59.6428 60.9598 58.8281 61.4275C57.7952 61.7302 56.9906 61.6681 56.0307 61.1513C55.322 60.6681 54.9185 60.1411 54.7478 59.2982C54.7281 59.0582 54.7165 58.8174 54.7122 58.5766C54.7085 58.4544 54.7048 58.3322 54.701 58.2063C54.7478 57.8728 54.7478 57.8728 54.9321 57.6133C55.1755 57.4452 55.1755 57.4452 55.6833 57.4719C56.1733 57.5877 56.1733 57.5877 56.4583 57.8728C56.5017 58.2341 56.5123 58.5911 56.5241 58.9547C56.5722 59.3172 56.5722 59.3172 56.8648 59.5544C57.2781 59.7858 57.5591 59.7745 58.0263 59.7259C58.3844 59.6065 58.5452 59.5074 58.7747 59.2091C58.9316 58.7123 58.967 58.2415 58.8816 57.7303C58.6942 57.4434 58.5042 57.1582 58.3114 56.875C58.2513 56.3679 58.2189 56.0417 58.4718 55.5921C58.7391 55.4496 58.7391 55.4496 59.1578 55.4496Z" fill="#3E301B"/>
<path d="M57.8838 40.3399C58.5225 40.6373 58.9036 40.965 59.1667 41.6228C59.2734 42.4227 59.227 43.0956 58.7391 43.761C58.1063 44.3529 57.5295 44.6711 56.6544 44.6964C55.7601 44.6401 55.1572 44.4897 54.5429 43.7966C54.2407 43.1679 54.2008 42.7199 54.4093 42.0488C55.0729 40.4934 56.2687 40.0939 57.8838 40.3399Z" fill="#3D321D"/>
<path d="M39.7807 46.6118C40.1193 46.8346 40.1193 46.8346 40.3509 47.182C40.4311 47.672 40.4311 47.672 40.3509 48.1798C40.1164 48.4925 39.9427 48.6617 39.6382 48.8925C39.546 48.9653 39.4537 49.0381 39.3587 49.113C38.6069 49.6724 37.8084 50.1274 36.9833 50.5674C36.8829 50.6211 36.7826 50.6748 36.6792 50.7302C34.7222 51.752 34.7222 51.752 33.7939 51.6009C33.4788 51.3488 33.3888 51.1531 33.3162 50.759C33.2761 50.1941 33.2761 50.1941 33.3663 49.8904C33.8518 49.4163 34.3508 49.1866 34.9788 48.946C36.2992 48.4145 37.5567 47.6625 38.6794 46.7867C39.0581 46.5177 39.3301 46.5461 39.7807 46.6118Z" fill="#F2BB61"/>
<path d="M72.3966 34.4778C73.2102 34.7649 73.5778 35.3962 73.9735 36.1349C74.2215 36.9065 74.2336 37.4804 73.9022 38.2196C73.5519 38.8639 73.0841 39.2968 72.4233 39.6272C71.6893 39.7004 71.0541 39.7155 70.3742 39.4134C69.7734 38.8412 69.3417 38.2766 69.2161 37.4445C69.2873 37.0614 69.2873 37.0614 69.4388 36.7852C69.8837 36.5413 70.2346 36.6633 70.7128 36.7763C71.0491 37.1127 71.0679 37.315 71.1404 37.7741C71.5561 37.7979 71.5561 37.7979 71.9957 37.7741C72.0897 37.68 72.1838 37.586 72.2808 37.489C72.2575 36.7671 72.2575 36.7671 71.8442 36.2061C71.568 35.9211 71.568 35.9211 71.5057 35.4132C71.568 34.9232 71.568 34.9232 71.7284 34.6382C71.9957 34.4956 71.9957 34.4956 72.3966 34.4778Z" fill="#CA4226"/>
<path d="M102.046 104.137C102.454 104.592 102.511 104.876 102.5 105.482C102.069 106.06 101.638 106.163 100.95 106.311C99.9561 106.541 99.1401 106.921 98.2549 107.422C97.7277 107.65 97.3671 107.679 96.7983 107.621C96.3816 107.257 96.2496 107.023 96.1479 106.48C96.2564 105.902 96.5027 105.725 96.9408 105.34C97.9684 104.755 99.0765 104.35 100.219 104.057C100.367 104.018 100.367 104.018 100.518 103.978C101.11 103.84 101.508 103.839 102.046 104.137Z" fill="#DA6552"/>
<path d="M93.3377 114.809C94.7222 115.158 95.7828 116.502 96.5043 117.661C96.8377 118.298 96.9539 118.885 96.7983 119.594C96.5756 119.888 96.5756 119.888 96.2281 120.022C95.7038 120.087 95.3781 120.118 94.9274 119.826C94.6766 119.475 94.5119 119.147 94.3305 118.757C93.8969 117.852 93.2893 117.39 92.4685 116.85C92.0944 116.601 92.0944 116.601 91.9518 116.316C91.8975 115.816 91.8944 115.551 92.1656 115.122C92.5625 114.864 92.863 114.783 93.3377 114.809Z" fill="#DA6552"/>
<path d="M99.7916 110.186C101.013 110.596 102.054 111.291 102.643 112.467C102.697 112.966 102.7 113.232 102.429 113.661C102.024 113.924 101.704 113.998 101.22 113.978C100.756 113.841 100.549 113.527 100.279 113.141C99.9715 112.767 99.6731 112.63 99.1953 112.571C99.0363 112.564 99.0363 112.564 98.874 112.556C98.263 112.496 97.9204 112.383 97.5109 111.897C97.3506 111.407 97.3506 111.407 97.3684 110.899C97.9108 109.955 98.8234 110.025 99.7916 110.186Z" fill="#DA6551"/>
<path d="M70.4276 32.2149C70.8464 32.5891 70.8464 32.5891 71.1404 33.0702C71.1582 33.5156 71.1582 33.5156 70.9978 33.9254C70.4984 34.3826 69.9825 34.6643 69.3675 34.9411C69.2118 35.012 69.0562 35.0829 68.8959 35.156C67.509 35.7387 67.509 35.7387 66.7215 35.636C66.2641 35.3269 66.1635 35.1051 65.9999 34.5758C66.0088 34.068 66.0088 34.068 66.2404 33.6849C66.7693 33.2303 67.4663 33.1066 68.1241 32.9248C68.5109 32.8049 68.7978 32.6799 69.1358 32.4644C69.632 32.1808 69.868 32.0933 70.4276 32.2149Z" fill="#56462F"/>
<path d="M30.3728 114.035C30.8406 114.335 30.925 114.528 31.0498 115.069C30.9113 115.761 30.6026 115.971 30.0921 116.432C29.6933 116.861 29.5466 117.309 29.3538 117.854C29.1952 118.265 29.0343 118.498 28.6622 118.739C28.1933 118.807 27.9118 118.784 27.4773 118.596C27.1945 118.261 27.0785 117.977 27.0436 117.539C27.2192 116.265 28.085 114.949 29.0899 114.178C29.5306 113.957 29.8873 113.993 30.3728 114.035Z" fill="#56462F"/>
<path d="M26.631 92.5912C27.5084 92.7656 28.0239 93.5327 28.5197 94.2215C28.9577 94.9484 29.2417 95.6421 29.0899 96.5022C28.7959 96.8586 28.7959 96.8586 28.3772 97.0724C27.8783 97.108 27.8783 97.108 27.3794 96.9298C27.0804 96.5815 26.879 96.1947 26.6667 95.7895C26.37 95.3167 26.1183 94.9541 25.7045 94.5779C25.3838 94.2215 25.3838 94.2215 25.2947 93.7939C25.4605 92.9979 25.8316 92.6844 26.631 92.5912Z" fill="#DA6552"/>
<path d="M35.932 117.884C36.3507 118.169 36.3507 118.169 36.6447 118.596C36.6527 119.041 36.6134 119.315 36.5022 119.737C36.4629 119.892 36.4235 120.047 36.383 120.207C36.0237 121.499 36.0237 121.499 35.6592 121.859C35.1904 122.109 34.8633 122.011 34.364 121.875C33.9603 121.549 33.9395 121.329 33.874 120.815C33.9097 119.915 34.117 118.681 34.7855 118.047C35.2044 117.812 35.4593 117.807 35.932 117.884Z" fill="#56462F"/>
<path d="M19.9671 116.743C21.2677 117.126 21.2677 117.126 21.5774 117.592C21.7276 118.029 21.672 118.301 21.5351 118.739C21.2321 119.086 21.2321 119.086 20.8223 119.309C20.0375 119.309 19.3334 119.029 18.6842 118.596C18.3524 118.099 18.3274 117.899 18.3991 117.314C18.825 116.666 19.2269 116.648 19.9671 116.743Z" fill="#DA6451"/>
<path d="M88.6733 73.6952C89.0823 74.0148 89.1011 74.1236 89.1989 74.6663C89.2706 75.5712 89.3144 76.4961 89.2435 77.4013C88.9584 77.6864 88.9584 77.6864 88.5397 77.731C88.1031 77.6864 88.1031 77.6864 87.8726 77.5244C87.2573 76.6952 87.3097 75.1235 87.3904 74.1228C87.7694 73.6337 88.0664 73.6193 88.6733 73.6952Z" fill="#3E301B"/>
<path d="M37.7139 72.6617C38.2128 72.6974 38.2128 72.6974 38.4979 72.9825C38.6346 74.1544 38.2824 75.2063 37.7851 76.261C37.3575 76.5461 37.3575 76.5461 36.921 76.5193C36.5023 76.4035 36.5023 76.4035 36.2172 75.9759C36.2565 74.9134 36.4627 72.7511 37.7139 72.6617Z" fill="#CA4226"/>
<path d="M88.5931 82.2033C89.1009 82.2478 89.1009 82.2478 89.3429 82.4218C89.5837 82.7508 89.5837 82.9515 89.5853 83.357C89.5859 83.4887 89.5864 83.6205 89.587 83.7562C89.5854 83.8935 89.5837 84.0307 89.582 84.1721C89.5837 84.3094 89.5853 84.4467 89.587 84.5881C89.5865 84.7198 89.5859 84.8516 89.5853 84.9873C89.5849 85.1078 89.5844 85.2282 89.5839 85.3523C89.5166 85.7372 89.4096 85.8634 89.1009 86.0965C88.6593 86.1758 88.4628 86.1441 88.0836 85.9022C87.665 85.3098 87.7465 84.7182 87.7646 84.0118C87.7648 83.874 87.7649 83.7362 87.7651 83.5942C87.7817 82.277 87.7817 82.277 88.5931 82.2033Z" fill="#3F301B"/>
<path d="M40.9834 81.7756C41.4913 81.8202 41.4913 81.8202 41.7329 81.9942C42.1004 82.4954 41.9857 83.1459 41.9812 83.7445C41.9841 83.8818 41.9869 84.019 41.9899 84.1605C41.9898 84.2922 41.9897 84.424 41.9896 84.5597C41.9899 84.6801 41.9901 84.8006 41.9904 84.9247C41.9189 85.2412 41.9189 85.2412 41.6522 85.4988C41.3487 85.6689 41.3487 85.6689 40.9834 85.651C40.6025 85.5143 40.4561 85.4144 40.2084 85.0987C40.1553 84.7799 40.1553 84.7799 40.1566 84.4121C40.1567 84.2797 40.1568 84.1474 40.1569 84.011C40.1591 83.8731 40.1614 83.7352 40.1638 83.5931C40.1634 83.4546 40.1629 83.3162 40.1624 83.1735C40.1725 81.8494 40.1725 81.8494 40.9834 81.7756Z" fill="#CB4226"/>
<path d="M41.8565 89.2592C42.3465 89.375 42.3465 89.375 42.6315 89.6601C42.6601 90.0316 42.6712 90.3846 42.6672 90.7559C42.6683 90.855 42.6694 90.9542 42.6705 91.0563C42.6647 92.6204 42.6647 92.6204 42.2039 93.0811C41.6292 93.1186 41.4115 93.1231 40.921 92.796C40.8657 92.4826 40.8657 92.4826 40.8642 92.0972C40.8637 91.9586 40.8631 91.82 40.8625 91.6771C40.8642 91.5319 40.8659 91.3866 40.8676 91.237C40.8659 91.0923 40.8643 90.9476 40.8625 90.7985C40.8631 90.6597 40.8637 90.5208 40.8642 90.3778C40.8647 90.2505 40.8652 90.1232 40.8657 89.992C40.921 89.6601 40.921 89.6601 41.1066 89.3997C41.3486 89.2325 41.3486 89.2325 41.8565 89.2592Z" fill="#CB4226"/>
<path d="M92.5219 72.9825C92.9941 73.0092 92.9941 73.0092 93.5197 73.125C94.0289 73.7699 94.1146 74.3792 94.1255 75.183C94.131 75.4252 94.131 75.4252 94.1366 75.6724C94.0858 76.1575 94.01 76.3522 93.6622 76.6886C93.2346 76.751 93.2346 76.751 92.807 76.6886C92.5192 76.4672 92.3972 76.3241 92.2978 75.9728C92.2572 75.6206 92.2176 75.2686 92.1833 74.9157C92.1681 74.7932 92.1528 74.6708 92.1371 74.5446C92.0434 73.643 92.0434 73.643 92.3025 73.1823C92.3749 73.1164 92.4473 73.0504 92.5219 72.9825Z" fill="#3F301B"/>
<path d="M38.5869 64.608C39.068 64.7149 39.068 64.7149 39.2105 64.8575C39.3556 67.4854 39.3556 67.4854 38.8748 68.0964C38.5113 68.3787 38.2298 68.3341 37.7851 68.2785C37.502 68.0624 37.3741 67.9368 37.3057 67.5836C37.3581 65.3874 37.3581 65.3874 37.8346 64.7383C38.0702 64.5724 38.0702 64.5724 38.5869 64.608Z" fill="#CB4226"/>
<path d="M37.4198 93.7315C37.9243 93.8176 38.0503 93.9512 38.3552 94.364C38.4568 94.8168 38.474 95.2644 38.4889 95.7271C38.4967 95.8501 38.5045 95.9732 38.5125 96.0999C38.5523 96.9973 38.5523 96.9973 38.3138 97.3257C38.0702 97.5 38.0702 97.5 37.5623 97.4822C37.0724 97.3575 37.0724 97.3575 36.7873 96.9298C36.7068 96.4823 36.6947 96.0294 36.6714 95.5757C36.6624 95.452 36.6533 95.3283 36.6439 95.2009C36.6374 95.082 36.6308 94.9632 36.6241 94.8407C36.6177 94.7322 36.6113 94.6237 36.6047 94.5119C36.6743 94.0068 36.9343 93.8186 37.4198 93.7315Z" fill="#CB4226"/>
<path d="M93.2435 88.689C93.6622 88.8048 93.6622 88.8048 93.9473 89.2325C93.9876 89.6605 93.9472 90.0868 93.9206 90.5154C93.9139 90.6906 93.9139 90.6906 93.907 90.8695C93.9006 90.9819 93.8943 91.0944 93.8878 91.2103C93.8822 91.3128 93.8767 91.4153 93.8709 91.521C93.7869 91.8733 93.6622 92.0067 93.3772 92.2259C92.9495 92.2882 92.9495 92.2882 92.5219 92.2259C92.1832 91.8951 92.0993 91.698 92.0425 91.2247C92.0449 91.0671 92.0473 90.9094 92.0497 90.747C92.0503 90.5901 92.0508 90.4331 92.0514 90.2715C92.096 89.7831 92.1854 89.3975 92.3794 88.9474C92.807 88.6623 92.807 88.6623 93.2435 88.689Z" fill="#40301B"/>
<path d="M88.6911 90.6668C89.1009 90.8004 89.1009 90.8004 89.386 91.2281C89.4461 91.6537 89.4322 92.0815 89.4305 92.511C89.4328 92.6278 89.4351 92.7447 89.4375 92.8651C89.4376 92.9775 89.4377 93.09 89.4377 93.2059C89.4384 93.3597 89.4384 93.3597 89.439 93.5166C89.3702 93.8762 89.2471 94.0019 88.9583 94.2215C88.2234 94.3134 88.2234 94.3134 87.8664 94.0408C87.5191 93.5917 87.6083 93.067 87.6131 92.5199C87.6102 92.4042 87.6074 92.2885 87.6044 92.1694C87.6049 91.6168 87.6094 91.3208 87.9366 90.8617C88.2456 90.6579 88.2456 90.6579 88.6911 90.6668Z" fill="#40301B"/>
<path d="M91.7557 101.954C92.2368 102.061 92.2368 102.061 92.3793 102.204C92.4969 103.374 92.3291 104.291 91.8092 105.34C91.337 105.438 91.337 105.438 90.8114 105.482C90.563 105.308 90.563 105.308 90.3837 105.055C90.3631 104.783 90.3631 104.783 90.4105 104.476C90.4361 104.307 90.4361 104.307 90.4622 104.136C90.4939 103.956 90.4939 103.956 90.5263 103.772C90.5459 103.645 90.5656 103.517 90.5859 103.386C90.8419 101.891 90.8419 101.891 91.7557 101.954Z" fill="#3E301B"/>
<path d="M92.9495 95.6469C93.2549 95.8829 93.3653 96.0028 93.429 96.3881C93.3891 98.3434 93.3891 98.3434 92.807 98.9254C92.0576 99.0052 92.0576 99.0052 91.7129 98.7456C91.3662 98.2906 91.4897 97.7621 91.5241 97.2149C91.5285 97.0981 91.5329 96.9812 91.5375 96.8608C91.5923 96.0223 91.5923 96.0223 91.9161 95.6291C92.3306 95.4679 92.533 95.4974 92.9495 95.6469Z" fill="#41301B"/>
<path d="M37.6426 87.0943C38.0365 87.4882 37.9688 87.7579 37.9736 88.2956C37.9731 88.4137 37.9727 88.5317 37.9722 88.6534C37.9745 88.7709 37.9768 88.8884 37.9791 89.0095C37.9792 89.1226 37.9793 89.2357 37.9794 89.3522C37.9801 89.5073 37.9801 89.5073 37.9807 89.6656C37.9125 90.025 37.7856 90.1507 37.5 90.3728C37.1526 90.4352 37.1526 90.4352 36.7873 90.3728C36.4489 90.1356 36.2473 89.9496 36.1623 89.5355C36.1403 89.2158 36.1394 88.9025 36.1458 88.5821C36.1436 88.4727 36.1414 88.3633 36.1392 88.2505C36.1447 87.4598 36.1447 87.4598 36.4788 87.0887C36.9144 86.8953 37.1911 86.9667 37.6426 87.0943Z" fill="#C84226"/>
<path d="M93.591 81.2144C94.0899 81.25 94.0899 81.25 94.375 81.5351C94.4119 81.8093 94.4119 81.8093 94.4129 82.1403C94.4133 82.2597 94.4136 82.379 94.414 82.502C94.4129 82.6268 94.4118 82.7517 94.4107 82.8803C94.4118 83.0046 94.4129 83.1289 94.414 83.257C94.4136 83.3765 94.4133 83.4961 94.4129 83.6192C94.4126 83.7286 94.4123 83.838 94.4119 83.9508C94.375 84.2434 94.375 84.2434 94.0899 84.671C93.222 84.7657 93.222 84.7657 92.8479 84.4929C92.6137 84.1743 92.621 84.0106 92.6439 83.6192C92.6504 83.4997 92.657 83.3802 92.6637 83.257C92.6728 83.1327 92.6819 83.0084 92.6912 82.8803C92.6976 82.7555 92.7039 82.6306 92.7104 82.502C92.7872 81.2718 92.7872 81.2718 93.591 81.2144Z" fill="#3D301B"/>
<path d="M88.6732 97.8653C89.1008 97.9276 89.1008 97.9276 89.377 98.1504C89.5955 98.6515 89.4978 98.962 89.3859 99.4956C89.3646 99.6182 89.3433 99.7407 89.3213 99.867C89.1397 100.882 89.1397 100.882 88.8158 101.206C88.3168 101.242 88.3168 101.242 87.8179 101.206C87.5329 100.921 87.5329 100.921 87.495 100.658C87.5085 98.7414 87.5085 98.7414 88.0156 98.1086C88.2456 97.9276 88.2456 97.9276 88.6732 97.8653Z" fill="#3E301B"/>
<path d="M47.0504 93.0811C47.3401 93.3012 47.4621 93.4282 47.5334 93.7883C47.5339 93.8918 47.5343 93.9952 47.5348 94.1018C47.5354 94.2149 47.5359 94.328 47.5365 94.4445C47.5349 94.562 47.5332 94.6795 47.5315 94.8006C47.5331 94.9186 47.5348 95.0367 47.5365 95.1583C47.536 95.2712 47.5354 95.3841 47.5348 95.5005C47.5344 95.6038 47.5339 95.707 47.5334 95.8134C47.478 96.0746 47.478 96.0746 47.0504 96.3596C46.5426 96.3329 46.5426 96.3329 46.0526 96.2171C45.6982 95.6855 45.7202 95.2644 45.723 94.6491C45.7207 94.5459 45.7184 94.4426 45.716 94.3362C45.7153 93.5862 45.7153 93.5862 45.9574 93.227C46.3323 92.997 46.6221 93.0276 47.0504 93.0811Z" fill="#C94226"/>
<path d="M41.3487 74.9781C41.6969 75.3263 41.6798 75.4603 41.714 75.9402C41.7466 76.3669 41.7901 76.7504 41.8832 77.1697C41.9189 77.5439 41.9189 77.5439 41.7674 77.8824C41.4912 78.114 41.4912 78.114 41.0636 78.1764C40.636 78.114 40.636 78.114 40.3865 77.9537C39.8957 77.2175 39.822 76.4088 39.9233 75.5483C40.213 74.8495 40.6487 74.9017 41.3487 74.9781Z" fill="#C94226"/>
<path d="M41.9812 69.0803C42.489 69.1338 42.489 69.1338 42.7313 69.3598C42.9808 69.823 42.9735 70.1779 42.9701 70.7018C42.9712 70.8752 42.9723 71.0487 42.9735 71.2274C42.9139 71.723 42.8468 71.9279 42.489 72.2697C42.0614 72.3321 42.0614 72.3321 41.6338 72.2697C41.3965 72.0871 41.3965 72.0871 41.2061 71.8421C41.1675 71.4231 41.1529 71.0394 41.1616 70.6216C41.1611 70.5103 41.1607 70.3991 41.1602 70.2844C41.1708 69.1687 41.1708 69.1687 41.9812 69.0803Z" fill="#CA4226"/>
<path d="M46.2041 83.994C46.6228 84.1009 46.6228 84.1009 46.9079 84.386C47.0433 85.1579 47.1795 86.0301 47.0504 86.8092C46.79 87.1422 46.691 87.2266 46.2664 87.2903C45.8366 87.2258 45.7477 87.1459 45.4824 86.8092C45.2189 85.9649 45.1028 85.1007 45.3399 84.2434C45.7675 83.9583 45.7675 83.9583 46.2041 83.994Z" fill="#CA4226"/>
<path d="M42.489 58.3004C42.7749 58.8722 42.5636 59.6074 42.3938 60.2014C42.1165 60.9812 42.1165 60.9812 41.7763 61.1513C41.3432 61.1882 41.0357 61.2105 40.6449 61.0088C40.3919 60.5325 40.507 60.0828 40.6359 59.5833C41.0477 58.443 41.1984 58.0423 42.489 58.3004Z" fill="#CA4226"/>
<path d="M37.7228 100.716C38.1336 100.79 38.2571 100.869 38.4979 101.206C38.6432 101.661 38.6683 102.093 38.676 102.569C38.6815 102.772 38.6815 102.772 38.6872 102.98C38.6404 103.344 38.6404 103.344 38.4561 103.603C38.0508 103.884 37.6897 103.824 37.215 103.772C36.8785 103.267 36.8568 102.956 36.8051 102.355C36.7879 102.181 36.7706 102.006 36.7528 101.826C36.7873 101.349 36.7873 101.349 37.0485 101.005C37.3575 100.779 37.3575 100.779 37.7228 100.716Z" fill="#C94226"/>
<path d="M81.5461 87.3794C81.7833 87.5297 81.7833 87.5297 81.9737 87.807C82.0163 88.1777 82.0335 88.5065 82.0272 88.8761C82.0288 88.9726 82.0305 89.069 82.0322 89.1684C82.0298 89.5834 82.0222 89.8747 81.7833 90.2219C81.4053 90.4624 81.1259 90.4363 80.6908 90.3728C80.3306 90.0295 80.2658 89.8241 80.2064 89.3254C80.2081 89.0633 80.2081 89.0633 80.2098 88.7959C80.2087 88.6208 80.2076 88.4457 80.2064 88.2653C80.2632 87.807 80.2632 87.807 80.4536 87.5347C80.8259 87.291 81.1137 87.3253 81.5461 87.3794Z" fill="#3F301B"/>
<path d="M37.3753 80.1186C37.7851 80.2522 37.7851 80.2522 38.0702 80.6798C38.0869 81.1381 38.0869 81.1381 38.0524 81.6687C38.0432 81.8435 38.034 82.0182 38.0245 82.1983C37.9152 82.7367 37.7982 82.9255 37.3575 83.2456C36.912 83.2367 36.912 83.2367 36.5022 83.1031C36.1461 82.5689 36.1938 82.3194 36.2349 81.6865C36.2441 81.5118 36.2533 81.3371 36.2628 81.157C36.4034 80.4646 36.6434 80.1039 37.3753 80.1186Z" fill="#C94226"/>
<path d="M85.6798 77.6864C85.917 77.8367 85.917 77.8367 86.1074 78.114C86.15 78.4847 86.1672 78.8135 86.1609 79.1831C86.1625 79.2796 86.1642 79.376 86.1659 79.4754C86.1634 79.8904 86.1559 80.1817 85.917 80.5289C85.539 80.7694 85.2596 80.7433 84.8245 80.6798C84.4643 80.3365 84.3994 80.1311 84.3401 79.6325C84.3417 79.3703 84.3417 79.3703 84.3434 79.1029C84.3423 78.9278 84.3412 78.7527 84.3401 78.5723C84.3969 78.114 84.3969 78.114 84.5873 77.8417C84.9595 77.598 85.2474 77.6323 85.6798 77.6864Z" fill="#40301B"/>
<path d="M84.4771 97.5178C84.9671 97.6425 84.9671 97.6425 85.2522 98.0702C85.3708 98.879 85.262 99.5084 84.8246 100.208C84.682 100.351 84.682 100.351 84.2722 100.387C83.8267 100.351 83.8267 100.351 83.584 100.197C83.2982 99.7737 83.3763 99.4259 83.4169 98.9254C83.4291 98.749 83.4412 98.5726 83.4537 98.3909C83.5417 97.9276 83.5417 97.9276 83.7315 97.6503C83.9693 97.5 83.9693 97.5 84.4771 97.5178Z" fill="#40301B"/>
<path d="M85.1096 85.3838C85.3513 85.5436 85.3513 85.5436 85.5373 85.8114C85.5629 86.2385 85.5629 86.2385 85.5195 86.729C85.5073 86.8905 85.4952 87.0521 85.4827 87.2185C85.3913 87.6816 85.3003 87.9046 84.9671 88.2347C84.5279 88.2987 84.2503 88.3237 83.8702 88.0793C83.582 87.6574 83.6614 87.3094 83.702 86.8092C83.7141 86.6328 83.7263 86.4564 83.7388 86.2747C83.8267 85.8114 83.8267 85.8114 84.0216 85.5386C84.3906 85.2932 84.6797 85.33 85.1096 85.3838Z" fill="#3F301B"/>
<path d="M43.0592 97.5C43.3443 97.7851 43.3443 97.7851 43.38 98.2483C43.3354 98.9161 43.2566 99.4408 42.7741 99.9232C42.3364 99.9698 42.04 99.9919 41.6516 99.7718C41.3965 99.3325 41.4413 98.9975 41.4913 98.4978C41.6032 98.1348 41.7418 97.8406 41.9189 97.5C42.3333 97.2928 42.6168 97.3986 43.0592 97.5Z" fill="#C74226"/>
<path d="M46.5427 100.868C47.0505 100.921 47.0505 100.921 47.3267 101.126C47.5553 101.677 47.5547 102.186 47.4781 102.774C47.3267 103.139 47.3267 103.139 47.0505 103.344C46.5427 103.407 46.5427 103.407 46.0527 103.344C45.7226 102.849 45.7291 102.637 45.732 102.052C45.7312 101.901 45.7305 101.749 45.7297 101.593C45.7888 100.99 45.9521 100.932 46.5427 100.868Z" fill="#C84226"/>
<path d="M87.3993 105.937C87.818 106.053 87.818 106.053 88.1031 106.338C88.1409 106.657 88.1409 106.657 88.1387 107.033C88.1394 107.156 88.1402 107.279 88.1409 107.406C88.1009 107.783 88.0211 108.014 87.818 108.333C87.4242 108.53 87.1128 108.503 86.6776 108.476C86.3926 108.191 86.3926 108.191 86.3809 107.773C86.3935 107.608 86.4062 107.443 86.4193 107.273C86.4301 107.109 86.441 106.944 86.4521 106.775C86.5351 106.338 86.5351 106.338 86.7289 106.064C86.9627 105.91 86.9627 105.91 87.3993 105.937Z" fill="#3F301B"/>
<path d="M84.397 103.059C84.7266 103.554 84.7086 103.697 84.6553 104.271C84.6445 104.408 84.6336 104.544 84.6225 104.685C84.5307 105.094 84.449 105.239 84.1119 105.482C83.3869 105.573 83.3869 105.573 83.015 105.314C82.7524 104.948 82.8004 104.713 82.8468 104.271C82.8589 104.134 82.8711 103.997 82.8836 103.857C83.0867 103.003 83.5862 102.971 84.397 103.059Z" fill="#3F301B"/>
<path d="M81.1896 94.8986C81.6885 94.9342 81.6885 94.9342 81.9736 95.2193C82.1679 95.7913 82.3429 96.324 82.2587 96.9298C82.0984 97.1882 82.0984 97.1882 81.8311 97.3575C81.0968 97.4492 81.0968 97.4492 80.7175 97.1615C80.4073 96.7371 80.3827 96.4518 80.3789 95.932C80.3769 95.8056 80.3749 95.6792 80.3728 95.5489C80.4302 94.973 80.6369 94.9381 81.1896 94.8986Z" fill="#3F301B"/>
<path d="M84.8424 91.6735C85.2523 91.7983 85.2523 91.7983 85.5373 92.2259C85.6348 92.8411 85.6368 93.3481 85.3057 93.883C84.9672 94.079 84.9672 94.079 84.5217 94.07C84.1119 93.9364 84.1119 93.9364 83.8268 93.5088C83.7789 93.1702 83.7789 93.1702 83.7734 92.7961C83.7693 92.6726 83.7653 92.5491 83.7611 92.4219C83.8268 92.0833 83.8268 92.0833 84.0874 91.8239C84.397 91.6557 84.397 91.6557 84.8424 91.6735Z" fill="#40301B"/>
<path d="M42.489 105.34C42.8152 105.577 42.9061 105.705 42.9734 106.106C42.9723 106.23 42.9712 106.353 42.9701 106.48C42.9712 106.604 42.9723 106.727 42.9734 106.854C42.9061 107.256 42.8148 107.383 42.489 107.621C42.0614 107.683 42.0614 107.683 41.6337 107.621C41.3665 107.416 41.3665 107.416 41.2061 107.05C41.0637 105.955 41.0637 105.955 41.3965 105.518C41.7634 105.243 42.0453 105.284 42.489 105.34Z" fill="#CA4226"/>
<path d="M43.2018 62.8618C43.9994 62.9467 43.9994 62.9467 44.3422 63.2895C44.3909 63.9347 44.3544 64.422 44.0571 65C43.772 65.2851 43.772 65.2851 43.4245 65.3296C43.0593 65.2851 43.0593 65.2851 42.8009 65.1425C42.5312 64.6882 42.5555 64.2243 42.6316 63.7171C42.7965 63.3803 42.9381 63.1256 43.2018 62.8618Z" fill="#CB4226"/>
<path d="M81.5638 80.6976C81.9736 80.8224 81.9736 80.8224 82.2587 81.1075C82.2966 81.4371 82.2966 81.4371 82.2944 81.8202C82.2951 81.9466 82.2958 82.073 82.2966 82.2033C82.2587 82.5329 82.2587 82.5329 81.9736 82.818C81.4836 82.8714 81.4836 82.8714 80.9758 82.818C80.5688 82.4897 80.5508 82.2685 80.4858 81.7489C80.5482 81.25 80.5482 81.25 80.7798 80.8936C81.1184 80.6798 81.1184 80.6798 81.5638 80.6976Z" fill="#40301B"/>
<path d="M84.486 111.478C84.8575 111.625 85.0406 111.699 85.2522 112.039C85.2415 112.545 85.1624 112.821 84.8691 113.233C84.44 113.535 84.1985 113.541 83.6842 113.465C83.408 113.313 83.408 113.313 83.2566 113.037C83.2566 112.429 83.3095 112.139 83.7199 111.683C84.1119 111.469 84.1119 111.469 84.486 111.478Z" fill="#40301B"/>
</g>
<defs>
<clipPath id="clip0_317_163">
<rect width="133.849" height="130" fill="white" transform="translate(5)"/>
</clipPath>
</defs>
</svg>
