<svg width="277" height="213" viewBox="0 0 277 213" fill="none" xmlns="http://www.w3.org/2000/svg">
<ellipse cx="110.753" cy="194.11" rx="110.753" ry="18.0703" fill="#66448E"/>
<g clip-path="url(#clip0_112_193)">
<path d="M109.827 40.9725C110.24 41.2341 110.24 41.2341 110.488 41.6333C110.564 42.287 110.583 42.6088 110.179 43.1414C110.036 43.2664 109.893 43.3915 109.746 43.5203C109.588 43.6622 109.431 43.8041 109.268 43.9502C109.098 44.0988 108.928 44.2475 108.753 44.4006C103.696 48.9969 100.117 54.9213 98.8127 61.679C98.9016 61.5907 98.9905 61.5024 99.0821 61.4114C100.971 59.6432 104.011 57.4226 106.667 57.2312C107.183 57.2734 107.183 57.2734 107.596 57.6313C107.943 58.3636 107.879 58.7097 107.624 59.4762C107.075 59.8312 106.606 60.078 106.013 60.3298C105.689 60.4796 105.366 60.6308 105.043 60.7833C104.883 60.8588 104.723 60.9343 104.557 61.012C102.568 61.9957 100.81 63.4133 99.2533 64.9833C98.953 65.2857 98.953 65.2857 98.6467 65.5942C98.0537 66.446 97.9992 67.0666 98.0417 68.0672C98.046 68.2382 98.0502 68.4092 98.0545 68.5853C98.2773 74.6708 99.9125 83.0264 104.54 87.4521C104.639 87.3803 104.739 87.3086 104.841 87.2346C104.982 87.1329 105.123 87.0311 105.268 86.9263C105.427 86.8118 105.585 86.6974 105.748 86.5794C106.104 86.3224 106.46 86.0655 106.816 85.8087C107.72 85.1572 108.621 84.5041 109.52 83.8458C117.633 77.9097 117.633 77.9097 121.061 78.2002C121.02 77.9867 120.979 77.7731 120.937 77.5531C120.906 77.3305 120.874 77.1079 120.841 76.8785C120.914 76.8058 120.986 76.7331 121.061 76.6582C121.126 76.3379 121.184 76.0164 121.24 75.6945C121.381 75.0469 121.453 74.7327 121.887 74.2213C122.552 73.9445 122.991 73.9108 123.705 74.0148C124.228 74.3177 124.228 74.3177 124.586 74.896C124.751 76.217 124.559 77.5521 124.365 78.861C124.61 78.8667 124.854 78.8724 125.106 78.8783C125.428 78.8907 125.75 78.9033 126.073 78.9161C126.233 78.9192 126.394 78.9224 126.56 78.9256C127.327 78.9605 127.809 79.0226 128.438 79.4763C128.987 80.2774 128.877 80.7684 128.771 81.7247C128.408 82.2339 128.193 82.3669 127.579 82.506C127.387 82.5208 127.194 82.5356 126.995 82.5508C126.802 82.5678 126.608 82.5849 126.409 82.6024C125.907 82.6058 125.907 82.6058 125.467 82.3856C125.438 82.7412 125.438 82.7412 125.409 83.1041C124.929 88.353 122.2 92.2964 119.134 96.4182C117.874 98.1234 116.845 99.8217 115.995 101.77C115.915 101.952 115.836 102.134 115.754 102.322C114.693 105.225 115.255 108.426 116.475 111.165C117.486 113.157 118.872 114.946 120.18 116.75C120.368 117.009 120.555 117.269 120.743 117.528C121.141 118.078 121.541 118.626 121.942 119.173C125.05 118.723 129.234 114.885 131.182 112.475C131.404 112.171 131.62 111.863 131.828 111.551C131.91 111.449 131.991 111.347 132.075 111.243C132.221 111.243 132.366 111.243 132.516 111.243C132.574 111.117 132.633 110.992 132.693 110.862C132.971 110.334 133.292 109.879 133.645 109.398C136.628 105.171 139.014 100.133 139.503 94.9391C139.565 94.5011 139.565 94.5011 139.785 94.0605C139.795 93.7624 139.794 93.4638 139.785 93.1656C139.785 92.2983 139.785 92.2983 140.006 92.078C140.087 91.5651 140.16 91.0511 140.226 90.536C140.066 90.5107 139.906 90.4855 139.741 90.4594C139.107 90.3116 138.643 90.0982 138.078 89.7788C137.907 89.6837 137.735 89.5885 137.558 89.4905C137.142 89.2143 137.142 89.2143 136.922 88.7738C136.803 87.8856 136.854 87.5486 137.376 86.805C138.023 86.3506 138.023 86.3506 138.766 86.3506C139.599 86.5804 140.326 86.8653 141.107 87.2318C141.07 87.1142 141.033 86.9967 140.995 86.8755C140.637 85.5661 140.553 84.3197 141.107 83.0464C141.731 82.6136 141.99 82.6059 142.773 82.6334C143.53 82.8261 143.53 82.8261 143.943 83.1703C144.296 83.9349 144.341 84.631 144.411 85.4695C144.489 85.3449 144.566 85.2202 144.646 85.0918C145.217 84.2442 145.531 83.7781 146.518 83.4319C147.275 83.487 147.275 83.487 147.922 83.8036C148.437 84.443 148.521 84.8638 148.474 85.6812C148.315 86.4147 147.961 86.8698 147.495 87.4521C147.856 87.5338 147.856 87.5338 148.225 87.6173C149.037 87.8926 149.037 87.8926 149.478 88.2644C149.814 89.0425 149.722 89.5124 149.478 90.3157C148.662 91.0177 147.847 91.3132 146.834 91.6374C146.82 91.7667 146.806 91.8959 146.791 92.0291C146.105 98.0966 144.688 103.652 141.768 109.04C141.643 109.27 141.519 109.5 141.391 109.738C139.932 112.331 138.208 114.658 136.16 116.812C135.764 117.236 135.391 117.656 135.024 118.104C134.331 118.932 133.565 119.587 132.736 120.274C132.622 120.37 132.508 120.466 132.39 120.565C130.822 121.879 129.226 123.099 127.491 124.184C127.339 124.279 127.188 124.374 127.032 124.471C125.968 125.12 125.968 125.12 125.467 125.12C125.647 125.478 125.647 125.478 125.831 125.842C130.124 134.524 132.15 143.97 132.089 153.633C132.088 153.947 132.087 154.261 132.086 154.575C132.084 155.33 132.08 156.086 132.075 156.841C132.253 156.662 132.431 156.483 132.614 156.299C133.28 155.629 133.947 154.96 134.614 154.29C134.901 154.002 135.188 153.713 135.475 153.425C138.457 150.423 138.457 150.423 140.006 149.131C140.252 148.919 140.498 148.707 140.744 148.495C140.984 148.289 141.224 148.084 141.465 147.878C141.733 147.649 142.001 147.419 142.269 147.19C142.405 147.074 142.54 146.958 142.68 146.839C143.083 146.493 143.486 146.146 143.889 145.799C145.44 144.464 147.006 143.151 148.597 141.862C148.874 141.635 149.152 141.408 149.429 141.18C151.258 139.686 153.104 138.223 154.985 136.795C155.23 136.606 155.474 136.416 155.719 136.227C155.956 136.044 156.193 135.862 156.43 135.68C156.744 135.438 156.744 135.438 157.065 135.191C157.578 134.846 157.902 134.664 158.509 134.592C159.229 134.768 159.533 134.929 159.98 135.526C160.324 136.243 160.308 136.58 160.19 137.359C160.137 137.72 160.137 137.72 160.084 138.088C160.041 138.347 159.999 138.607 159.955 138.874C159.913 139.147 159.87 139.42 159.827 139.701C158.554 147.699 156.563 155.437 154.06 163.127C153.871 163.707 153.683 164.288 153.495 164.869C152.674 167.407 151.849 169.945 151.02 172.481C151.253 172.32 151.486 172.16 151.726 171.994C152.883 171.198 154.044 170.407 155.205 169.617C155.43 169.464 155.656 169.311 155.888 169.153C159.412 166.761 162.988 164.478 166.652 162.305C167.247 161.951 167.839 161.593 168.43 161.233C168.739 161.049 169.048 160.865 169.358 160.682C169.488 160.602 169.618 160.522 169.751 160.439C170.752 159.862 171.484 159.83 172.607 159.925C173.158 160.283 173.158 160.283 173.488 160.806C173.561 161.766 173.42 162.473 173.075 163.366C172.982 163.605 172.89 163.844 172.795 164.09C172.692 164.347 172.589 164.603 172.483 164.868C172.376 165.137 172.269 165.407 172.158 165.685C169.395 172.534 165.909 179.188 161.373 185.037C161.585 184.989 161.797 184.941 162.016 184.891C170.342 183.01 170.342 183.01 174.246 182.421C174.42 182.395 174.594 182.368 174.774 182.341C177.178 181.999 177.178 181.999 177.977 182.504C178.475 183.27 178.484 183.94 178.335 184.817C178.017 185.554 177.597 186.203 177.151 186.868C177.031 187.051 176.912 187.235 176.789 187.423C175.814 188.89 174.743 190.186 173.488 191.425C173.302 191.613 173.115 191.801 172.922 191.994C172.746 192.17 172.569 192.346 172.387 192.527C172.26 192.653 172.133 192.779 172.002 192.91C167.82 196.802 161.799 197.858 156.274 197.829C155.797 197.831 155.321 197.833 154.844 197.836C154.106 197.84 153.367 197.841 152.628 197.835C149.612 197.816 147.114 198.027 144.333 199.245C143.53 199.576 143.53 199.576 142.649 199.576C142.576 199.721 142.504 199.867 142.429 200.016C141.866 200.14 141.866 200.14 141.134 200.237C140.231 200.359 139.341 200.502 138.448 200.682C137.213 200.907 136.028 200.958 134.775 200.948C134.555 200.948 134.335 200.948 134.109 200.948C133.399 200.948 132.689 200.943 131.979 200.939C131.487 200.937 130.994 200.935 130.502 200.933C129.044 200.926 127.586 200.913 126.128 200.897C125.809 200.894 125.809 200.894 125.484 200.891C124.356 200.879 123.228 200.863 122.101 200.839C121.77 200.832 121.439 200.826 121.108 200.821C119.124 200.79 117.35 200.707 115.62 199.654C114.053 198.73 111.559 199.114 109.769 199.143C108.593 199.158 108.593 199.158 108.081 199.025C107.555 198.898 107.091 198.894 106.549 198.901C106.346 198.903 106.144 198.905 105.934 198.906C105.724 198.909 105.514 198.912 105.297 198.915C104.879 198.921 104.461 198.925 104.044 198.929C103.859 198.931 103.674 198.934 103.484 198.936C102.998 198.915 102.998 198.915 102.337 198.695C101.698 198.594 101.053 198.53 100.41 198.461C100.237 198.441 100.063 198.421 99.8849 198.4C98.3604 198.229 98.3604 198.229 96.8302 198.254C96.6848 198.472 96.5394 198.69 96.3896 198.915C94.0591 199.692 90.7086 199.665 88.4595 198.695C88.3141 198.622 88.1687 198.549 88.0189 198.474C87.5945 198.686 87.5945 198.686 87.1515 198.998C86.3341 199.545 85.5894 199.807 84.6321 200.016C84.4668 200.053 84.3015 200.089 84.1313 200.126C83.9603 200.163 83.7894 200.199 83.6132 200.237C83.4497 200.275 83.2861 200.313 83.1176 200.353C82.2859 200.496 81.4535 200.539 80.6119 200.581C80.4311 200.59 80.2502 200.6 80.0639 200.609C78.0897 200.702 76.117 200.697 74.1411 200.677C74.1411 200.532 74.1411 200.386 74.1411 200.237C73.7318 200.304 73.7318 200.304 73.3142 200.373C72.0061 200.519 70.811 200.282 69.5289 200.03C69.0772 199.945 68.6255 199.861 68.1737 199.776C67.9764 199.738 67.779 199.7 67.5757 199.66C67.1016 199.563 67.1016 199.563 66.6515 199.576C66.6515 199.43 66.6515 199.285 66.6515 199.135C66.4516 199.122 66.2517 199.108 66.0457 199.094C64.7747 198.915 63.6273 198.335 62.4661 197.814C62.2117 197.7 61.9573 197.586 61.6952 197.469C60.83 196.972 60.3725 196.573 60.0293 195.624C60.043 194.95 60.043 194.95 60.4285 194.372C62.4905 192.642 65.6392 192.615 68.1935 192.306C67.9774 192.202 67.7613 192.098 67.5387 191.991C65.6517 191.07 63.837 190.078 62.0497 188.976C61.5338 188.664 61.0284 188.377 60.4836 188.121C60.4836 187.976 60.4836 187.83 60.4836 187.681C60.2655 187.681 60.0474 187.681 59.8228 187.681C59.451 187.318 59.0839 186.951 58.7213 186.579C58.5033 186.506 58.2852 186.434 58.0605 186.359C57.6889 185.996 57.3215 185.629 56.9591 185.257C56.8137 185.185 56.6683 185.112 56.5185 185.037C56.5185 184.892 56.5185 184.746 56.5185 184.597C56.3731 184.597 56.2277 184.597 56.078 184.597C55.8165 184.293 55.5556 183.988 55.3095 183.672C54.9577 183.241 54.9577 183.241 54.4482 182.748C50.0697 178.357 50.0697 178.357 49.9789 176.102C50.1303 175.345 50.1303 175.345 50.3919 174.918C52.2467 173.831 55.2622 174.875 57.2207 175.372C60.33 176.198 63.3117 177.486 66.2109 178.869C66.0519 178.652 65.8929 178.434 65.7291 178.21C65.5225 177.925 65.316 177.64 65.1095 177.355C64.9519 177.14 64.9519 177.14 64.7912 176.92C64.0081 175.835 64.0081 175.835 64.0081 175.345C63.8627 175.345 63.7173 175.345 63.5676 175.345C63.4494 175.095 63.3313 174.845 63.2096 174.588C62.875 173.916 62.5082 173.302 62.0798 172.687C61.2954 171.523 60.634 170.304 59.9742 169.067C59.85 168.835 59.7257 168.604 59.5977 168.366C59.2311 167.682 58.8659 166.998 58.5011 166.313C58.3999 166.124 58.2987 165.934 58.1944 165.739C57.9289 165.243 57.664 164.745 57.3996 164.248C57.2883 164.039 57.2883 164.039 57.1748 163.825C56.954 163.407 56.7362 162.988 56.5185 162.568C56.4301 162.402 56.3416 162.235 56.2505 162.064C55.5357 160.687 55.0019 159.292 54.5222 157.819C54.4089 157.473 54.4089 157.473 54.2933 157.12C52.0947 150.296 52.0947 150.296 53.1179 148.209C53.6548 147.809 53.6548 147.809 54.3708 147.644C55.5443 147.879 56.1354 148.517 56.9591 149.351C57.1408 149.529 57.3225 149.706 57.5098 149.888C57.819 150.205 58.1276 150.523 58.4339 150.843C59.4267 151.861 60.4763 152.759 61.585 153.649C62.5756 154.472 63.5099 155.352 64.4513 156.23C64.9561 156.701 65.4681 157.161 65.9907 157.612C66.7845 158.299 67.5588 159.007 68.3312 159.718C68.4499 159.827 68.5685 159.937 68.6908 160.049C69.4997 160.796 70.2825 161.565 71.0572 162.348C70.8875 161.94 70.7176 161.531 70.5478 161.123C70.4532 160.895 70.3586 160.668 70.2612 160.434C70.0538 159.939 69.844 159.445 69.6322 158.952C69.2778 158.123 68.9318 157.291 68.5927 156.456C68.5327 156.31 68.4726 156.165 68.4108 156.016C68.1512 155.374 67.9732 154.897 67.9732 154.198C67.8278 154.125 67.6824 154.052 67.5326 153.977C67.376 153.559 67.376 153.559 67.2297 153.014C66.9914 152.168 66.7239 151.345 66.4175 150.522C66.0847 149.625 65.8049 148.731 65.5501 147.809C65.4774 147.664 65.4047 147.519 65.3298 147.369C65.3762 146.534 65.4414 145.984 65.9218 145.29C66.6017 144.831 66.9449 144.816 67.7529 144.946C68.4964 145.386 68.4964 145.386 69.0746 145.827C68.9996 145.717 68.9247 145.607 68.8474 145.494C68.1409 144.447 67.4568 143.388 66.7892 142.316C66.6375 142.073 66.4859 141.831 66.3297 141.58C65.9907 140.981 65.9907 140.981 65.9907 140.54C65.8453 140.467 65.6999 140.395 65.5501 140.32C64.691 138.14 64.3184 135.39 65.261 133.19C65.6188 132.442 66.015 131.72 66.4361 131.006C66.6336 130.659 66.8038 130.297 66.9707 129.934C67.362 129.214 67.8155 128.761 68.4138 128.204C68.5878 128.028 68.7619 127.851 68.9412 127.669C70.0495 126.548 71.1766 125.478 72.3788 124.459C72.5816 124.284 72.7843 124.108 72.9932 123.927C74.3849 122.726 75.8108 121.575 77.2664 120.453C77.43 120.326 77.5937 120.199 77.7624 120.068C77.9153 119.951 78.0682 119.834 78.2258 119.714C78.3621 119.609 78.4985 119.505 78.639 119.397C78.9873 119.173 78.9873 119.173 79.4279 119.173C79.4279 119.027 79.4279 118.882 79.4279 118.732C80.1958 118.281 80.929 117.869 81.7486 117.517C82.8512 116.975 83.7748 116.497 84.2909 115.334C84.6282 114.233 84.8412 113.109 85.0675 111.981C86.0124 107.343 88.7551 103.119 91.7164 99.5065C92.2163 98.9113 92.2163 98.9113 92.6448 98.2459C92.5241 98.2428 92.4035 98.2396 92.2791 98.2364C86.1382 97.867 80.6877 93.59 76.5048 89.4337C76.1236 88.994 76.1236 88.994 76.1236 88.5535C75.9783 88.5535 75.8329 88.5535 75.6831 88.5535C75.5425 88.3418 75.5425 88.3418 75.3991 88.1258C74.9009 87.5264 74.6029 87.5407 73.8382 87.4658C70.336 86.9794 67.6099 85.2348 65.1095 82.8261C64.9817 82.7134 64.854 82.6007 64.7223 82.4845C64.4487 82.1653 64.4487 82.1653 64.3523 81.3943C64.4487 80.6233 64.4487 80.6233 64.8204 80.1827C65.4817 79.8968 65.7485 79.9622 66.4312 80.1827C66.9432 80.6397 66.9432 80.6397 67.4638 81.2153C69.0547 82.8676 70.6607 83.6873 72.8194 84.3681C72.7552 84.2557 72.6911 84.1432 72.6249 84.0274C68.3723 76.4849 66.1282 67.0582 68.3415 58.4703C69.6502 53.9512 71.6169 50.1132 74.7193 46.5484C74.817 46.4316 74.9146 46.3149 75.0151 46.1947C75.5423 45.6088 75.8196 45.3886 76.6124 45.2895C77.2251 45.3781 77.2251 45.3781 77.6381 45.6259C78.0288 46.2771 78.0301 46.6111 77.8859 47.3607C77.5615 47.7475 77.198 48.0718 76.8267 48.4139C72.4768 52.818 70.392 59.3882 70.3825 65.4651C70.3871 65.7423 70.3916 66.0194 70.3963 66.3049C70.5113 66.113 70.6263 65.921 70.7448 65.7233C72.5705 62.7424 74.7332 60.3297 77.6656 58.3748C78.2892 58.2968 78.6279 58.2884 79.1663 58.6226C79.5816 59.2783 79.5896 59.5929 79.4279 60.3573C78.9023 60.9481 78.2878 61.4143 77.6656 61.8993C75.0066 64.111 73.0817 66.6607 71.8281 69.8983C71.7719 70.0404 71.7157 70.1825 71.6577 70.329C71.002 72.1291 71.2567 73.6099 71.8006 75.3778C71.8583 75.5668 71.916 75.7558 71.9754 75.9505C73.326 80.1666 75.4879 83.8533 78.3265 87.2318C78.4667 87.4019 78.607 87.572 78.7515 87.7472C79.811 88.9917 80.9869 89.9954 82.2916 90.9766C82.2552 90.754 82.2189 90.5313 82.1814 90.302C82.0654 89.3671 82.039 88.4344 82.03 87.4934C82.0268 87.2103 82.0237 86.9272 82.0205 86.6355C82.0713 85.9101 82.0713 85.9101 82.5118 85.2492C83.196 84.9903 83.5085 84.9879 84.1932 85.2561C84.7147 85.6898 84.7147 85.6898 84.8394 86.4246C84.8432 86.7212 84.8427 87.0178 84.8386 87.3144C84.8836 89.2775 85.2862 91.0259 86.1758 92.7922C86.4769 93.3997 86.4769 93.3997 86.4769 93.8402C87.1368 94.0639 87.7974 94.2841 88.4595 94.5011C88.6852 94.5752 88.911 94.6493 89.1435 94.7257C90.6581 95.2088 92.1635 95.6374 93.7462 95.8228C93.9547 95.8577 94.1631 95.8926 94.3778 95.9286C95.4502 95.7642 95.9396 95.0725 96.6512 94.2946C96.9423 93.9894 97.2343 93.6851 97.5272 93.3816C97.6701 93.2332 97.813 93.0848 97.9602 92.9319C98.8377 92.0514 99.8159 91.2994 100.795 90.536C101.067 90.3124 101.338 90.0877 101.608 89.8614C101.86 89.6501 101.86 89.6501 102.117 89.4346C101.818 88.814 101.486 88.2326 101.117 87.6508C99.2824 84.711 97.7758 81.7604 96.8164 78.4205C96.573 77.602 96.573 77.602 95.9947 77.0127C95.5279 76.7918 95.5279 76.7918 94.8477 76.6582C94.8477 76.5128 94.8477 76.3674 94.8477 76.2177C94.725 76.1677 94.6023 76.1177 94.4759 76.0662C93.25 75.3704 92.0431 74.0257 91.5434 72.6931C91.4668 72.0646 91.4551 71.7341 91.7912 71.1925C92.4069 70.8025 92.8096 70.8367 93.526 70.9309C94.025 71.4532 94.025 71.4532 94.4622 72.1287C94.9699 72.9895 94.9699 72.9895 95.7288 73.5743C95.6772 73.1816 95.6772 73.1816 95.6247 72.7809C94.8885 66.7171 95.4511 60.3154 98.0417 54.7126C98.5836 53.4387 98.1725 52.3899 97.8086 51.1151C97.4719 49.8052 97.4868 48.6702 97.6425 47.3331C97.6599 47.1449 97.6774 46.9566 97.6954 46.7626C97.9643 44.244 97.9643 44.244 98.8127 43.3956C99.7008 43.3377 100.037 43.3308 100.795 43.8361C100.849 44.5471 100.842 45.1753 100.683 45.872C100.545 46.6502 100.551 47.4134 100.561 48.2005C100.563 48.4294 100.563 48.4294 100.564 48.663C100.567 49.0366 100.571 49.4102 100.575 49.7838C100.693 49.6077 100.81 49.4317 100.931 49.2503C102.705 46.6248 104.643 44.258 107.004 42.129C107.194 41.9574 107.383 41.7859 107.578 41.6092C108.346 40.9514 108.82 40.8903 109.827 40.9725ZM81.3691 125.63C81.2106 125.749 81.0521 125.869 80.8888 125.992C80.4011 126.362 79.9143 126.732 79.4279 127.103C79.2873 127.21 79.1467 127.317 79.0018 127.427C74.0706 130.962 74.0706 130.962 71.36 136.079C71.4669 139.349 74.3232 142.201 76.3439 144.505C76.5996 144.803 76.8549 145.1 77.1098 145.398C77.8032 146.207 78.5036 147.01 79.2076 147.809C79.3608 147.984 79.3608 147.984 79.5172 148.162C80.4553 149.342 80.4553 149.342 81.6307 150.233C81.7838 148.668 81.8996 147.107 81.9689 145.536C81.9783 145.328 81.9878 145.121 81.9976 144.907C82.0173 144.47 82.0367 144.034 82.0558 143.597C82.0848 142.942 82.1152 142.287 82.1457 141.631C82.2418 139.501 82.3183 137.378 82.2827 135.246C82.2781 134.882 82.2837 134.517 82.2916 134.152C82.3642 134.079 82.4369 134.007 82.5118 133.932C82.544 133.531 82.5619 133.13 82.5738 132.729C82.582 132.484 82.5903 132.239 82.5987 131.987C82.6064 131.729 82.6141 131.471 82.622 131.206C82.6371 130.699 82.6532 130.193 82.6702 129.686C82.6768 129.46 82.6835 129.234 82.6904 129.002C82.7321 128.425 82.7321 128.425 82.9524 127.764C83.0024 127.198 83.0441 126.637 83.0763 126.07C83.0906 125.838 83.0906 125.838 83.1051 125.602C83.1284 125.221 83.1507 124.84 83.1727 124.459C82.5942 124.459 81.8397 125.274 81.3691 125.63Z" fill="#E49F24"/>
<path d="M202.786 4.7636C202.936 4.76372 203.086 4.76384 203.241 4.76396C205.742 4.77311 208.098 4.97942 210.496 5.72733C210.724 5.79814 210.724 5.79814 210.957 5.87039C216.976 7.80874 221.912 11.5705 224.946 17.1708C226.791 21.0367 227.093 24.8693 227.017 29.0773C227.169 29.1335 227.32 29.1897 227.477 29.2476C229.693 30.1803 231.741 31.5656 233.626 33.0423C233.739 33.1294 233.852 33.2165 233.969 33.3062C237.105 35.7357 239.907 38.8923 240.62 42.9318C240.84 44.8144 240.734 46.5947 239.583 48.1713C236.704 51.4771 233.023 52.3321 228.779 52.6475C217.579 53.1895 206.193 51.0767 195.517 47.8013C195.136 47.6847 195.136 47.6847 194.747 47.5657C190.831 46.3514 187.043 44.852 183.266 43.2675C182.655 43.0115 182.043 42.7584 181.43 42.5067C179.647 41.763 177.972 40.879 176.299 39.9148C176.14 39.8234 175.981 39.7321 175.817 39.6379C175.676 39.5554 175.534 39.473 175.389 39.388C175.031 39.1776 175.031 39.1776 174.59 39.2103C174.59 39.0649 174.59 38.9195 174.59 38.7697C174.443 38.7177 174.295 38.6658 174.143 38.6122C173.318 38.2554 172.582 37.8031 171.823 37.3241C171.667 37.2263 171.512 37.1285 171.352 37.0277C169.107 35.5976 167.056 33.9879 165.118 32.1612C164.961 32.019 164.805 31.8767 164.644 31.7301C162.608 29.8119 161.16 27.5058 161.07 24.6716C161.098 23.4757 161.348 22.4649 161.814 21.3674C161.959 21.3674 162.104 21.3674 162.254 21.3674C162.304 21.2493 162.354 21.1311 162.406 21.0094C163.712 18.6444 166.144 17.334 168.642 16.5212C171.283 15.8411 173.911 15.5865 176.634 15.6882C176.949 15.698 177.265 15.7078 177.581 15.7175C178.065 15.7325 178.548 15.7506 179.031 15.7775C180.919 15.9493 180.919 15.9493 182.569 15.2257C182.909 14.7162 183.161 14.2199 183.401 13.6575C186.708 8.81981 192.606 6.19333 198.179 5.04067C199.71 4.77499 201.235 4.7615 202.786 4.7636Z" fill="#3B301B"/>
<path d="M159.611 135.033C160.058 135.619 160.267 135.978 160.287 136.721C160.255 136.931 160.223 137.142 160.19 137.359C160.137 137.72 160.137 137.72 160.084 138.088C160.041 138.348 159.999 138.607 159.955 138.874C159.891 139.284 159.891 139.284 159.827 139.701C158.554 147.699 156.563 155.437 154.06 163.127C153.871 163.707 153.683 164.288 153.495 164.869C152.674 167.408 151.849 169.945 151.02 172.481C151.369 172.24 151.369 172.24 151.726 171.994C152.883 171.198 154.044 170.407 155.205 169.617C155.43 169.464 155.655 169.311 155.888 169.153C159.412 166.761 162.988 164.478 166.652 162.305C167.247 161.951 167.839 161.593 168.43 161.233C168.739 161.049 169.048 160.865 169.358 160.682C169.488 160.602 169.617 160.522 169.751 160.439C170.752 159.862 171.484 159.83 172.607 159.925C173.158 160.283 173.158 160.283 173.488 160.806C173.561 161.766 173.42 162.473 173.075 163.366C172.982 163.605 172.89 163.844 172.795 164.09C172.641 164.475 172.641 164.475 172.483 164.868C172.376 165.137 172.269 165.407 172.158 165.685C169.395 172.534 165.909 179.188 161.373 185.037C161.585 184.989 161.797 184.941 162.016 184.891C170.342 183.01 170.342 183.01 174.246 182.421C174.507 182.382 174.507 182.382 174.774 182.341C177.178 181.999 177.178 181.999 177.977 182.504C178.475 183.27 178.484 183.94 178.335 184.817C178.017 185.554 177.597 186.203 177.151 186.868C177.031 187.052 176.912 187.235 176.789 187.423C175.813 188.89 174.743 190.186 173.488 191.425C173.302 191.613 173.115 191.801 172.922 191.994C172.746 192.17 172.569 192.346 172.387 192.527C172.26 192.653 172.133 192.78 172.002 192.91C167.824 196.799 161.794 197.864 156.271 197.835C156.044 197.835 155.817 197.834 155.583 197.834C154.865 197.833 154.147 197.83 153.429 197.827C152.939 197.826 152.449 197.825 151.96 197.824C150.765 197.822 149.571 197.818 148.376 197.814C148.376 197.668 148.376 197.523 148.376 197.373C148.486 197.318 148.595 197.263 148.708 197.206C151.208 195.938 153.577 194.585 155.866 192.967C156.048 192.84 156.048 192.84 156.235 192.71C157.633 191.781 157.633 191.781 158.73 190.544C158.821 189.764 158.821 189.764 158.73 189.002C157.906 188.453 157.335 188.528 156.389 188.589C156.126 188.604 156.126 188.604 155.857 188.62C153.59 188.771 151.336 189.071 149.084 189.361C148.852 189.39 148.852 189.39 148.615 189.421C148.19 189.475 147.765 189.53 147.34 189.586C146.722 189.652 146.133 189.679 145.513 189.663C145.841 188.881 146.284 188.432 146.903 187.86C149.06 185.737 150.806 183.257 152.41 180.7C152.515 180.537 152.619 180.374 152.727 180.205C153.28 179.295 153.615 178.645 153.443 177.548C153.297 177.33 153.152 177.111 153.002 176.887C151.525 176.708 150.507 177.107 149.189 177.74C148.996 177.83 148.804 177.92 148.605 178.013C148.012 178.293 147.423 178.58 146.834 178.869C146.664 178.953 146.494 179.036 146.318 179.123C143.241 180.653 140.309 182.44 137.362 184.203C136.516 184.707 135.668 185.206 134.815 185.698C134.588 185.83 134.36 185.962 134.126 186.097C133.617 186.359 133.617 186.359 133.177 186.359C133.723 184.324 134.501 182.383 135.269 180.425C135.407 180.072 135.545 179.718 135.683 179.365C136.519 177.226 137.38 175.099 138.257 172.977C140.038 169.207 140.038 169.207 140.226 165.212C139.51 164.735 139.294 164.66 138.464 164.771C138.005 165.088 138.005 165.088 137.61 165.542C137.474 165.685 137.338 165.828 137.199 165.976C136.786 166.439 136.378 166.905 135.971 167.372C135.201 168.254 134.407 169.111 133.604 169.962C133.313 170.271 133.022 170.579 132.732 170.888C132.586 171.043 132.44 171.198 132.29 171.358C131.232 172.483 130.178 173.612 129.127 174.742C128.896 174.99 128.665 175.238 128.434 175.486C127.015 177.007 125.665 178.567 124.365 180.191C124.16 180.443 123.954 180.694 123.748 180.946C121.868 183.251 120.16 185.661 118.48 188.113C118.388 188.248 118.295 188.382 118.2 188.52C117.952 188.883 117.705 189.246 117.458 189.609C117.279 189.854 117.279 189.854 117.096 190.104C117.023 190.104 116.951 190.104 116.876 190.104C116.876 186.324 116.876 182.544 116.876 178.649C117.894 178.213 118.911 177.777 119.96 177.327C125.029 174.368 128.636 169.454 130.238 163.818C130.699 162.012 131.05 160.194 131.199 158.333C131.853 156.481 133.861 155.022 135.235 153.653C135.585 153.303 135.935 152.953 136.284 152.602C137.487 151.399 138.705 150.229 140.006 149.131C140.252 148.919 140.498 148.707 140.744 148.495C140.984 148.29 141.224 148.084 141.465 147.878C141.733 147.649 142.001 147.419 142.269 147.19C142.405 147.074 142.54 146.958 142.68 146.839C143.083 146.493 143.486 146.146 143.889 145.799C145.44 144.464 147.006 143.151 148.597 141.862C148.874 141.635 149.152 141.408 149.429 141.18C151.257 139.686 153.103 138.222 154.985 136.795C155.232 136.606 155.479 136.416 155.726 136.227C155.966 136.044 156.205 135.862 156.444 135.68C156.762 135.438 156.762 135.438 157.086 135.191C158.056 134.515 158.553 134.548 159.611 135.033Z" fill="#3B301B"/>
<path d="M212.089 100.12C213.7 101.42 214.796 103.023 215.122 105.075C215.15 105.668 215.143 106.243 215.122 106.837C215.285 106.789 215.448 106.742 215.617 106.692C218.125 106.029 221.058 105.606 223.475 106.779C224.839 107.606 225.659 108.377 226.136 109.921C226.177 110.568 226.177 110.568 226.136 111.022C226.251 110.987 226.367 110.951 226.485 110.915C228.821 110.42 231.568 110.72 233.679 111.857C234.437 112.379 234.976 113.062 235.388 113.886C235.557 115.483 235.205 116.607 234.383 117.989C232.669 119.658 230.554 119.863 228.284 119.971C228.085 119.983 227.886 119.994 227.681 120.006C226.401 120.068 225.202 120.007 223.933 119.834C223.933 119.688 223.933 119.543 223.933 119.393C222.948 119.703 222.435 120.194 221.73 120.935C220.933 121.596 220.933 121.596 220.409 121.596C220.336 121.741 220.263 121.887 220.188 122.036C218.89 122.532 217.643 122.558 216.265 122.56C216.059 122.565 215.853 122.57 215.641 122.576C214.112 122.582 212.978 122.228 211.597 121.596C211.158 121.445 210.718 121.295 210.276 121.155C210.276 121.01 210.276 120.865 210.276 120.715C209.533 120.385 209.129 120.274 208.293 120.274C207.85 120.564 207.409 120.857 206.971 121.155C206.753 121.155 206.535 121.155 206.311 121.155C206.238 121.301 206.165 121.446 206.09 121.596C205.579 121.686 205.064 121.757 204.548 121.816C204.221 121.884 204.221 121.884 203.887 121.954C203.113 122.051 202.45 121.954 201.685 121.816C201.685 121.671 201.685 121.525 201.685 121.376C201.526 121.353 201.367 121.33 201.203 121.307C200.328 121.093 199.691 120.667 199 120.096C198.358 119.743 198.358 119.743 197.589 120.106C197.299 120.254 197.013 120.407 196.728 120.563C194.99 121.491 194.99 121.491 193.975 121.376C193.902 121.521 193.829 121.666 193.754 121.816C193.227 121.748 192.699 121.679 192.171 121.61C192.023 121.591 191.874 121.571 191.722 121.552C190.924 121.447 190.136 121.325 189.349 121.155C189.349 121.01 189.349 120.865 189.349 120.715C189.108 120.656 188.867 120.597 188.619 120.536C187.865 120.293 187.617 120.202 187.146 119.613C186.962 119.443 186.962 119.443 186.774 119.269C186.485 118.953 186.485 118.953 186.485 118.512C186.267 118.439 186.049 118.367 185.824 118.292C184.824 116.844 184.113 115.411 184.099 113.628C184.087 113.495 184.075 113.362 184.062 113.225C183.917 113.152 183.771 113.08 183.621 113.005C183.587 111.092 183.684 109.521 184.613 107.828C184.73 107.613 184.73 107.613 184.849 107.394C185.944 105.479 187.461 104.214 189.569 103.533C191.919 102.965 194.307 103.217 196.384 104.469C196.607 104.596 196.829 104.723 197.059 104.854C197.836 104.595 197.964 104.376 198.435 103.726C201.574 99.5927 207.271 96.8636 212.089 100.12Z" fill="#E9E1C1"/>
<path d="M67.7529 144.946C70.1904 146.278 71.8241 148.513 73.4803 150.673C75.188 152.851 77.0714 154.847 78.9873 156.841C79.0979 156.957 79.2084 157.072 79.3224 157.192C80.3215 158.294 80.3215 158.294 81.5524 159.084C82.1416 159.539 82.163 159.641 82.2847 160.341C82.3275 160.693 82.3662 161.045 82.4017 161.398C82.9406 165.511 84.3512 169.915 87.358 172.922C87.3723 173.429 87.3706 173.936 87.3628 174.443C87.3607 174.602 87.3586 174.761 87.3564 174.925C87.3491 175.453 87.3403 175.981 87.3314 176.509C87.326 176.874 87.3208 177.239 87.3156 177.604C87.3017 178.567 87.2865 179.53 87.2711 180.493C87.2555 181.475 87.2412 182.457 87.2268 183.439C87.1984 185.367 87.1685 187.295 87.1378 189.223C86.7139 188.665 86.3374 188.123 86.008 187.504C85.922 187.345 85.8361 187.186 85.7476 187.022C85.6566 186.853 85.5656 186.684 85.4719 186.51C82.6987 181.449 77.9591 173.179 72.5991 170.499C71.5742 170.431 71.5742 170.431 70.6166 170.719C70.397 175.616 72.2005 180.42 74.7443 184.559C75.0222 185.037 75.0222 185.037 75.0222 185.478C73.6649 185.109 72.4985 184.408 71.2774 183.729C69.4708 182.738 67.6557 181.772 65.8117 180.852C65.6216 180.757 65.4315 180.662 65.2356 180.564C64.2528 180.076 63.2641 179.602 62.27 179.139C61.9781 179.002 61.9781 179.002 61.6803 178.863C60.941 178.568 60.3852 178.505 59.6025 178.649C59.0281 178.984 59.0281 178.984 58.7213 179.53C58.7782 180.559 59.3077 181.209 59.9329 181.981C60.0317 182.106 60.1305 182.231 60.2323 182.359C60.5343 182.74 60.8391 183.118 61.1444 183.495C61.3151 183.709 61.4858 183.923 61.6616 184.143C62.7656 185.512 63.9229 186.824 65.1095 188.121C65.3102 188.345 65.5107 188.568 65.711 188.792C66.8388 190.046 67.9837 191.24 69.2949 192.307C68.634 192.527 68.634 192.527 67.9069 192.225C67.6111 192.076 67.3166 191.924 67.0232 191.77C66.8675 191.69 66.7118 191.61 66.5513 191.528C65.0156 190.732 63.5186 189.874 62.0256 189.002C61.5121 188.708 60.9979 188.414 60.4836 188.121C60.4836 187.976 60.4836 187.83 60.4836 187.681C60.2655 187.681 60.0474 187.681 59.8228 187.681C59.451 187.318 59.0839 186.951 58.7213 186.579C58.5033 186.507 58.2852 186.434 58.0605 186.359C57.6888 185.996 57.3215 185.629 56.9591 185.257C56.8137 185.185 56.6683 185.112 56.5185 185.037C56.5185 184.892 56.5185 184.746 56.5185 184.597C56.3731 184.597 56.2277 184.597 56.078 184.597C55.8165 184.293 55.5556 183.988 55.3095 183.672C54.9577 183.241 54.9577 183.241 54.4482 182.748C50.0697 178.357 50.0697 178.357 49.9789 176.102C50.1303 175.345 50.1303 175.345 50.3919 174.918C52.2467 173.831 55.2622 174.875 57.2207 175.372C60.33 176.198 63.3117 177.486 66.2109 178.869C66.0519 178.652 65.8929 178.434 65.7291 178.21C65.5225 177.925 65.316 177.64 65.1095 177.355C65.0045 177.211 64.8994 177.068 64.7912 176.92C64.0081 175.835 64.0081 175.835 64.0081 175.345C63.8627 175.345 63.7173 175.345 63.5676 175.345C63.4494 175.095 63.3313 174.845 63.2096 174.588C62.875 173.916 62.5082 173.302 62.0798 172.687C61.2954 171.523 60.634 170.304 59.9742 169.067C59.85 168.835 59.7257 168.604 59.5977 168.366C59.2311 167.682 58.8659 166.998 58.5011 166.313C58.3999 166.124 58.2987 165.935 58.1944 165.739C57.9289 165.243 57.664 164.745 57.3996 164.248C57.3254 164.109 57.2512 163.969 57.1748 163.825C56.954 163.407 56.7362 162.988 56.5185 162.568C56.3859 162.319 56.3859 162.319 56.2505 162.064C55.5357 160.687 55.0019 159.292 54.5222 157.819C54.4467 157.588 54.3711 157.358 54.2933 157.12C52.0947 150.296 52.0947 150.296 53.1179 148.209C53.6548 147.809 53.6548 147.809 54.3708 147.644C55.5443 147.879 56.1354 148.517 56.9591 149.351C57.2317 149.617 57.2317 149.617 57.5098 149.888C57.819 150.205 58.1276 150.523 58.4339 150.843C59.4267 151.862 60.4763 152.759 61.585 153.649C62.5756 154.472 63.5099 155.352 64.4513 156.23C64.9561 156.701 65.4681 157.161 65.9907 157.612C66.7845 158.3 67.5588 159.007 68.3312 159.719C68.4499 159.828 68.5685 159.937 68.6908 160.049C69.4997 160.796 70.2825 161.565 71.0572 162.348C70.8875 161.94 70.7176 161.531 70.5477 161.123C70.4532 160.895 70.3586 160.668 70.2612 160.434C70.0538 159.939 69.844 159.445 69.6322 158.952C69.2778 158.123 68.9318 157.291 68.5927 156.456C68.5327 156.31 68.4726 156.165 68.4108 156.016C68.1512 155.374 67.9732 154.897 67.9732 154.198C67.8278 154.125 67.6824 154.052 67.5326 153.977C67.376 153.559 67.376 153.559 67.2297 153.014C66.9914 152.168 66.7239 151.345 66.4175 150.522C66.0847 149.625 65.8049 148.731 65.5501 147.809C65.4411 147.591 65.4411 147.591 65.3298 147.369C65.3762 146.534 65.4414 145.984 65.9218 145.29C66.597 144.834 66.9463 144.859 67.7529 144.946Z" fill="#CE4427"/>
<path d="M138.464 164.551C139.82 164.626 139.82 164.626 140.446 165.115C140.974 166.401 140.306 168.039 139.882 169.301C139.786 169.588 139.786 169.588 139.688 169.881C138.808 172.425 137.75 174.903 136.718 177.389C135.485 180.36 134.308 183.348 133.177 186.359C133.911 185.947 134.646 185.533 135.38 185.12C135.608 184.991 135.836 184.863 136.071 184.73C137.466 183.942 138.853 183.14 140.234 182.325C150.516 176.26 150.516 176.26 153.002 176.666C153.564 177.123 153.644 177.413 153.744 178.123C153.63 179.177 153.155 179.874 152.589 180.755C152.479 180.93 152.369 181.105 152.256 181.285C150.768 183.619 149.071 185.721 147.174 187.735C146.596 188.361 146.053 189.004 145.513 189.663C145.666 189.639 145.82 189.614 145.978 189.589C148.735 189.156 151.487 188.744 154.269 188.507C154.474 188.489 154.679 188.471 154.891 188.453C157.796 188.222 157.796 188.222 158.606 188.575C158.95 189.002 158.95 189.002 159.074 189.732C158.906 190.831 158.341 191.471 157.494 192.15C157.105 192.425 156.709 192.684 156.306 192.94C156.162 193.034 156.017 193.128 155.867 193.225C155.428 193.509 154.986 193.789 154.544 194.069C154.417 194.15 154.289 194.232 154.158 194.315C149.354 197.373 149.354 197.373 148.376 197.373C148.304 197.591 148.231 197.809 148.156 198.034C147.794 198.212 147.794 198.212 147.316 198.35C147.139 198.404 146.962 198.457 146.779 198.512C146.479 198.603 146.479 198.603 146.173 198.695C145.49 198.93 144.807 199.168 144.125 199.406C143.53 199.576 143.53 199.576 142.649 199.576C142.576 199.721 142.504 199.867 142.429 200.016C141.866 200.14 141.866 200.14 141.135 200.237C140.231 200.359 139.341 200.502 138.448 200.682C137.213 200.907 136.028 200.958 134.775 200.948C134.555 200.948 134.335 200.948 134.109 200.948C133.399 200.948 132.689 200.943 131.979 200.939C131.487 200.937 130.994 200.935 130.502 200.933C129.044 200.926 127.586 200.913 126.128 200.897C125.915 200.895 125.703 200.893 125.484 200.891C124.356 200.879 123.228 200.863 122.101 200.839C121.77 200.832 121.439 200.826 121.108 200.821C117.18 200.758 117.18 200.758 115.678 199.603C114.631 198.18 114.684 196.42 114.893 194.73C115.158 193.718 115.541 192.806 115.995 191.866C116.085 191.673 116.176 191.48 116.269 191.281C117.281 189.286 118.65 187.503 119.96 185.698C120.085 185.524 120.21 185.35 120.339 185.17C122.023 182.829 123.765 180.579 125.687 178.429C125.952 178.131 125.952 178.131 126.222 177.827C126.703 177.291 127.186 176.759 127.67 176.226C127.977 175.882 128.285 175.537 128.592 175.193C129.952 173.682 131.347 172.203 132.736 170.719C133.264 170.155 133.792 169.59 134.32 169.025C134.446 168.89 134.573 168.754 134.704 168.614C135.743 167.501 136.773 166.379 137.8 165.255C138.243 164.771 138.243 164.771 138.464 164.551Z" fill="#CE4327"/>
<path d="M202.786 4.76359C202.936 4.76371 203.086 4.76383 203.241 4.76395C205.742 4.77311 208.098 4.97941 210.496 5.72732C210.724 5.79814 210.724 5.79814 210.957 5.87038C216.976 7.80873 221.912 11.5705 224.946 17.1708C226.791 21.0367 227.093 24.8693 227.017 29.0773C225.941 28.7675 224.979 28.2994 223.98 27.8037C213.362 22.5393 201.871 18.904 190.161 17.1407C189.883 17.0988 189.883 17.0988 189.599 17.056C187.025 16.6712 184.448 16.3507 181.859 16.0806C185.012 10.5345 190.04 7.23805 196.104 5.52425C198.341 4.94705 200.475 4.76047 202.786 4.76359Z" fill="#CE4327"/>
<path d="M72.5992 170.278C73.2764 170.696 73.8028 171.258 74.3614 171.82C74.6038 172.055 74.8465 172.29 75.0894 172.524C76.65 174.043 78.0882 175.607 79.4279 177.327C79.6215 177.567 79.8154 177.807 80.0096 178.047C81.4744 179.864 82.8087 181.742 84.0539 183.715C84.1421 183.855 84.2303 183.994 84.3211 184.137C89.453 192.32 89.453 192.32 89.1204 196.272C88.8175 197.029 88.8175 197.029 88.4595 197.593C88.3973 197.738 88.3351 197.883 88.2711 198.032C87.9674 198.565 87.6763 198.757 87.1516 199.066C86.9997 199.158 86.8477 199.25 86.6912 199.344C86.0316 199.696 85.3566 199.858 84.6321 200.016C84.4668 200.053 84.3016 200.089 84.1313 200.126C83.9604 200.163 83.7894 200.199 83.6133 200.237C83.4497 200.275 83.2862 200.313 83.1177 200.353C82.2859 200.496 81.4535 200.539 80.6119 200.581C80.4311 200.59 80.2503 200.6 80.064 200.609C78.0897 200.702 76.117 200.697 74.1411 200.677C74.1411 200.532 74.1411 200.386 74.1411 200.237C73.7318 200.304 73.7318 200.304 73.3142 200.373C72.0061 200.519 70.8111 200.282 69.529 200.03C69.0773 199.945 68.6255 199.861 68.1737 199.776C67.8777 199.719 67.8777 199.719 67.5758 199.66C67.1016 199.563 67.1016 199.563 66.6515 199.576C66.6515 199.43 66.6515 199.285 66.6515 199.135C66.4516 199.122 66.2517 199.108 66.0458 199.094C64.7747 198.915 63.6274 198.335 62.4662 197.814C62.2118 197.7 61.9573 197.586 61.6952 197.469C60.83 196.972 60.3725 196.573 60.0293 195.624C60.0431 194.95 60.0431 194.95 60.4286 194.372C62.6461 192.466 66.3296 192.459 69.0747 192.306C68.9196 192.17 68.7646 192.033 68.6048 191.893C65.8709 189.453 63.4278 186.795 61.2157 183.875C60.9131 183.481 60.6039 183.092 60.2926 182.704C60.1906 182.576 60.0886 182.447 59.9835 182.315C59.7029 181.962 59.4213 181.609 59.1396 181.257C58.7277 180.641 58.5336 180.267 58.5011 179.53C58.9417 178.911 58.9417 178.911 59.6025 178.429C60.8255 178.301 61.6921 178.589 62.7648 179.132C62.9172 179.206 63.0696 179.28 63.2267 179.357C63.7228 179.6 64.2166 179.847 64.7103 180.095C65.0529 180.264 65.3956 180.433 65.7384 180.602C68.872 182.154 71.9579 183.794 75.0223 185.478C74.9201 185.306 74.8179 185.135 74.7126 184.958C73.2209 182.433 72.0861 179.886 71.1949 177.093C71.1396 176.92 71.0844 176.747 71.0275 176.569C70.5698 175.08 70.3631 173.643 70.3413 172.082C70.3356 171.835 70.3299 171.588 70.3241 171.334C70.3479 171.131 70.3718 170.928 70.3963 170.719C71.2429 170.154 71.5934 170.13 72.5992 170.278Z" fill="#E9E1C0"/>
<path d="M188.509 26.7643C188.667 26.7647 188.824 26.7652 188.987 26.7657C198.81 26.8243 211.157 29.8477 218.536 36.7871C219.683 38.0192 220.46 39.1717 220.533 40.8899C220.473 41.9821 220.284 42.8048 219.528 43.6159C217.615 45.1714 215.655 45.2375 213.277 45.2267C212.995 45.2256 212.712 45.2245 212.421 45.2234C202.354 45.1022 189.53 42.0238 182.08 34.8046C180.937 33.3626 180.324 32.2558 180.538 30.3989C180.956 29.1477 181.877 28.2457 182.961 27.5353C184.735 26.7433 186.6 26.7514 188.509 26.7643Z" fill="#E29E23"/>
<path d="M250.904 63.8957C252.181 64.8224 252.679 66.1071 253.01 67.6267C253.017 68.0672 253.018 68.5079 253.01 68.9484C253.267 68.7606 253.267 68.7606 253.528 68.5689C256.322 66.5581 259.003 64.989 262.51 64.9007C262.66 64.8949 262.81 64.8891 262.965 64.8831C264.083 64.8797 264.708 65.1628 265.567 65.8645C266.177 66.8912 266.147 67.9565 265.858 69.0964C265.697 69.6381 265.527 70.1753 265.346 70.7107C265.47 70.663 265.594 70.6153 265.721 70.5661C268.05 69.7946 271.131 69.5488 273.469 70.4216C274.562 70.9708 275.383 71.6002 276.113 72.5968C276.575 74.0093 276.629 75.5775 276.03 76.9612C275.173 78.4068 273.8 79.1428 272.235 79.6226C271.163 79.8787 270.099 79.999 269 80.0649C268.724 80.0818 268.448 80.0988 268.164 80.1162C268.019 80.1248 267.873 80.1334 267.723 80.1423C267.262 80.1695 266.802 80.1975 266.341 80.2258C265.528 80.2755 264.715 80.3245 263.902 80.3733C262.604 80.4512 261.305 80.5297 260.007 80.6091C259.556 80.6365 259.105 80.6633 258.655 80.69C256.934 80.7947 256.934 80.7947 255.219 80.9664C253.82 81.1337 252.42 81.0677 251.014 81.0226C250.862 81.0179 250.711 81.0131 250.554 81.0081C246.513 80.8693 243.262 80.1868 240.234 77.3191C240.06 77.162 240.06 77.162 239.883 77.0016C239.54 76.6214 239.398 76.3137 239.229 75.8322C239.179 75.6925 239.129 75.5528 239.077 75.4089C238.995 75.155 238.995 75.155 238.912 74.896C238.825 74.6595 238.738 74.423 238.648 74.1793C238.433 73.1713 238.576 72.5223 238.857 71.5505C238.898 71.3967 238.938 71.243 238.979 71.0846C239.182 70.3358 239.38 69.6094 239.793 68.9484C239.939 68.8757 240.084 68.803 240.234 68.7281C240.307 68.5101 240.379 68.292 240.454 68.0673C240.83 67.6964 240.83 67.6964 241.294 67.3101C241.768 66.9126 242.22 66.5214 242.651 66.077C244.643 64.147 248.253 62.4104 250.904 63.8957Z" fill="#E9E1C1"/>
<path d="M93.526 177.768C94.6891 178.204 95.8522 178.64 97.0505 179.09C97.6704 179.274 98.2937 179.449 98.9229 179.599C99.1978 179.666 99.4727 179.734 99.7559 179.803C101.27 180.113 102.752 180.227 104.292 180.261C104.56 180.267 104.56 180.267 104.833 180.274C105.396 180.289 105.959 180.302 106.523 180.315C106.907 180.324 107.292 180.334 107.677 180.344C108.614 180.367 109.551 180.389 110.488 180.411C110.49 180.585 110.491 180.758 110.493 180.937C110.51 182.583 110.53 184.229 110.551 185.875C110.562 186.721 110.572 187.567 110.581 188.413C110.589 189.231 110.599 190.05 110.611 190.868C110.615 191.178 110.618 191.488 110.621 191.798C110.468 195.143 110.468 195.143 111.699 198.075C112.215 198.472 112.215 198.472 112.691 198.695C112.691 198.84 112.691 198.985 112.691 199.135C112.011 199.142 111.332 199.146 110.653 199.149C110.461 199.151 110.268 199.153 110.07 199.155C109.884 199.155 109.698 199.156 109.507 199.157C109.336 199.158 109.165 199.159 108.989 199.16C108.505 199.135 108.505 199.135 108.069 199.025C107.547 198.896 107.086 198.894 106.549 198.901C106.346 198.903 106.144 198.905 105.935 198.906C105.619 198.911 105.619 198.911 105.297 198.915C104.879 198.921 104.462 198.925 104.044 198.929C103.767 198.933 103.767 198.933 103.484 198.936C102.998 198.915 102.998 198.915 102.337 198.695C101.915 198.632 101.492 198.578 101.068 198.529C100.699 198.485 100.699 198.485 100.322 198.44C99.9359 198.396 99.9359 198.396 99.5425 198.35C99.2828 198.32 99.0231 198.289 98.7556 198.258C98.1139 198.183 97.4721 198.108 96.8302 198.034C96.7712 197.788 96.7121 197.543 96.6513 197.29C96.465 196.444 96.465 196.444 95.7288 196.051C95.0019 195.979 94.275 195.906 93.526 195.831C93.526 189.87 93.526 183.909 93.526 177.768Z" fill="#3B301B"/>
<path d="M198.353 54.9879C198.989 55.0099 199.246 55.0616 199.812 55.3872C200.711 56.9223 199.949 59.1344 199.578 60.7566C199.519 61.0182 199.459 61.2798 199.398 61.5493C197.866 68.0799 195.113 74.691 189.222 78.4185C187.412 79.4979 185.243 80.4179 183.114 80.3953C181.577 80.3469 181.577 80.3469 180.284 81.0501C180.033 81.427 179.797 81.8134 179.573 82.2066C178.954 83.2809 178.083 84.1338 177.233 85.0289C177.047 85.2268 176.861 85.4248 176.669 85.6287C174.163 88.2183 169.354 92.7842 165.627 93.2895C164.897 93.1794 164.897 93.1794 164.374 92.8214C163.913 92.1478 163.747 91.7999 163.796 90.9766C164.679 89.9776 165.868 89.2939 167.004 88.6223C168.762 87.5504 170.373 86.3549 171.947 85.0289C172.064 84.931 172.181 84.8331 172.301 84.7322C174.059 83.2436 175.453 81.607 176.793 79.7421C176.605 79.7206 176.417 79.699 176.223 79.6768C175.385 79.5041 174.764 79.2112 174.012 78.8059C173.768 78.6776 173.524 78.5493 173.273 78.417C172.59 77.9683 172.202 77.5367 171.726 76.8785C171.508 76.6604 171.508 76.6604 171.286 76.4379C169.93 74.3184 169.712 72.1611 170.247 69.7253C170.784 67.8285 171.862 66.4436 173.502 65.3377C175.033 64.5389 176.818 64.4632 178.472 64.9239C180.672 65.833 181.811 67.3306 182.75 69.4723C183.636 71.9989 183.223 74.5814 182.52 77.0988C185.21 76.4952 187.49 75.3905 189.569 73.5742C189.699 73.4646 189.83 73.355 189.964 73.2421C191.775 71.5932 193.096 69.2288 193.975 66.9658C194.057 66.7823 194.139 66.5989 194.224 66.4099C195.421 63.6018 195.934 60.5467 196.569 57.5737C196.625 57.3155 196.682 57.0574 196.74 56.7915C196.791 56.5566 196.841 56.3218 196.893 56.0799C197.165 55.1447 197.378 55.0823 198.353 54.9879ZM174.094 69.499C173.438 70.4368 173.345 71.3561 173.489 72.4728C174.23 74.6299 175.679 75.8826 177.674 76.8785C178.157 77.0262 178.157 77.0262 178.555 77.0988C179.538 75.0796 180.331 72.9409 179.643 70.6968C179.226 69.7002 178.618 69.0342 177.674 68.5077C176.124 68.0352 175.183 68.2895 174.094 69.499Z" fill="#E49F24"/>
<path d="M76.6124 45.2896C77.225 45.3782 77.225 45.3782 77.6381 45.626C78.0288 46.2771 78.03 46.6112 77.8859 47.3607C77.5614 47.7476 77.198 48.0718 76.8266 48.4139C72.4768 52.8181 70.392 59.3883 70.3825 65.4652C70.3871 65.7423 70.3916 66.0195 70.3963 66.305C70.5113 66.1131 70.6263 65.9211 70.7448 65.7233C72.5705 62.7424 74.7332 60.3298 77.6656 58.3748C78.2892 58.2969 78.6279 58.2885 79.1663 58.6227C79.5816 59.2784 79.5896 59.593 79.4279 60.3574C78.9023 60.9481 78.2878 61.4144 77.6656 61.8994C75.0066 64.111 73.0817 66.6607 71.8281 69.8984C71.7719 70.0405 71.7156 70.1826 71.6577 70.329C71.002 72.1292 71.2567 73.6099 71.8006 75.3779C71.8583 75.5669 71.916 75.7558 71.9754 75.9505C73.326 80.1667 75.4879 83.8534 78.3265 87.2318C78.4667 87.4019 78.607 87.572 78.7515 87.7473C79.8109 88.9918 80.9869 89.9955 82.2915 90.9766C82.2552 90.754 82.2188 90.5314 82.1814 90.302C82.0654 89.3672 82.039 88.4344 82.03 87.4934C82.0268 87.2103 82.0237 86.9272 82.0205 86.6355C82.0713 85.9101 82.0713 85.9101 82.5118 85.2493C83.196 84.9904 83.5085 84.988 84.1932 85.2562C84.7146 85.6899 84.7146 85.6899 84.8394 86.4247C84.8432 86.7213 84.8427 87.0179 84.8386 87.3144C84.8836 89.2776 85.2862 91.0259 86.1757 92.7922C86.4769 93.3997 86.4769 93.3997 86.4769 93.8403C87.1368 94.064 87.7976 94.2836 88.4594 94.5012C88.6724 94.5727 88.8854 94.6443 89.1048 94.718C90.6188 95.2088 92.1098 95.5605 93.6817 95.7949C94.2955 95.8947 94.7656 95.9841 95.2753 96.3512C95.6439 96.9089 95.5774 97.3777 95.5085 98.0257C94.9678 98.5664 94.8097 98.5374 94.0629 98.5488C87.6621 98.399 81.6641 94.563 77.2526 90.1919C77.1384 90.0789 77.0242 89.966 76.9066 89.8496C76.1236 89.0509 76.1236 89.0509 76.1236 88.5535C75.9782 88.5535 75.8329 88.5535 75.6831 88.5535C75.5894 88.4124 75.4957 88.2713 75.3991 88.1259C74.9009 87.5264 74.6029 87.5407 73.8382 87.4659C70.336 86.9795 67.6099 85.2348 65.1095 82.8262C64.9817 82.7135 64.854 82.6007 64.7223 82.4846C64.4487 82.1653 64.4487 82.1653 64.3523 81.3944C64.4487 80.6234 64.4487 80.6234 64.8204 80.1828C65.4817 79.8968 65.7485 79.9623 66.4312 80.1828C66.9432 80.6397 66.9432 80.6397 67.4638 81.2154C69.0547 82.8677 70.6607 83.6874 72.8194 84.3682C72.7231 84.1995 72.7231 84.1995 72.6249 84.0274C68.3723 76.485 66.1282 67.0583 68.3415 58.4704C69.6502 53.9513 71.6169 50.1133 74.7193 46.5484C74.8169 46.4317 74.9146 46.315 75.0151 46.1947C75.5423 45.6088 75.8196 45.3887 76.6124 45.2896Z" fill="#3B301B"/>
<path d="M109.827 40.9725C110.24 41.2341 110.24 41.2341 110.488 41.6333C110.565 42.287 110.583 42.6088 110.179 43.1414C110.036 43.2664 109.893 43.3915 109.746 43.5203C109.588 43.6622 109.431 43.8041 109.268 43.9502C109.098 44.0988 108.928 44.2475 108.753 44.4006C103.696 48.9969 100.117 54.9213 98.8128 61.679C98.9016 61.5907 98.9905 61.5024 99.0821 61.4114C100.971 59.6432 104.011 57.4226 106.667 57.2312C107.183 57.2734 107.183 57.2734 107.597 57.6313C107.943 58.3636 107.879 58.7097 107.624 59.4762C107.075 59.8312 106.607 60.078 106.013 60.3298C105.689 60.4796 105.366 60.6308 105.043 60.7833C104.803 60.8965 104.803 60.8965 104.557 61.012C102.568 61.9957 100.81 63.4133 99.2533 64.9833C98.953 65.2857 98.953 65.2857 98.6467 65.5942C98.0537 66.446 97.9992 67.0666 98.0418 68.0672C98.046 68.2382 98.0502 68.4092 98.0546 68.5853C98.2921 75.0744 100.132 82.121 104.271 87.2791C104.54 87.6723 104.54 87.6723 104.485 88.3745C104.32 88.994 104.32 88.994 104.1 89.2143C103.393 89.3362 103.014 89.3895 102.337 89.2143C101.654 88.6728 101.247 87.9693 100.795 87.2318C100.712 87.097 100.628 86.9622 100.542 86.8233C98.8332 84.0267 97.5083 81.0274 96.6117 77.8715C96.4411 77.3046 96.4411 77.3046 96.0093 77.0454C95.8713 76.9994 95.7333 76.9534 95.5911 76.906C95.2231 76.7834 95.2231 76.7834 94.8477 76.6582C94.8477 76.5128 94.8477 76.3674 94.8477 76.2177C94.6637 76.1427 94.6637 76.1427 94.476 76.0662C93.25 75.3704 92.0432 74.0257 91.5434 72.6931C91.4668 72.0646 91.4551 71.7341 91.7913 71.1925C92.407 70.8025 92.8096 70.8367 93.526 70.9309C94.0251 71.4532 94.0251 71.4532 94.4622 72.1287C94.97 72.9895 94.97 72.9895 95.7288 73.5743C95.6944 73.3125 95.6601 73.0506 95.6247 72.7809C94.8885 66.7171 95.4511 60.3154 98.0418 54.7126C98.5836 53.4387 98.1725 52.3899 97.8086 51.1151C97.4719 49.8052 97.4868 48.6702 97.6425 47.3331C97.66 47.1449 97.6774 46.9566 97.6954 46.7626C97.9643 44.244 97.9643 44.244 98.8128 43.3956C99.7009 43.3377 100.037 43.3308 100.795 43.8361C100.849 44.5471 100.842 45.1753 100.683 45.872C100.545 46.6502 100.551 47.4134 100.561 48.2005C100.562 48.3531 100.563 48.5057 100.564 48.663C100.567 49.0366 100.571 49.4102 100.575 49.7838C100.693 49.6077 100.81 49.4317 100.931 49.2503C102.705 46.6248 104.643 44.258 107.005 42.129C107.194 41.9574 107.383 41.7859 107.578 41.6092C108.346 40.9514 108.82 40.8903 109.827 40.9725Z" fill="#3B301B"/>
<path d="M124.586 134.152C125.1 134.667 125.184 135.018 125.398 135.708C126.146 137.804 127.308 139.038 129.225 140.143C129.652 140.54 129.652 140.54 129.743 141.219C129.652 141.862 129.652 141.862 129.212 142.302C128.086 142.446 127.548 142.17 126.665 141.49C126.352 141.25 126.352 141.25 126.033 141.006C125.432 140.512 124.887 140.014 124.366 139.439C124.309 139.62 124.252 139.801 124.194 139.988C123.454 142.147 122.413 143.989 120.318 145.07C118.693 145.714 117.181 145.949 115.492 145.35C114.31 144.78 113.317 144.205 112.47 143.183C112.241 142.917 112.012 142.651 111.782 142.385C111.677 142.259 111.572 142.134 111.464 142.005C111.153 141.646 110.827 141.312 110.488 140.981C110.42 141.199 110.42 141.199 110.35 141.421C109.433 143.422 107.729 145.207 105.738 146.157C103.708 146.858 101.489 146.826 99.5562 145.896C97.9884 144.988 96.955 144.032 95.9491 142.523C95.829 142.671 95.7089 142.82 95.5851 142.973C94.254 144.548 93.2711 145.476 91.1863 145.687C89.2682 145.752 87.9316 145.637 86.4933 144.344C85.3602 143.169 84.8418 141.955 84.6321 140.347C84.7147 139.879 84.7147 139.879 84.9763 139.48C85.5185 139.125 85.8405 139.123 86.4769 139.218C87.1253 139.719 87.2537 140.183 87.4269 140.967C87.6515 141.748 87.7747 142.057 88.3493 142.66C89.6643 143.177 90.9266 143.149 92.2731 142.743C93.9522 141.493 94.489 139.848 95.0723 137.918C95.2882 137.236 95.2882 137.236 95.5085 137.016C96.2657 136.974 96.2657 136.974 97.0505 137.016C97.636 137.601 97.5911 137.99 97.6838 138.805C97.961 140.724 98.4489 141.902 99.9624 143.134C101.33 144.075 102.697 144.012 104.32 143.844C105.932 143.352 107.147 142.137 108.065 140.76C108.527 139.856 108.911 138.922 109.288 137.98C109.607 137.236 109.607 137.236 110.047 136.795C110.694 136.713 110.694 136.713 111.369 136.795C112.107 137.59 112.507 138.617 112.959 139.591C113.601 140.923 114.408 142.111 115.756 142.81C117.015 143.23 118.385 143.148 119.602 142.633C121.028 141.799 121.599 140.305 122.028 138.777C122.229 137.792 122.33 136.794 122.403 135.792C122.469 135.081 122.52 134.68 123.022 134.155C123.636 133.858 123.949 133.934 124.586 134.152Z" fill="#CF4526"/>
<path d="M118.638 146.708C119.038 147.196 119.316 147.609 119.616 148.154C119.786 148.439 119.959 148.723 120.132 149.007C120.215 149.144 120.298 149.28 120.384 149.421C121.334 150.91 122.702 151.871 124.366 152.435C125.586 152.662 126.464 152.577 127.505 151.885C127.645 151.785 127.786 151.685 127.931 151.582C128.528 151.212 128.972 151.207 129.652 151.334C130.079 151.596 130.079 151.596 130.313 151.995C130.264 152.685 130.196 153 129.684 153.477C129.515 153.583 129.345 153.689 129.17 153.798C129.004 153.906 128.837 154.014 128.665 154.124C127.059 154.974 125.49 155.07 123.705 154.858C121.744 154.234 120.295 152.985 118.859 151.554C118.729 151.426 118.6 151.297 118.467 151.164C118.378 151.075 118.289 150.986 118.198 150.893C118.105 151.077 118.105 151.077 118.011 151.265C116.638 153.878 114.85 155.476 112.062 156.487C111.263 156.713 110.489 156.738 109.662 156.731C109.489 156.73 109.316 156.728 109.138 156.727C106.505 156.647 104.37 155.434 102.583 153.536C102.271 153.177 101.972 152.807 101.676 152.435C101.554 152.582 101.431 152.728 101.305 152.878C99.7782 154.645 98.336 155.947 95.9474 156.27C93.8433 156.333 92.2086 155.833 90.6107 154.425C89.8553 153.613 89.3681 152.875 89.1204 151.774C88.1516 152.336 87.2764 152.983 86.3884 153.663C85.6988 154.042 85.2702 154.069 84.4945 153.977C84.0539 153.537 84.0539 153.537 83.9567 152.903C84.0539 152.215 84.0539 152.215 84.5297 151.755C84.7407 151.62 84.9517 151.486 85.1691 151.348C86.742 150.286 87.8934 149.192 88.9001 147.589C89.0455 147.444 89.1909 147.298 89.3407 147.149C90.067 147.221 90.359 147.286 90.8827 147.809C90.9633 148.344 91.0269 148.868 91.0754 149.406C91.2101 150.856 91.5336 151.766 92.5752 152.805C93.9101 153.715 95.2558 153.803 96.8303 153.537C98.4542 152.902 99.2291 151.777 99.9142 150.233C99.998 150.048 100.082 149.863 100.168 149.672C100.322 149.328 100.473 148.983 100.62 148.635C100.795 148.25 100.795 148.25 101.016 148.03C101.525 147.947 101.525 147.947 102.117 148.03C102.768 148.641 103.092 149.315 103.439 150.122C104.299 152.109 105.694 152.943 107.61 153.84C109.872 154.301 111.791 153.912 113.737 152.711C115.46 151.472 115.953 150.089 116.502 148.123C116.615 147.721 116.744 147.324 116.876 146.928C117.523 146.605 117.922 146.601 118.638 146.708Z" fill="#CF4426"/>
<path d="M124.145 157.942C124.569 158.386 124.569 158.386 124.971 158.975C126.226 160.643 127.64 161.285 129.652 161.687C129.967 162.841 129.967 162.841 129.57 163.546C128.831 163.986 128.413 163.967 127.577 163.836C126.49 163.518 125.553 162.923 124.586 162.348C124.294 162.198 124 162.05 123.705 161.908C123.627 162.062 123.55 162.216 123.47 162.376C122.302 164.62 121.168 166.099 118.858 167.194C118.64 167.303 118.64 167.303 118.418 167.415C115.142 167.612 113.06 167.167 110.488 164.991C110.004 164.497 109.589 163.999 109.166 163.449C108.806 163.919 108.465 164.391 108.14 164.885C106.533 167.268 104.525 168.811 101.676 169.397C99.1926 169.704 97.093 168.996 95.08 167.549C93.3818 166.219 92.4918 164.706 91.5434 162.789C91.4315 162.879 91.3197 162.969 91.2044 163.062C89.8325 164.136 88.7146 164.74 86.9175 164.551C85.9913 164.173 85.074 163.61 84.4944 162.789C84.5082 162.1 84.5082 162.1 84.7147 161.467C85.3755 161.026 85.3755 161.026 85.9262 161.068C86.4769 161.247 86.4769 161.247 86.766 161.591C87.2892 162.037 87.7807 162.027 88.4491 161.996C89.6812 161.754 90.3077 160.696 90.9927 159.746C91.6691 158.843 91.6691 158.843 92.4934 158.672C93.0854 158.824 93.0854 158.824 93.526 159.264C93.5948 159.661 93.6474 160.061 93.6912 160.462C94.0156 162.543 94.9157 164.245 96.5832 165.556C98.2238 166.668 99.694 167.007 101.676 166.754C103.515 166.288 104.922 165.327 106.013 163.78C106.642 162.721 106.898 161.549 107.185 160.36C107.404 159.705 107.404 159.705 108.065 159.264C108.707 159.263 108.707 159.263 109.386 159.484C109.879 160.07 109.879 160.07 110.336 160.82C111.456 162.563 112.811 164.225 114.893 164.771C116.372 164.945 117.766 165.034 119.079 164.248C120.8 162.88 121.524 160.762 122.318 158.781C122.735 157.877 123.189 157.812 124.145 157.942Z" fill="#CF4526"/>
<path d="M87.7298 113.955C87.9705 114.005 88.2113 114.055 88.4594 114.106C88.6565 114.776 88.7096 115.125 88.4689 115.791C88.1903 116.686 88.1662 117.471 88.1703 118.402C88.1668 118.563 88.1632 118.725 88.1596 118.891C88.1586 119.949 88.2908 120.695 88.9 121.596C89.4393 122.032 89.4393 122.032 90.0703 122.339C90.2738 122.45 90.4774 122.561 90.6872 122.675C91.3967 122.946 91.8915 122.99 92.6448 122.917C94.1105 122.08 94.569 120.732 95.0679 119.173C95.2616 118.355 95.4312 117.54 95.5799 116.713C95.7288 116.089 95.7288 116.089 96.1693 115.648C97.6181 115.775 97.6181 115.775 97.9316 116.089C97.9613 116.446 97.9827 116.804 98.0004 117.163C98.1653 119.113 98.7138 120.872 100.134 122.257C101.119 122.857 102.097 122.839 103.218 122.697C104.648 121.996 105.642 120.816 106.167 119.309C106.388 118.364 106.481 117.396 106.562 116.43C106.624 115.788 106.674 115.307 107.045 114.77C107.404 114.547 107.404 114.547 108.078 114.574C108.725 114.767 108.725 114.767 109.166 115.428C109.27 115.728 109.366 116.031 109.455 116.337C110.043 118.136 110.845 119.664 112.47 120.715C113.637 121.269 114.723 121.328 115.995 121.155C117.021 120.758 117.624 120.258 118.225 119.338C118.638 118.732 118.638 118.732 119.313 118.498C119.96 118.512 119.96 118.512 120.387 118.732C120.783 119.478 120.637 119.914 120.4 120.715C119.463 122.176 118.108 123.187 116.453 123.713C114.59 124.062 112.784 123.899 111.149 122.917C110.144 122.133 109.215 121.338 108.505 120.274C108.423 120.434 108.34 120.593 108.255 120.758C107.129 122.884 106.074 124.507 103.662 125.256C101.917 125.588 100.354 125.343 98.8127 124.459C97.8801 123.732 97.1486 122.984 96.8302 121.816C96.336 122.285 95.9425 122.774 95.5498 123.331C94.7267 124.439 93.8083 125.435 92.4245 125.781C90.7197 126.007 89.4358 125.648 88.0189 124.68C86.7322 123.567 86.0288 122.077 85.6508 120.439C85.3379 115.745 85.3379 115.745 86.5595 114.152C86.9175 113.886 86.9175 113.886 87.7298 113.955Z" fill="#CF4526"/>
<path d="M116.601 125.437C117.317 125.561 117.317 125.561 117.602 125.892C117.786 126.197 117.964 126.506 118.137 126.817C118.862 128.122 119.695 129.297 121.061 129.967C121.878 130.053 122.419 130.041 123.182 129.733C123.825 129.479 124.155 129.535 124.806 129.746C125.247 130.187 125.247 130.187 125.357 130.71C125.247 131.288 125.247 131.288 124.627 131.784C123.255 132.537 121.939 132.577 120.4 132.39C119.185 131.893 118.192 131.164 117.317 130.187C117.317 130.041 117.317 129.896 117.317 129.746C117.171 129.746 117.026 129.746 116.876 129.746C116.817 129.939 116.758 130.132 116.698 130.331C115.986 132.329 114.835 133.879 112.911 134.813C111.077 135.541 108.831 135.566 106.983 134.837C105.533 134.067 104.443 133.006 103.439 131.729C103.293 131.656 103.148 131.583 102.998 131.509C102.948 131.663 102.898 131.817 102.847 131.977C102.079 133.659 100.757 134.618 99.0684 135.277C97.3001 135.776 95.5395 135.696 93.8702 134.923C92.6886 134.26 91.9176 133.454 91.1029 132.39C90.8862 132.166 90.667 131.944 90.4421 131.729C90.3404 131.83 90.2388 131.931 90.134 132.035C89.0507 133.054 87.9503 133.825 86.477 134.152C85.8876 134.104 85.8876 134.104 85.3756 133.932C84.935 133.271 84.935 133.271 84.9402 132.718C85.1553 132.169 85.1553 132.169 85.7008 131.835C85.9297 131.741 86.1586 131.647 86.3944 131.55C88.2185 130.706 89.1778 129.585 90.0015 127.764C90.4421 127.323 90.4421 127.323 90.979 127.254C91.6547 127.337 91.7868 127.463 92.2043 127.984C92.3343 128.428 92.3343 128.428 92.4108 128.92C92.6665 130.209 93.1075 131.121 94.0905 132.032C95.3199 132.851 96.7267 132.731 98.1519 132.61C99.3366 132.268 100.135 131.679 100.795 130.627C101.342 129.574 101.539 128.693 101.587 127.525C101.676 127.103 101.676 127.103 102.337 126.662C102.874 126.662 102.874 126.662 103.439 126.883C103.985 127.561 104.354 128.274 104.719 129.058C105.589 130.832 106.871 132.08 108.726 132.775C110.264 132.967 111.373 132.753 112.691 131.949C114.092 130.842 114.55 129.175 115.114 127.543C115.824 125.596 115.824 125.596 116.601 125.437Z" fill="#CF4526"/>
<path d="M125.687 166.533C126.889 166.634 126.889 166.634 127.45 167.194C127.393 168.837 126.904 170.092 125.811 171.325C125.625 171.488 125.439 171.652 125.247 171.82C125.001 172.052 125.001 172.052 124.751 172.288C123.313 173.269 121.681 173.608 119.96 173.362C119.038 173.075 118.179 172.692 117.317 172.261C117.212 172.485 117.212 172.485 117.105 172.713C115.614 175.688 113.342 177.632 110.212 178.718C107.077 179.722 103.847 179.564 100.892 178.085C99.1836 177.093 97.5598 175.776 96.61 174.023C96.451 174.087 96.292 174.15 96.1281 174.216C95.9237 174.298 95.7192 174.379 95.5086 174.464C95.3402 174.539 95.1718 174.615 94.9983 174.693C93.7834 175.127 92.4192 175.127 91.1976 174.711C89.5054 173.84 88.3829 172.536 87.7987 170.719C87.7299 169.879 87.7299 169.879 87.7987 169.177C87.9441 169.031 88.0895 168.886 88.2393 168.736C89.0378 168.819 89.0378 168.819 89.7812 168.957C89.8321 169.103 89.8829 169.249 89.9353 169.4C90.526 171.065 90.526 171.065 91.7638 172.261C92.9522 172.462 93.8824 172.418 94.9579 171.862C95.4929 171.417 95.4929 171.417 95.839 170.994C96.1694 170.719 96.1694 170.719 96.8019 170.631C97.4911 170.719 97.4911 170.719 97.9188 171.202C98.0366 171.415 98.1545 171.628 98.2759 171.848C98.4068 172.07 98.5377 172.292 98.6726 172.521C98.7915 172.726 98.9105 172.931 99.0331 173.142C100.166 174.778 102.041 176.016 103.958 176.571C106.834 177.043 109.473 176.649 111.944 175.08C113.584 173.847 114.61 172.297 115.315 170.396C115.842 169.04 115.842 169.04 116.601 168.626C117.556 168.773 117.979 169.222 118.654 169.89C119.591 170.746 120.388 170.804 121.62 170.773C122.718 170.663 123.31 170.232 124.076 169.466C124.671 168.705 124.93 167.88 125.247 166.974C125.392 166.829 125.537 166.683 125.687 166.533Z" fill="#CF4526"/>
<path d="M186.485 30.8395C186.969 31.3214 186.969 31.3214 187.394 31.9409C191.501 37.2854 200.698 39.3543 206.995 40.2334C209.541 40.466 212.072 40.506 214.543 39.7954C215.137 39.647 215.614 39.5918 216.223 39.6508C216.746 40.1052 216.746 40.1052 217.104 40.7522C217.118 41.5508 217.118 41.5508 216.884 42.2942C213.898 44.4436 209.021 43.8574 205.595 43.3543C197.977 42.1097 189.019 39.5568 184.144 33.2067C183.767 32.4519 183.828 32.0788 184.062 31.2801C184.785 30.4181 185.456 30.589 186.485 30.8395Z" fill="#3E321B"/>
<path d="M131.194 176.006C131.801 176.401 132.191 176.678 132.516 177.327C132.605 178.135 132.588 178.534 132.152 179.231C131.986 179.42 131.82 179.61 131.649 179.806C131.466 180.018 131.284 180.23 131.096 180.448C130.753 180.829 130.406 181.207 130.053 181.579C126.681 185.155 124.125 189.717 122.676 194.4C122.366 195.378 122.122 196.06 121.282 196.712C120.66 197.023 120.209 196.987 119.519 196.932C118.499 196.434 118.499 196.434 118.198 195.831C118.109 194.577 118.344 193.597 118.748 192.43C118.807 192.258 118.866 192.086 118.927 191.908C119.557 190.122 120.378 188.46 121.282 186.799C121.353 186.667 121.424 186.534 121.497 186.397C122.96 183.671 124.707 181.215 126.72 178.869C126.835 178.735 126.95 178.6 127.068 178.462C129.496 175.691 129.496 175.691 131.194 176.006Z" fill="#DA6552"/>
<path d="M223.117 0.0284194C226.835 0.902948 230.182 5.15788 232.125 8.24082C234.284 11.7966 235.654 15.8697 235.828 20.0457C235.84 20.238 235.851 20.4302 235.863 20.6283C235.901 21.7169 235.901 22.476 235.168 23.35C234.531 23.6681 234.111 23.6533 233.405 23.5702C232.808 23.1274 232.377 22.7732 232.199 22.0278C232.154 21.5163 232.14 21.0135 232.139 20.5001C232.131 20.1538 232.123 19.8076 232.115 19.4615C232.109 19.213 232.109 19.213 232.103 18.9595C232.05 17.6947 231.691 16.5257 231.326 15.3234C231.23 15.0025 231.134 14.6815 231.038 14.3605C230.992 14.2067 230.946 14.0528 230.898 13.8943C230.7 13.2295 230.51 12.5626 230.321 11.8953C230.176 11.8953 230.031 11.8953 229.881 11.8953C229.733 11.6113 229.586 11.3266 229.44 11.0417C229.358 10.8832 229.277 10.7248 229.192 10.5615C229 10.133 229 10.133 229 9.69245C228.854 9.69245 228.709 9.69245 228.559 9.69245C228.468 9.49254 228.377 9.29264 228.284 9.08667C227.91 8.39288 227.583 8.02355 227.017 7.48962C226.84 7.26246 226.663 7.03529 226.48 6.80124C225.818 6.01809 225.057 5.40267 224.25 4.7774C224.128 4.68209 224.006 4.58679 223.88 4.4886C223.189 3.96506 222.539 3.60724 221.73 3.30426C221.21 2.60994 221.169 1.94778 221.29 1.10144C221.859 0.291071 222.107 -0.01109 223.117 0.0284194Z" fill="#CD4427"/>
<path d="M151.24 145.386C152.117 145.844 152.303 146.151 152.617 147.094C152.649 147.654 152.622 147.936 152.316 148.41C150.891 149.958 149.394 151.432 147.897 152.91C146.538 154.254 145.209 155.604 143.971 157.061C143.605 157.466 143.238 157.87 142.869 158.273C142.071 159.148 141.283 160.03 140.507 160.925C140.036 161.463 140.036 161.463 139.29 161.55C138.464 161.467 138.464 161.467 137.83 160.944C137.336 160.333 137.164 160.091 137.062 159.321C137.166 158.39 137.59 157.918 138.202 157.254C138.311 157.131 138.42 157.007 138.532 156.88C138.873 156.497 139.218 156.118 139.565 155.74C139.775 155.508 139.986 155.276 140.196 155.043C140.676 154.515 141.161 153.992 141.647 153.469C141.903 153.189 142.156 152.907 142.407 152.623C143.676 151.193 145.001 149.829 146.355 148.481C146.716 148.12 147.076 147.759 147.436 147.398C147.667 147.167 147.897 146.937 148.128 146.707C148.235 146.6 148.342 146.492 148.452 146.381C149.396 145.444 149.888 145.272 151.24 145.386Z" fill="#56462F"/>
<path d="M141.327 184.156C141.922 184.629 142.16 184.981 142.292 185.733C142.334 186.552 142.289 187.093 141.892 187.818C141.27 188.394 140.62 188.905 139.946 189.417C139.25 189.957 138.571 190.512 137.899 191.081C137.77 191.19 137.641 191.3 137.508 191.412C136.748 192.068 136.031 192.751 135.333 193.473C135.178 193.634 135.023 193.794 134.863 193.959C134.562 194.274 134.263 194.592 133.968 194.913C133.281 195.633 132.884 196.009 131.908 196.289C131.114 196.27 130.704 196.094 130.133 195.533C129.74 194.986 129.592 194.539 129.565 193.866C129.752 192.884 130.5 192.316 131.194 191.646C131.446 191.388 131.697 191.129 131.948 190.87C133.524 189.251 135.135 187.745 136.922 186.359C137.166 186.156 137.41 185.953 137.653 185.75C137.905 185.544 138.157 185.339 138.409 185.134C138.523 185.036 138.637 184.939 138.755 184.838C139.621 184.147 140.235 184.023 141.327 184.156Z" fill="#DA6552"/>
<path d="M60.2634 156.621C61.1429 157.525 61.6807 158.484 62.2321 159.608C63.5059 162.113 65.1017 164.421 66.7151 166.717C67.2648 167.51 67.4822 167.98 67.3124 168.957C66.9011 169.464 66.573 169.767 65.9907 170.058C64.7386 170.181 64.7386 170.181 64.2285 170.058C63.3882 169.332 62.733 168.483 62.0945 167.58C62.0007 167.448 61.9069 167.316 61.8103 167.179C60.6785 165.556 59.6846 163.855 58.7214 162.128C58.6103 161.931 58.6103 161.931 58.497 161.729C57.1282 159.273 57.1282 159.273 57.3997 157.942C58.1989 156.717 58.8003 156.447 60.2634 156.621Z" fill="#DA6552"/>
<path d="M235.828 1.10138C239.188 3.33067 241.17 8.15045 241.996 11.8952C242.13 12.8456 242.167 13.5869 241.666 14.4422C240.846 14.9134 240.292 14.8498 239.353 14.7589C239.208 14.6135 239.062 14.4681 238.912 14.3183C238.912 14.1002 238.912 13.8822 238.912 13.6575C238.767 13.5848 238.622 13.5121 238.472 13.4372C238.449 13.2009 238.426 12.9647 238.403 12.7213C238.187 10.6373 237.145 8.69854 236.122 6.90359C235.828 6.38816 235.828 6.38816 235.611 5.89338C235.4 5.42997 235.4 5.42997 234.727 5.28675C234.245 4.85995 234.245 4.85995 233.846 4.40562C233.846 4.26023 233.846 4.11484 233.846 3.96505C233.7 3.96505 233.555 3.96505 233.405 3.96505C233.109 2.59014 233.109 2.59014 233.474 1.78976C234.148 0.941546 234.785 1.01055 235.828 1.10138Z" fill="#CD4427"/>
<path d="M96.3896 99.7879C97.1469 100.228 97.1469 100.228 97.7113 100.889C97.9122 101.679 97.969 101.916 97.7113 102.652C97.2723 103.225 96.7881 103.727 96.2838 104.244C94.9151 105.749 93.9381 107.565 93.2592 109.475C93.0854 109.921 93.0854 109.921 92.6448 110.582C91.8506 110.846 91.2768 110.874 90.442 110.802C89.7949 110.472 89.7949 110.472 89.3406 109.921C88.9267 107.644 90.3232 105.302 91.5512 103.469C94.4165 99.5157 94.4165 99.5157 96.3896 99.7879Z" fill="#F2BB61"/>
<path d="M72.1586 153.096C73.3509 154.136 74.1337 155.627 74.9397 156.965C75.1856 157.369 75.4317 157.773 75.678 158.177C75.7923 158.366 75.9067 158.555 76.0246 158.75C76.2926 159.182 76.5719 159.598 76.8646 160.013C77.4189 160.894 77.3716 161.323 77.2251 162.348C76.7869 163.005 76.4794 163.362 75.6969 163.555C74.8683 163.614 74.5209 163.578 73.852 163.039C72.9988 162.123 72.3755 161.025 71.718 159.966C71.5187 159.649 71.5187 159.649 71.3153 159.326C71.0551 158.911 70.7958 158.496 70.5377 158.08C70.3086 157.714 70.0763 157.349 69.8398 156.988C69.7403 156.835 69.6409 156.682 69.5384 156.524C69.4519 156.394 69.3653 156.263 69.2762 156.129C68.8754 155.355 68.9201 154.834 69.0746 153.977C69.9804 152.868 70.8019 152.565 72.1586 153.096Z" fill="#DA6552"/>
<path d="M160.944 169.237C161.769 169.545 162.035 169.953 162.474 170.719C162.656 171.588 162.556 171.914 162.075 172.66C161.334 173.464 160.463 174.124 159.61 174.804C158.712 175.54 157.865 176.324 157.015 177.114C156.271 177.775 155.759 177.847 154.759 177.827C154.324 177.768 154.324 177.768 153.787 177.437C153.314 176.68 153.106 176.007 153.223 175.124C153.869 173.86 155.232 172.99 156.321 172.133C156.99 171.581 157.591 170.986 158.206 170.375C159.095 169.561 159.713 169.082 160.944 169.237Z" fill="#56462F"/>
<path d="M123.705 74.0149C124.228 74.3178 124.228 74.3178 124.586 74.896C124.752 76.2171 124.559 77.5522 124.366 78.8611C124.61 78.8668 124.854 78.8725 125.106 78.8783C125.428 78.8907 125.75 78.9033 126.073 78.9162C126.233 78.9193 126.394 78.9224 126.56 78.9256C127.327 78.9605 127.809 79.0227 128.438 79.4763C128.987 80.2775 128.877 80.7684 128.771 81.7248C128.408 82.2339 128.193 82.3669 127.579 82.5061C127.387 82.5209 127.194 82.5356 126.995 82.5508C126.802 82.5679 126.608 82.5849 126.409 82.6025C125.908 82.6059 125.908 82.6059 125.467 82.3856C124.735 82.3036 124.004 82.2275 123.271 82.1684C122.534 82.0914 121.949 81.9484 121.284 81.6215C120.607 80.7696 120.713 79.9845 120.758 78.9299C120.762 78.7361 120.765 78.5423 120.768 78.3427C120.801 76.9188 120.801 76.9188 121.061 76.6583C121.126 76.338 121.185 76.0165 121.24 75.6945C121.381 75.047 121.453 74.7328 121.887 74.2214C122.552 73.9446 122.992 73.9109 123.705 74.0149Z" fill="#CF4427"/>
<path d="M114.893 85.2493C116.262 85.7481 117.315 86.8291 117.977 88.113C117.977 88.7463 117.977 88.7463 117.757 89.2144C117.317 89.6549 117.317 89.6549 116.784 89.7376C116.215 89.6549 116.215 89.6549 115.832 89.2695C115.661 89.0241 115.661 89.0241 115.485 88.7738C114.956 88.1077 114.956 88.1077 114.214 87.7447C113.48 87.7174 112.98 87.8497 112.36 88.2369C111.893 88.9958 111.894 89.4383 112.03 90.3158C112.392 90.7601 112.759 91.2008 113.131 91.6375C113.228 92.3534 113.228 92.3534 113.131 92.9592C112.691 93.3997 112.691 93.3997 111.975 93.4273C110.819 93.0806 110.415 92.436 109.827 91.4172C109.337 90.3253 109.165 89.2766 109.522 88.1104C110.514 85.8066 112.511 84.9721 114.893 85.2493Z" fill="#40331B"/>
<path d="M203.323 7.83375C203.667 8.37069 203.667 8.37069 203.653 9.15544C203.447 9.91094 203.371 10.1072 202.786 10.5735C202.372 10.7119 202.372 10.7119 201.907 10.7921C201.648 10.8401 201.648 10.8401 201.385 10.8891C201.111 10.9373 201.111 10.9373 200.831 10.9865C199.493 11.2405 198.263 11.5406 197.004 12.0604C195.994 12.4748 195.279 12.7636 194.195 12.5561C193.658 12.1981 193.658 12.1981 193.314 11.6749C193.19 11.0141 193.19 11.0141 193.314 10.3532C194.926 8.52669 201.212 6.48087 203.323 7.83375Z" fill="#E9DEBE"/>
<path d="M169.303 185.918C169.793 186.653 169.913 187.052 169.846 187.918C169.655 188.708 169.299 188.979 168.642 189.443C168.046 189.694 167.446 189.906 166.832 190.108C166.274 190.305 165.787 190.536 165.269 190.82C164.522 191.204 163.986 191.356 163.135 191.205C162.541 190.809 162.135 190.526 161.814 189.883C161.692 188.995 161.75 188.652 162.272 187.909C162.894 187.198 163.621 186.791 164.471 186.4C164.605 186.334 164.74 186.269 164.879 186.201C166.325 185.508 167.876 184.967 169.303 185.918Z" fill="#56462F"/>
<path d="M107.5 93.6613C108.136 94.1114 108.546 94.4904 108.946 95.162C108.93 95.8029 108.804 96.1388 108.464 96.6764C108.065 96.9243 108.065 96.9243 107.362 96.8554C107.158 96.8054 106.954 96.7555 106.743 96.704C106.67 96.4132 106.598 96.1224 106.523 95.8228C105.244 95.7159 105.244 95.7159 104.113 96.2359C103.65 96.6656 103.65 96.6656 103.439 97.1445C103.444 97.6107 103.444 97.6107 103.508 98.122C103.533 98.3806 103.533 98.3806 103.56 98.6444C103.64 99.1884 103.64 99.1884 104.1 99.7879C104.058 100.463 104.058 100.463 103.879 101.11C103.218 101.55 103.218 101.55 102.681 101.564C101.844 101.217 101.594 100.592 101.236 99.7879C100.813 98.5196 100.755 96.9796 101.215 95.7144C101.837 94.6584 102.649 93.8687 103.846 93.4918C105.072 93.2536 106.319 93.2534 107.5 93.6613Z" fill="#3F331B"/>
<path d="M147.275 191.425C148.011 191.897 148.132 192.219 148.363 193.064C148.378 193.969 148.245 194.234 147.715 194.95C147.167 195.347 147.167 195.347 146.545 195.68C146.342 195.792 146.138 195.905 145.928 196.021C145.217 196.301 144.728 196.348 143.971 196.272C143.376 195.875 142.97 195.592 142.649 194.95C142.544 194.024 142.524 193.575 143.089 192.816C144.434 191.779 145.552 191.196 147.275 191.425Z" fill="#DA6551"/>
<path d="M104.857 137.387C105.421 137.456 105.421 137.456 105.821 137.718C106.176 138.26 106.178 138.582 106.082 139.218C105.821 139.618 105.821 139.618 105.421 139.879C104.857 139.948 104.857 139.948 104.32 139.879C103.879 139.439 103.879 139.439 103.824 138.668C103.887 137.786 103.955 137.503 104.857 137.387Z" fill="#D04A26"/>
<path d="M122.824 166.754C123.264 167.194 123.264 167.194 123.333 167.965C123.299 168.347 123.299 168.347 123.264 168.736C122.603 169.177 122.603 169.177 122.039 169.122C121.502 168.957 121.502 168.957 121.061 168.516C120.981 167.889 120.973 167.55 121.323 167.015C121.857 166.665 122.197 166.673 122.824 166.754Z" fill="#D04926"/>
<path d="M101.332 117.782C101.897 117.851 101.897 117.851 102.31 118.099C102.558 118.512 102.558 118.512 102.503 119.2C102.337 119.834 102.337 119.834 102.117 120.054C101.36 120.109 101.36 120.109 100.575 120.054C100.134 119.393 100.134 119.393 100.19 118.829C100.409 118.116 100.581 117.879 101.332 117.782Z" fill="#D04926"/>
<path d="M127.573 157.103C128.11 157.282 128.11 157.282 128.551 157.722C128.62 158.383 128.62 158.383 128.551 159.044C127.89 159.484 127.89 159.484 127.188 159.402C126.881 159.334 126.881 159.334 126.568 159.264C126.275 157.852 126.275 157.852 126.596 157.282C127.009 157.061 127.009 157.061 127.573 157.103Z" fill="#D04726"/>
<path d="M116.435 158.383C116.728 159.795 116.728 159.795 116.408 160.366C115.995 160.586 115.995 160.586 115.43 160.545C114.893 160.366 114.893 160.366 114.453 159.925C114.508 159.14 114.508 159.14 114.673 158.383C115.303 158.068 115.76 158.251 116.435 158.383Z" fill="#D04726"/>
<path d="M109.483 126.594C110.047 126.662 110.047 126.662 110.46 126.91C110.83 127.526 110.653 127.97 110.488 128.645C109.075 128.938 109.075 128.938 108.505 128.617C108.285 128.204 108.285 128.204 108.326 127.64C108.562 126.933 108.73 126.69 109.483 126.594Z" fill="#D04826"/>
<path d="M95.9491 147.754C96.6099 147.809 96.6099 147.809 97.0505 148.25C96.9234 149.699 96.9234 149.699 96.6099 150.012C95.9629 150.054 95.9629 150.054 95.2882 150.012C94.8477 149.572 94.8477 149.572 94.7926 148.911C94.8684 148.001 95.0394 147.83 95.9491 147.754Z" fill="#CF4626"/>
<path d="M108.065 147.08C108.283 147.102 108.501 147.125 108.725 147.149C109.199 147.859 109.25 148.089 109.166 148.911C108.725 149.351 108.725 149.351 108.065 149.406C107.404 149.351 107.404 149.351 106.963 148.911C106.908 148.25 106.908 148.25 106.963 147.589C107.404 147.149 107.404 147.149 108.065 147.08Z" fill="#CF4626"/>
<path d="M90.8826 138.337C91.6811 138.42 91.6811 138.42 92.4246 138.558C92.5623 139.301 92.5623 139.301 92.6449 140.1C92.2043 140.54 92.2043 140.54 91.5435 140.595C90.8826 140.54 90.8826 140.54 90.4421 140.1C90.387 139.439 90.387 139.439 90.4421 138.778C90.5874 138.632 90.7328 138.487 90.8826 138.337Z" fill="#CF4626"/>
<path d="M97.6012 127.736C98.3721 127.764 98.3721 127.764 98.5924 127.984C98.6337 128.741 98.6337 128.741 98.5924 129.526C98.1519 129.967 98.1519 129.967 97.6149 130.035C97.0504 129.967 97.0504 129.967 96.6374 129.719C96.3896 129.306 96.3896 129.306 96.4447 128.617C96.6658 127.77 96.6658 127.77 97.6012 127.736Z" fill="#D04726"/>
<path d="M90.8826 117.851C91.6811 117.934 91.6811 117.934 92.4246 118.071C92.5623 118.815 92.5623 118.815 92.6449 119.613C92.2043 120.054 92.2043 120.054 91.5435 120.109C90.8826 120.054 90.8826 120.054 90.4421 119.613C90.387 118.952 90.387 118.952 90.4421 118.292C90.5874 118.146 90.7328 118.001 90.8826 117.851Z" fill="#CF4526"/>
<path d="M103.439 171.159C104.237 171.242 104.237 171.242 104.981 171.38C105.118 171.999 105.118 171.999 105.201 172.701C104.983 173.028 104.983 173.028 104.76 173.362C104.1 173.431 104.1 173.431 103.439 173.362C102.998 172.922 102.998 172.922 102.943 172.261C102.998 171.6 102.998 171.6 103.439 171.159Z" fill="#CF4626"/>
<path d="M118.418 136.079C119.079 136.134 119.079 136.134 119.519 136.575C119.574 137.236 119.574 137.236 119.519 137.897C119.079 138.337 119.079 138.337 118.542 138.406C117.977 138.337 117.977 138.337 117.578 138.076C117.228 137.541 117.236 137.202 117.316 136.575C117.757 136.134 117.757 136.134 118.418 136.079Z" fill="#CF4626"/>
<path d="M91.984 168.296C92.7826 168.378 92.7826 168.378 93.526 168.516C93.8193 169.716 93.8193 169.716 93.4985 170.251C92.9544 170.577 92.6083 170.579 91.984 170.499C91.5435 170.058 91.5435 170.058 91.4884 169.397C91.5435 168.736 91.5435 168.736 91.984 168.296Z" fill="#CF4626"/>
<path d="M101.442 160.545C102.117 160.586 102.117 160.586 102.558 161.026C102.613 161.687 102.613 161.687 102.558 162.348C102.117 162.789 102.117 162.789 101.58 162.858C101.016 162.789 101.016 162.789 100.603 162.541C100.355 162.128 100.355 162.128 100.41 161.439C100.63 160.596 100.63 160.596 101.442 160.545Z" fill="#CF4626"/>
<path d="M125.343 146.859C125.907 146.928 125.907 146.928 126.321 147.176C126.568 147.589 126.568 147.589 126.513 148.278C126.348 148.911 126.348 148.911 126.128 149.131C125.481 149.172 125.481 149.172 124.806 149.131C124.365 148.691 124.365 148.691 124.31 148.03C124.379 147.208 124.51 146.966 125.343 146.859Z" fill="#CF4626"/>
<path d="M121.378 126.153C121.942 126.222 121.942 126.222 122.355 126.469C122.603 126.883 122.603 126.883 122.548 127.571C122.383 128.204 122.383 128.204 122.163 128.424C121.516 128.466 121.516 128.466 120.841 128.424C120.4 127.984 120.4 127.984 120.345 127.323C120.414 126.502 120.545 126.26 121.378 126.153Z" fill="#CF4626"/>
</g>
<defs>
<clipPath id="clip0_112_193">
<rect width="226.23" height="200.898" fill="white" transform="translate(50.1304)"/>
</clipPath>
</defs>
</svg>
