<svg width="361" height="111" viewBox="0 0 361 111" fill="none" xmlns="http://www.w3.org/2000/svg">
<g filter="url(#filter0_d_211_89)">
<rect width="353" height="103" rx="15" fill="#FFF2EF"/>
</g>
<g filter="url(#filter1_d_211_89)">
<rect x="140" y="68" width="179" height="23" rx="10" fill="#FFDBB6"/>
</g>
<path d="M151.684 84.108C151.108 84.108 150.596 83.996 150.148 83.772C149.708 83.54 149.364 83.216 149.116 82.8C148.876 82.376 148.756 81.892 148.756 81.348V78.24C148.756 77.696 148.876 77.22 149.116 76.812C149.364 76.396 149.708 76.076 150.148 75.852C150.596 75.62 151.108 75.504 151.684 75.504C152.26 75.504 152.768 75.616 153.208 75.84C153.648 76.056 153.988 76.364 154.228 76.764C154.476 77.164 154.6 77.628 154.6 78.156V78.168C154.6 78.208 154.588 78.24 154.564 78.264C154.54 78.288 154.512 78.3 154.48 78.3L153.568 78.348C153.488 78.348 153.448 78.312 153.448 78.24V78.204C153.448 77.692 153.288 77.28 152.968 76.968C152.648 76.656 152.22 76.5 151.684 76.5C151.148 76.5 150.716 76.656 150.388 76.968C150.068 77.28 149.908 77.692 149.908 78.204V81.396C149.908 81.908 150.068 82.32 150.388 82.632C150.716 82.944 151.148 83.1 151.684 83.1C152.22 83.1 152.648 82.944 152.968 82.632C153.288 82.32 153.448 81.908 153.448 81.396V81.372C153.448 81.3 153.488 81.264 153.568 81.264L154.48 81.312C154.56 81.312 154.6 81.352 154.6 81.432C154.6 81.96 154.476 82.428 154.228 82.836C153.988 83.236 153.648 83.548 153.208 83.772C152.768 83.996 152.26 84.108 151.684 84.108ZM158.291 77.796C158.779 77.796 159.203 77.884 159.563 78.06C159.931 78.228 160.211 78.468 160.403 78.78C160.603 79.084 160.703 79.432 160.703 79.824V83.88C160.703 83.96 160.663 84 160.583 84H159.671C159.591 84 159.551 83.96 159.551 83.88V83.448C159.551 83.408 159.531 83.4 159.491 83.424C159.283 83.64 159.027 83.808 158.723 83.928C158.427 84.04 158.095 84.096 157.727 84.096C157.135 84.096 156.643 83.948 156.251 83.652C155.867 83.348 155.675 82.892 155.675 82.284C155.675 81.66 155.891 81.172 156.323 80.82C156.763 80.46 157.375 80.28 158.159 80.28H159.503C159.535 80.28 159.551 80.264 159.551 80.232V79.908C159.551 79.556 159.447 79.284 159.239 79.092C159.039 78.892 158.731 78.792 158.315 78.792C157.979 78.792 157.703 78.86 157.487 78.996C157.279 79.124 157.151 79.3 157.103 79.524C157.079 79.604 157.031 79.64 156.959 79.632L155.987 79.5C155.907 79.484 155.871 79.452 155.879 79.404C155.943 78.932 156.195 78.548 156.635 78.252C157.075 77.948 157.627 77.796 158.291 77.796ZM157.979 83.124C158.403 83.124 158.771 83.012 159.083 82.788C159.395 82.564 159.551 82.28 159.551 81.936V81.228C159.551 81.196 159.535 81.18 159.503 81.18H158.375C157.903 81.18 157.527 81.272 157.247 81.456C156.967 81.64 156.827 81.896 156.827 82.224C156.827 82.52 156.931 82.744 157.139 82.896C157.355 83.048 157.635 83.124 157.979 83.124ZM164.934 77.832C165.19 77.832 165.422 77.884 165.63 77.988C165.686 78.012 165.706 78.06 165.69 78.132L165.498 79.032C165.49 79.104 165.442 79.128 165.354 79.104C165.218 79.048 165.058 79.02 164.874 79.02L164.706 79.032C164.33 79.048 164.018 79.18 163.77 79.428C163.53 79.668 163.41 79.984 163.41 80.376V83.88C163.41 83.96 163.37 84 163.29 84H162.378C162.298 84 162.258 83.96 162.258 83.88V78.012C162.258 77.932 162.298 77.892 162.378 77.892H163.29C163.37 77.892 163.41 77.932 163.41 78.012V78.648C163.41 78.672 163.414 78.688 163.422 78.696C163.438 78.696 163.45 78.688 163.458 78.672C163.818 78.112 164.31 77.832 164.934 77.832ZM167.407 76.932C167.183 76.932 166.999 76.86 166.855 76.716C166.711 76.572 166.639 76.388 166.639 76.164C166.639 75.94 166.711 75.756 166.855 75.612C166.999 75.468 167.183 75.396 167.407 75.396C167.631 75.396 167.815 75.468 167.959 75.612C168.103 75.756 168.175 75.94 168.175 76.164C168.175 76.388 168.103 76.572 167.959 76.716C167.815 76.86 167.631 76.932 167.407 76.932ZM166.927 83.988C166.847 83.988 166.807 83.948 166.807 83.868V78.012C166.807 77.932 166.847 77.892 166.927 77.892H167.839C167.919 77.892 167.959 77.932 167.959 78.012V83.868C167.959 83.948 167.919 83.988 167.839 83.988H166.927ZM176.792 79.62C176.752 79.644 176.752 79.668 176.792 79.692C177.64 80.052 178.064 80.72 178.064 81.696C178.064 82.432 177.82 83 177.332 83.4C176.844 83.8 176.208 84 175.424 84H172.436C172.356 84 172.316 83.96 172.316 83.88V75.72C172.316 75.64 172.356 75.6 172.436 75.6H175.328C176.16 75.6 176.804 75.792 177.26 76.176C177.724 76.552 177.956 77.104 177.956 77.832C177.956 78.696 177.568 79.292 176.792 79.62ZM173.516 76.596C173.484 76.596 173.468 76.612 173.468 76.644V79.176C173.468 79.208 173.484 79.224 173.516 79.224H175.328C175.792 79.224 176.156 79.108 176.42 78.876C176.692 78.644 176.828 78.328 176.828 77.928C176.828 77.52 176.692 77.196 176.42 76.956C176.156 76.716 175.792 76.596 175.328 76.596H173.516ZM175.424 82.992C175.88 82.992 176.24 82.868 176.504 82.62C176.776 82.364 176.912 82.02 176.912 81.588C176.912 81.156 176.776 80.816 176.504 80.568C176.232 80.312 175.86 80.184 175.388 80.184H173.516C173.484 80.184 173.468 80.2 173.468 80.232V82.944C173.468 82.976 173.484 82.992 173.516 82.992H175.424ZM181.834 77.796C182.322 77.796 182.746 77.884 183.106 78.06C183.474 78.228 183.754 78.468 183.946 78.78C184.146 79.084 184.246 79.432 184.246 79.824V83.88C184.246 83.96 184.206 84 184.126 84H183.214C183.134 84 183.094 83.96 183.094 83.88V83.448C183.094 83.408 183.074 83.4 183.034 83.424C182.826 83.64 182.57 83.808 182.266 83.928C181.97 84.04 181.638 84.096 181.27 84.096C180.678 84.096 180.186 83.948 179.794 83.652C179.41 83.348 179.218 82.892 179.218 82.284C179.218 81.66 179.434 81.172 179.866 80.82C180.306 80.46 180.918 80.28 181.702 80.28H183.046C183.078 80.28 183.094 80.264 183.094 80.232V79.908C183.094 79.556 182.99 79.284 182.782 79.092C182.582 78.892 182.274 78.792 181.858 78.792C181.522 78.792 181.246 78.86 181.03 78.996C180.822 79.124 180.694 79.3 180.646 79.524C180.622 79.604 180.574 79.64 180.502 79.632L179.53 79.5C179.45 79.484 179.414 79.452 179.422 79.404C179.486 78.932 179.738 78.548 180.178 78.252C180.618 77.948 181.17 77.796 181.834 77.796ZM181.522 83.124C181.946 83.124 182.314 83.012 182.626 82.788C182.938 82.564 183.094 82.28 183.094 81.936V81.228C183.094 81.196 183.078 81.18 183.046 81.18H181.918C181.446 81.18 181.07 81.272 180.79 81.456C180.51 81.64 180.37 81.896 180.37 82.224C180.37 82.52 180.474 82.744 180.682 82.896C180.898 83.048 181.178 83.124 181.522 83.124ZM188.525 77.808C189.181 77.808 189.701 78 190.085 78.384C190.469 78.76 190.661 79.272 190.661 79.92V83.88C190.661 83.96 190.621 84 190.541 84H189.629C189.549 84 189.509 83.96 189.509 83.88V80.148C189.509 79.748 189.393 79.424 189.161 79.176C188.929 78.928 188.621 78.804 188.237 78.804C187.861 78.804 187.553 78.928 187.313 79.176C187.073 79.424 186.953 79.744 186.953 80.136V83.88C186.953 83.96 186.913 84 186.833 84H185.921C185.841 84 185.801 83.96 185.801 83.88V78.012C185.801 77.932 185.841 77.892 185.921 77.892H186.833C186.913 77.892 186.953 77.932 186.953 78.012V78.444C186.953 78.46 186.957 78.472 186.965 78.48C186.981 78.488 186.993 78.484 187.001 78.468C187.345 78.028 187.853 77.808 188.525 77.808ZM195.317 78.72C195.317 78.8 195.277 78.84 195.197 78.84H193.901C193.869 78.84 193.853 78.856 193.853 78.888V82.068C193.853 82.404 193.929 82.648 194.081 82.8C194.233 82.944 194.469 83.016 194.789 83.016H195.137C195.217 83.016 195.257 83.056 195.257 83.136V83.88C195.257 83.96 195.217 84 195.137 84C194.881 84.016 194.697 84.024 194.585 84.024C193.977 84.024 193.517 83.916 193.205 83.7C192.901 83.476 192.749 83.068 192.749 82.476V78.888C192.749 78.856 192.733 78.84 192.701 78.84H191.969C191.889 78.84 191.849 78.8 191.849 78.72V78.012C191.849 77.932 191.889 77.892 191.969 77.892H192.701C192.733 77.892 192.749 77.876 192.749 77.844V76.428C192.749 76.348 192.789 76.308 192.869 76.308H193.733C193.813 76.308 193.853 76.348 193.853 76.428V77.844C193.853 77.876 193.869 77.892 193.901 77.892H195.197C195.277 77.892 195.317 77.932 195.317 78.012V78.72ZM200.371 78.012C200.371 77.932 200.411 77.892 200.491 77.892H201.391C201.471 77.892 201.511 77.932 201.511 78.012V83.88C201.511 83.96 201.471 84 201.391 84H200.491C200.411 84 200.371 83.96 200.371 83.88V83.436C200.371 83.42 200.363 83.412 200.347 83.412C200.339 83.404 200.327 83.408 200.311 83.424C199.991 83.864 199.499 84.084 198.835 84.084C198.443 84.084 198.079 84.008 197.743 83.856C197.415 83.704 197.151 83.48 196.951 83.184C196.751 82.888 196.651 82.528 196.651 82.104V78.012C196.651 77.932 196.691 77.892 196.771 77.892H197.671C197.751 77.892 197.791 77.932 197.791 78.012V81.744C197.791 82.16 197.899 82.488 198.115 82.728C198.339 82.968 198.651 83.088 199.051 83.088C199.451 83.088 199.771 82.968 200.011 82.728C200.251 82.48 200.371 82.152 200.371 81.744V78.012ZM205.424 77.796C205.912 77.796 206.336 77.884 206.696 78.06C207.064 78.228 207.344 78.468 207.536 78.78C207.736 79.084 207.836 79.432 207.836 79.824V83.88C207.836 83.96 207.796 84 207.716 84H206.804C206.724 84 206.684 83.96 206.684 83.88V83.448C206.684 83.408 206.664 83.4 206.624 83.424C206.416 83.64 206.16 83.808 205.856 83.928C205.56 84.04 205.228 84.096 204.86 84.096C204.268 84.096 203.776 83.948 203.384 83.652C203 83.348 202.808 82.892 202.808 82.284C202.808 81.66 203.024 81.172 203.456 80.82C203.896 80.46 204.508 80.28 205.292 80.28H206.636C206.668 80.28 206.684 80.264 206.684 80.232V79.908C206.684 79.556 206.58 79.284 206.372 79.092C206.172 78.892 205.864 78.792 205.448 78.792C205.112 78.792 204.836 78.86 204.62 78.996C204.412 79.124 204.284 79.3 204.236 79.524C204.212 79.604 204.164 79.64 204.092 79.632L203.12 79.5C203.04 79.484 203.004 79.452 203.012 79.404C203.076 78.932 203.328 78.548 203.768 78.252C204.208 77.948 204.76 77.796 205.424 77.796ZM205.112 83.124C205.536 83.124 205.904 83.012 206.216 82.788C206.528 82.564 206.684 82.28 206.684 81.936V81.228C206.684 81.196 206.668 81.18 206.636 81.18H205.508C205.036 81.18 204.66 81.272 204.38 81.456C204.1 81.64 203.96 81.896 203.96 82.224C203.96 82.52 204.064 82.744 204.272 82.896C204.488 83.048 204.768 83.124 205.112 83.124ZM212.115 77.808C212.771 77.808 213.291 78 213.675 78.384C214.059 78.76 214.251 79.272 214.251 79.92V83.88C214.251 83.96 214.211 84 214.131 84H213.219C213.139 84 213.099 83.96 213.099 83.88V80.148C213.099 79.748 212.983 79.424 212.751 79.176C212.519 78.928 212.211 78.804 211.827 78.804C211.451 78.804 211.143 78.928 210.903 79.176C210.663 79.424 210.543 79.744 210.543 80.136V83.88C210.543 83.96 210.503 84 210.423 84H209.511C209.431 84 209.391 83.96 209.391 83.88V78.012C209.391 77.932 209.431 77.892 209.511 77.892H210.423C210.503 77.892 210.543 77.932 210.543 78.012V78.444C210.543 78.46 210.547 78.472 210.555 78.48C210.571 78.488 210.583 78.484 210.591 78.468C210.935 78.028 211.443 77.808 212.115 77.808ZM221.177 84.108C220.593 84.108 220.077 83.988 219.629 83.748C219.181 83.508 218.833 83.172 218.585 82.74C218.337 82.3 218.213 81.796 218.213 81.228V78.372C218.213 77.804 218.337 77.304 218.585 76.872C218.833 76.44 219.181 76.104 219.629 75.864C220.077 75.624 220.593 75.504 221.177 75.504C221.769 75.504 222.289 75.624 222.737 75.864C223.185 76.104 223.533 76.44 223.781 76.872C224.029 77.304 224.153 77.804 224.153 78.372V81.228C224.153 81.796 224.029 82.3 223.781 82.74C223.533 83.172 223.185 83.508 222.737 83.748C222.289 83.988 221.769 84.108 221.177 84.108ZM221.177 83.112C221.721 83.112 222.161 82.944 222.497 82.608C222.833 82.272 223.001 81.828 223.001 81.276V78.36C223.001 77.8 222.833 77.352 222.497 77.016C222.161 76.672 221.721 76.5 221.177 76.5C220.633 76.5 220.193 76.672 219.857 77.016C219.529 77.352 219.365 77.8 219.365 78.36V81.276C219.365 81.828 219.529 82.272 219.857 82.608C220.193 82.944 220.633 83.112 221.177 83.112ZM228.438 77.832C228.694 77.832 228.926 77.884 229.134 77.988C229.19 78.012 229.21 78.06 229.194 78.132L229.002 79.032C228.994 79.104 228.946 79.128 228.858 79.104C228.722 79.048 228.562 79.02 228.378 79.02L228.21 79.032C227.834 79.048 227.522 79.18 227.274 79.428C227.034 79.668 226.914 79.984 226.914 80.376V83.88C226.914 83.96 226.874 84 226.794 84H225.882C225.802 84 225.762 83.96 225.762 83.88V78.012C225.762 77.932 225.802 77.892 225.882 77.892H226.794C226.874 77.892 226.914 77.932 226.914 78.012V78.648C226.914 78.672 226.918 78.688 226.926 78.696C226.942 78.696 226.954 78.688 226.962 78.672C227.322 78.112 227.814 77.832 228.438 77.832ZM232.4 77.796C232.888 77.796 233.312 77.884 233.672 78.06C234.04 78.228 234.32 78.468 234.512 78.78C234.712 79.084 234.812 79.432 234.812 79.824V83.88C234.812 83.96 234.772 84 234.692 84H233.78C233.7 84 233.66 83.96 233.66 83.88V83.448C233.66 83.408 233.64 83.4 233.6 83.424C233.392 83.64 233.136 83.808 232.832 83.928C232.536 84.04 232.204 84.096 231.836 84.096C231.244 84.096 230.752 83.948 230.36 83.652C229.976 83.348 229.784 82.892 229.784 82.284C229.784 81.66 230 81.172 230.432 80.82C230.872 80.46 231.484 80.28 232.268 80.28H233.612C233.644 80.28 233.66 80.264 233.66 80.232V79.908C233.66 79.556 233.556 79.284 233.348 79.092C233.148 78.892 232.84 78.792 232.424 78.792C232.088 78.792 231.812 78.86 231.596 78.996C231.388 79.124 231.26 79.3 231.212 79.524C231.188 79.604 231.14 79.64 231.068 79.632L230.096 79.5C230.016 79.484 229.98 79.452 229.988 79.404C230.052 78.932 230.304 78.548 230.744 78.252C231.184 77.948 231.736 77.796 232.4 77.796ZM232.088 83.124C232.512 83.124 232.88 83.012 233.192 82.788C233.504 82.564 233.66 82.28 233.66 81.936V81.228C233.66 81.196 233.644 81.18 233.612 81.18H232.484C232.012 81.18 231.636 81.272 231.356 81.456C231.076 81.64 230.936 81.896 230.936 82.224C230.936 82.52 231.04 82.744 231.248 82.896C231.464 83.048 231.744 83.124 232.088 83.124ZM239.091 77.808C239.747 77.808 240.267 78 240.651 78.384C241.035 78.76 241.227 79.272 241.227 79.92V83.88C241.227 83.96 241.187 84 241.107 84H240.195C240.115 84 240.075 83.96 240.075 83.88V80.148C240.075 79.748 239.959 79.424 239.727 79.176C239.495 78.928 239.187 78.804 238.803 78.804C238.427 78.804 238.119 78.928 237.879 79.176C237.639 79.424 237.519 79.744 237.519 80.136V83.88C237.519 83.96 237.479 84 237.399 84H236.487C236.407 84 236.367 83.96 236.367 83.88V78.012C236.367 77.932 236.407 77.892 236.487 77.892H237.399C237.479 77.892 237.519 77.932 237.519 78.012V78.444C237.519 78.46 237.523 78.472 237.531 78.48C237.547 78.488 237.559 78.484 237.567 78.468C237.911 78.028 238.419 77.808 239.091 77.808ZM246.627 78.012C246.627 77.932 246.667 77.892 246.747 77.892H247.659C247.739 77.892 247.779 77.932 247.779 78.012V83.688C247.779 84.656 247.503 85.348 246.951 85.764C246.407 86.18 245.675 86.388 244.755 86.388C244.627 86.388 244.427 86.38 244.155 86.364C244.075 86.356 244.035 86.312 244.035 86.232L244.071 85.404C244.071 85.372 244.083 85.344 244.107 85.32C244.131 85.296 244.163 85.288 244.203 85.296C244.315 85.304 244.479 85.308 244.695 85.308C245.375 85.308 245.867 85.18 246.171 84.924C246.475 84.676 246.627 84.252 246.627 83.652V83.436C246.627 83.42 246.619 83.408 246.603 83.4C246.595 83.392 246.583 83.396 246.567 83.412C246.231 83.804 245.739 84 245.091 84C244.571 84 244.099 83.864 243.675 83.592C243.259 83.32 242.971 82.92 242.811 82.392C242.707 82.04 242.655 81.552 242.655 80.928C242.655 80.264 242.715 79.752 242.835 79.392C242.987 78.912 243.255 78.528 243.639 78.24C244.031 77.944 244.491 77.796 245.019 77.796C245.675 77.796 246.191 77.996 246.567 78.396C246.583 78.412 246.595 78.42 246.603 78.42C246.619 78.412 246.627 78.4 246.627 78.384V78.012ZM246.555 82.044C246.579 81.916 246.595 81.78 246.603 81.636C246.619 81.492 246.627 81.252 246.627 80.916C246.627 80.58 246.619 80.344 246.603 80.208C246.595 80.064 246.575 79.928 246.543 79.8C246.479 79.504 246.335 79.264 246.111 79.08C245.887 78.888 245.607 78.792 245.271 78.792C244.935 78.792 244.655 78.888 244.431 79.08C244.207 79.264 244.047 79.504 243.951 79.8C243.863 80.04 243.819 80.412 243.819 80.916C243.819 81.468 243.859 81.844 243.939 82.044C244.019 82.34 244.175 82.584 244.407 82.776C244.647 82.96 244.935 83.052 245.271 83.052C245.623 83.052 245.907 82.96 246.123 82.776C246.347 82.584 246.491 82.34 246.555 82.044ZM252.053 84C251.973 84 251.933 83.96 251.933 83.88V75.72C251.933 75.64 251.973 75.6 252.053 75.6H254.957C255.789 75.6 256.453 75.82 256.949 76.26C257.445 76.692 257.693 77.272 257.693 78V81.6C257.693 82.328 257.445 82.912 256.949 83.352C256.453 83.784 255.789 84 254.957 84H252.053ZM253.085 82.956C253.085 82.988 253.101 83.004 253.133 83.004H255.005C255.469 83.004 255.837 82.864 256.109 82.584C256.389 82.296 256.533 81.912 256.541 81.432V78.168C256.541 77.688 256.401 77.308 256.121 77.028C255.849 76.74 255.477 76.596 255.005 76.596H253.133C253.101 76.596 253.085 76.612 253.085 76.644V82.956ZM264.151 80.184C264.183 80.512 264.195 80.88 264.187 81.288C264.187 81.368 264.147 81.408 264.067 81.408H260.239C260.207 81.408 260.191 81.424 260.191 81.456C260.191 81.728 260.215 81.936 260.263 82.08C260.351 82.4 260.527 82.652 260.791 82.836C261.063 83.012 261.403 83.1 261.811 83.1C262.403 83.1 262.859 82.856 263.179 82.368C263.219 82.288 263.271 82.276 263.335 82.332L264.019 82.788C264.075 82.836 264.087 82.888 264.055 82.944C263.831 83.304 263.511 83.588 263.095 83.796C262.687 84.004 262.223 84.108 261.703 84.108C261.119 84.108 260.627 83.98 260.227 83.724C259.827 83.468 259.527 83.104 259.327 82.632C259.135 82.16 259.039 81.588 259.039 80.916C259.039 80.332 259.083 79.888 259.171 79.584C259.315 79.032 259.603 78.596 260.035 78.276C260.467 77.956 260.991 77.796 261.607 77.796C262.415 77.796 263.019 78 263.419 78.408C263.819 78.808 264.063 79.4 264.151 80.184ZM261.607 78.792C261.263 78.792 260.979 78.88 260.755 79.056C260.531 79.224 260.379 79.452 260.299 79.74C260.243 79.916 260.207 80.14 260.191 80.412C260.191 80.444 260.207 80.46 260.239 80.46H262.987C263.019 80.46 263.035 80.444 263.035 80.412C263.019 80.148 262.995 79.952 262.963 79.824C262.883 79.512 262.723 79.264 262.483 79.08C262.251 78.888 261.959 78.792 261.607 78.792ZM266.786 84C266.722 84 266.678 83.968 266.654 83.904L264.926 78.024L264.914 77.988C264.914 77.924 264.954 77.892 265.034 77.892H265.97C266.042 77.892 266.086 77.928 266.102 78L267.242 82.356C267.25 82.372 267.258 82.38 267.266 82.38C267.282 82.38 267.294 82.372 267.302 82.356L268.466 78C268.482 77.928 268.526 77.892 268.598 77.892H269.426C269.498 77.892 269.542 77.928 269.558 78L270.746 82.344C270.754 82.36 270.762 82.368 270.77 82.368C270.786 82.368 270.798 82.36 270.806 82.344L271.994 78C272.01 77.928 272.054 77.892 272.126 77.892L273.05 77.904C273.09 77.904 273.118 77.916 273.134 77.94C273.158 77.964 273.166 77.996 273.158 78.036L271.418 83.904C271.394 83.968 271.35 84 271.286 84H270.35C270.286 84 270.242 83.968 270.218 83.904L269.042 79.848C269.034 79.832 269.022 79.824 269.006 79.824C268.998 79.824 268.99 79.832 268.982 79.848L267.866 83.892C267.85 83.964 267.806 84 267.734 84H266.786ZM276.381 77.796C276.869 77.796 277.293 77.884 277.653 78.06C278.021 78.228 278.301 78.468 278.493 78.78C278.693 79.084 278.793 79.432 278.793 79.824V83.88C278.793 83.96 278.753 84 278.673 84H277.761C277.681 84 277.641 83.96 277.641 83.88V83.448C277.641 83.408 277.621 83.4 277.581 83.424C277.373 83.64 277.117 83.808 276.813 83.928C276.517 84.04 276.185 84.096 275.817 84.096C275.225 84.096 274.733 83.948 274.341 83.652C273.957 83.348 273.765 82.892 273.765 82.284C273.765 81.66 273.981 81.172 274.413 80.82C274.853 80.46 275.465 80.28 276.249 80.28H277.593C277.625 80.28 277.641 80.264 277.641 80.232V79.908C277.641 79.556 277.537 79.284 277.329 79.092C277.129 78.892 276.821 78.792 276.405 78.792C276.069 78.792 275.793 78.86 275.577 78.996C275.369 79.124 275.241 79.3 275.193 79.524C275.169 79.604 275.121 79.64 275.049 79.632L274.077 79.5C273.997 79.484 273.961 79.452 273.969 79.404C274.033 78.932 274.285 78.548 274.725 78.252C275.165 77.948 275.717 77.796 276.381 77.796ZM276.069 83.124C276.493 83.124 276.861 83.012 277.173 82.788C277.485 82.564 277.641 82.28 277.641 81.936V81.228C277.641 81.196 277.625 81.18 277.593 81.18H276.465C275.993 81.18 275.617 81.272 275.337 81.456C275.057 81.64 274.917 81.896 274.917 82.224C274.917 82.52 275.021 82.744 275.229 82.896C275.445 83.048 275.725 83.124 276.069 83.124ZM282.496 84.072C282.016 84.072 281.592 84 281.224 83.856C280.864 83.712 280.584 83.516 280.384 83.268C280.184 83.012 280.084 82.732 280.084 82.428V82.296C280.084 82.216 280.124 82.176 280.204 82.176H281.068C281.148 82.176 281.188 82.216 281.188 82.296V82.356C281.188 82.58 281.308 82.776 281.548 82.944C281.796 83.112 282.108 83.196 282.484 83.196C282.844 83.196 283.136 83.12 283.36 82.968C283.584 82.808 283.696 82.608 283.696 82.368C283.696 82.136 283.592 81.964 283.384 81.852C283.176 81.732 282.84 81.608 282.376 81.48C281.92 81.352 281.536 81.224 281.224 81.096C280.92 80.96 280.66 80.772 280.444 80.532C280.236 80.284 280.132 79.968 280.132 79.584C280.132 79.048 280.34 78.624 280.756 78.312C281.18 77.992 281.74 77.832 282.436 77.832C282.9 77.832 283.308 77.908 283.66 78.06C284.02 78.204 284.296 78.408 284.488 78.672C284.68 78.936 284.776 79.232 284.776 79.56V79.596C284.776 79.676 284.736 79.716 284.656 79.716H283.816C283.736 79.716 283.696 79.676 283.696 79.596V79.56C283.696 79.328 283.58 79.136 283.348 78.984C283.124 78.824 282.816 78.744 282.424 78.744C282.072 78.744 281.784 78.812 281.56 78.948C281.344 79.084 281.236 79.268 281.236 79.5C281.236 79.732 281.34 79.908 281.548 80.028C281.764 80.148 282.108 80.276 282.58 80.412C283.044 80.54 283.428 80.668 283.732 80.796C284.044 80.916 284.308 81.1 284.524 81.348C284.74 81.588 284.848 81.904 284.848 82.296C284.848 82.84 284.632 83.272 284.2 83.592C283.776 83.912 283.208 84.072 282.496 84.072ZM288.427 77.796C288.915 77.796 289.339 77.884 289.699 78.06C290.067 78.228 290.347 78.468 290.539 78.78C290.739 79.084 290.839 79.432 290.839 79.824V83.88C290.839 83.96 290.799 84 290.719 84H289.807C289.727 84 289.687 83.96 289.687 83.88V83.448C289.687 83.408 289.667 83.4 289.627 83.424C289.419 83.64 289.163 83.808 288.859 83.928C288.563 84.04 288.231 84.096 287.863 84.096C287.271 84.096 286.779 83.948 286.387 83.652C286.003 83.348 285.811 82.892 285.811 82.284C285.811 81.66 286.027 81.172 286.459 80.82C286.899 80.46 287.511 80.28 288.295 80.28H289.639C289.671 80.28 289.687 80.264 289.687 80.232V79.908C289.687 79.556 289.583 79.284 289.375 79.092C289.175 78.892 288.867 78.792 288.451 78.792C288.115 78.792 287.839 78.86 287.623 78.996C287.415 79.124 287.287 79.3 287.239 79.524C287.215 79.604 287.167 79.64 287.095 79.632L286.123 79.5C286.043 79.484 286.007 79.452 286.015 79.404C286.079 78.932 286.331 78.548 286.771 78.252C287.211 77.948 287.763 77.796 288.427 77.796ZM288.115 83.124C288.539 83.124 288.907 83.012 289.219 82.788C289.531 82.564 289.687 82.28 289.687 81.936V81.228C289.687 81.196 289.671 81.18 289.639 81.18H288.511C288.039 81.18 287.663 81.272 287.383 81.456C287.103 81.64 286.963 81.896 286.963 82.224C286.963 82.52 287.067 82.744 287.275 82.896C287.491 83.048 287.771 83.124 288.115 83.124Z" fill="black"/>
<path d="M151.88 26.264C151.816 26.312 151.816 26.36 151.88 26.408C152.6 26.808 153.128 27.32 153.464 27.944C153.8 28.568 153.968 29.32 153.968 30.2C153.968 31.848 153.392 33.064 152.24 33.848C151.088 34.616 149.592 35 147.752 35H141.296C141.184 35 141.096 34.968 141.032 34.904C140.968 34.84 140.936 34.752 140.936 34.64V18.56C140.936 18.448 140.968 18.36 141.032 18.296C141.096 18.232 141.184 18.2 141.296 18.2H147.536C149.584 18.2 151.12 18.568 152.144 19.304C153.184 20.024 153.704 21.24 153.704 22.952C153.704 24.472 153.096 25.576 151.88 26.264ZM145.568 22.064C145.488 22.064 145.448 22.104 145.448 22.184V24.584C145.448 24.664 145.488 24.704 145.568 24.704H147.536C148.704 24.704 149.288 24.264 149.288 23.384C149.288 22.504 148.704 22.064 147.536 22.064H145.568ZM147.752 31.136C148.888 31.136 149.456 30.664 149.456 29.72C149.456 28.824 148.896 28.376 147.776 28.376H145.568C145.488 28.376 145.448 28.416 145.448 28.496V31.016C145.448 31.096 145.488 31.136 145.568 31.136H147.752ZM167.534 27.872C167.582 28.224 167.606 28.584 167.606 28.952C167.606 29.208 167.598 29.408 167.582 29.552C167.582 29.776 167.462 29.888 167.222 29.888H160.022C159.958 29.888 159.926 29.92 159.926 29.984C159.926 30.128 159.99 30.296 160.118 30.488C160.278 30.76 160.558 30.992 160.958 31.184C161.374 31.36 161.838 31.448 162.35 31.448C162.782 31.448 163.182 31.384 163.55 31.256C163.918 31.128 164.23 30.944 164.486 30.704C164.566 30.64 164.646 30.608 164.726 30.608C164.838 30.608 164.926 30.656 164.99 30.752L166.814 33.08C166.878 33.16 166.91 33.248 166.91 33.344C166.91 33.44 166.87 33.52 166.79 33.584C166.23 34.128 165.534 34.536 164.702 34.808C163.87 35.064 162.974 35.192 162.014 35.192C160.526 35.192 159.254 34.88 158.198 34.256C157.142 33.632 156.374 32.744 155.894 31.592C155.542 30.76 155.366 29.864 155.366 28.904C155.366 27.896 155.51 27 155.798 26.216C156.23 25 156.942 24.048 157.934 23.36C158.926 22.672 160.094 22.328 161.438 22.328C162.462 22.328 163.406 22.568 164.27 23.048C165.15 23.528 165.87 24.192 166.43 25.04C167.006 25.872 167.374 26.816 167.534 27.872ZM161.414 26.192C160.758 26.192 160.302 26.512 160.046 27.152L159.95 27.416C159.934 27.464 159.942 27.504 159.974 27.536C160.006 27.552 160.038 27.56 160.07 27.56H162.806C162.87 27.56 162.902 27.528 162.902 27.464C162.902 27.4 162.878 27.296 162.83 27.152C162.75 26.848 162.582 26.616 162.326 26.456C162.086 26.28 161.782 26.192 161.414 26.192ZM175.808 22.352C176.352 22.352 176.784 22.456 177.104 22.664C177.248 22.744 177.304 22.896 177.272 23.12L176.696 26.816C176.68 26.944 176.632 27.024 176.552 27.056C176.488 27.088 176.392 27.088 176.264 27.056C175.976 26.992 175.72 26.96 175.496 26.96C175.256 26.96 175.032 26.984 174.824 27.032C174.408 27.112 174.048 27.288 173.744 27.56C173.456 27.816 173.312 28.168 173.312 28.616V34.64C173.312 34.752 173.28 34.84 173.216 34.904C173.152 34.968 173.064 35 172.952 35H169.16C169.048 35 168.96 34.968 168.896 34.904C168.832 34.84 168.8 34.752 168.8 34.64V22.88C168.8 22.768 168.832 22.68 168.896 22.616C168.96 22.552 169.048 22.52 169.16 22.52H172.952C173.064 22.52 173.152 22.552 173.216 22.616C173.28 22.68 173.312 22.768 173.312 22.88V23.456C173.312 23.504 173.328 23.536 173.36 23.552C173.392 23.568 173.416 23.56 173.432 23.528C174.04 22.744 174.832 22.352 175.808 22.352ZM178.675 35C178.563 35 178.475 34.968 178.411 34.904C178.347 34.84 178.315 34.752 178.315 34.64V18.56C178.315 18.448 178.347 18.36 178.411 18.296C178.475 18.232 178.563 18.2 178.675 18.2H182.467C182.579 18.2 182.667 18.232 182.731 18.296C182.795 18.36 182.827 18.448 182.827 18.56V25.448C182.827 25.496 182.843 25.528 182.875 25.544C182.907 25.56 182.939 25.544 182.971 25.496L185.011 22.736C185.107 22.592 185.251 22.52 185.443 22.52H189.763C189.859 22.52 189.931 22.544 189.979 22.592C190.043 22.624 190.075 22.672 190.075 22.736C190.075 22.8 190.051 22.872 190.003 22.952L186.907 27.128C186.875 27.176 186.875 27.232 186.907 27.296L190.435 34.568L190.483 34.76C190.483 34.92 190.379 35 190.171 35H186.211C186.003 35 185.859 34.904 185.779 34.712L183.835 30.104C183.819 30.072 183.787 30.056 183.739 30.056C183.707 30.04 183.683 30.048 183.667 30.08L182.875 31.424C182.843 31.488 182.827 31.536 182.827 31.568V34.64C182.827 34.752 182.795 34.84 182.731 34.904C182.667 34.968 182.579 35 182.467 35H178.675ZM195.985 35.192C194.465 35.192 193.177 34.784 192.121 33.968C191.081 33.152 190.393 32.048 190.057 30.656C189.897 30.08 189.817 29.44 189.817 28.736C189.817 27.952 189.913 27.24 190.105 26.6C190.489 25.272 191.193 24.232 192.217 23.48C193.257 22.712 194.521 22.328 196.009 22.328C197.497 22.328 198.745 22.712 199.753 23.48C200.777 24.232 201.481 25.256 201.865 26.552C202.057 27.224 202.153 27.936 202.153 28.688C202.153 29.296 202.089 29.904 201.961 30.512C201.625 31.952 200.929 33.096 199.873 33.944C198.833 34.776 197.537 35.192 195.985 35.192ZM195.985 31.328C196.401 31.328 196.737 31.192 196.993 30.92C197.249 30.632 197.425 30.256 197.521 29.792C197.585 29.488 197.617 29.128 197.617 28.712C197.617 28.344 197.577 27.976 197.497 27.608C197.257 26.664 196.753 26.192 195.985 26.192C195.185 26.192 194.681 26.664 194.473 27.608C194.393 27.88 194.353 28.248 194.353 28.712C194.353 29.128 194.385 29.488 194.449 29.792C194.689 30.816 195.201 31.328 195.985 31.328ZM218.224 22.328C219.488 22.328 220.472 22.72 221.176 23.504C221.88 24.288 222.232 25.392 222.232 26.816V34.64C222.232 34.752 222.2 34.84 222.136 34.904C222.072 34.968 221.984 35 221.872 35H218.08C217.968 35 217.88 34.968 217.816 34.904C217.752 34.84 217.72 34.752 217.72 34.64V27.8C217.72 27.32 217.6 26.936 217.36 26.648C217.136 26.344 216.84 26.192 216.472 26.192C216.088 26.192 215.776 26.344 215.536 26.648C215.296 26.936 215.176 27.32 215.176 27.8V34.64C215.176 34.752 215.144 34.84 215.08 34.904C215.016 34.968 214.928 35 214.816 35H211.024C210.912 35 210.824 34.968 210.76 34.904C210.696 34.84 210.664 34.752 210.664 34.64V27.8C210.664 27.32 210.536 26.936 210.28 26.648C210.04 26.344 209.72 26.192 209.32 26.192C208.968 26.192 208.672 26.304 208.432 26.528C208.208 26.736 208.064 27.024 208 27.392C207.984 27.424 207.976 27.472 207.976 27.536V34.64C207.976 34.752 207.944 34.84 207.88 34.904C207.816 34.968 207.728 35 207.616 35H203.824C203.712 35 203.624 34.968 203.56 34.904C203.496 34.84 203.464 34.752 203.464 34.64V22.88C203.464 22.768 203.496 22.68 203.56 22.616C203.624 22.552 203.712 22.52 203.824 22.52H207.616C207.728 22.52 207.816 22.552 207.88 22.616C207.944 22.68 207.976 22.768 207.976 22.88V24.08C207.976 24.144 207.992 24.176 208.024 24.176C208.056 24.176 208.088 24.152 208.12 24.104C208.728 22.92 209.752 22.328 211.192 22.328C212.008 22.328 212.72 22.52 213.328 22.904C213.952 23.272 214.424 23.808 214.744 24.512C214.792 24.592 214.84 24.584 214.888 24.488C215.208 23.768 215.648 23.232 216.208 22.88C216.784 22.512 217.456 22.328 218.224 22.328ZM230.889 22.88C230.889 22.768 230.921 22.68 230.985 22.616C231.049 22.552 231.137 22.52 231.249 22.52H235.041C235.153 22.52 235.241 22.552 235.305 22.616C235.369 22.68 235.401 22.768 235.401 22.88V34.64C235.401 34.752 235.369 34.84 235.305 34.904C235.241 34.968 235.153 35 235.041 35H231.249C231.137 35 231.049 34.968 230.985 34.904C230.921 34.84 230.889 34.752 230.889 34.64V33.848C230.889 33.8 230.873 33.768 230.841 33.752C230.809 33.736 230.777 33.752 230.745 33.8C230.089 34.728 229.065 35.192 227.673 35.192C226.457 35.192 225.489 34.8 224.769 34.016C224.049 33.216 223.689 32.112 223.689 30.704V22.88C223.689 22.768 223.721 22.68 223.785 22.616C223.849 22.552 223.937 22.52 224.049 22.52H227.841C227.953 22.52 228.041 22.552 228.105 22.616C228.169 22.68 228.201 22.768 228.201 22.88V29.72C228.201 30.2 228.321 30.592 228.561 30.896C228.817 31.184 229.145 31.328 229.545 31.328C229.897 31.328 230.185 31.224 230.409 31.016C230.649 30.792 230.801 30.496 230.865 30.128C230.881 30.096 230.889 30.048 230.889 29.984V22.88ZM244.468 22.328C245.268 22.328 245.988 22.504 246.628 22.856C247.268 23.208 247.772 23.728 248.14 24.416C248.524 25.088 248.716 25.888 248.716 26.816V34.64C248.716 34.752 248.684 34.84 248.62 34.904C248.556 34.968 248.468 35 248.356 35H244.564C244.452 35 244.364 34.968 244.3 34.904C244.236 34.84 244.204 34.752 244.204 34.64V27.8C244.204 27.32 244.076 26.936 243.82 26.648C243.58 26.344 243.26 26.192 242.86 26.192C242.444 26.192 242.108 26.344 241.852 26.648C241.612 26.936 241.492 27.32 241.492 27.8V34.64C241.492 34.752 241.46 34.84 241.396 34.904C241.332 34.968 241.244 35 241.132 35H237.34C237.228 35 237.14 34.968 237.076 34.904C237.012 34.84 236.979 34.752 236.979 34.64V22.88C236.979 22.768 237.012 22.68 237.076 22.616C237.14 22.552 237.228 22.52 237.34 22.52H241.132C241.244 22.52 241.332 22.552 241.396 22.616C241.46 22.68 241.492 22.768 241.492 22.88V23.744C241.492 23.808 241.508 23.848 241.54 23.864C241.572 23.88 241.596 23.864 241.612 23.816C242.22 22.824 243.172 22.328 244.468 22.328ZM252.502 21.68C251.846 21.68 251.302 21.472 250.87 21.056C250.454 20.624 250.246 20.08 250.246 19.424C250.246 18.752 250.454 18.208 250.87 17.792C251.302 17.376 251.846 17.168 252.502 17.168C253.158 17.168 253.694 17.376 254.11 17.792C254.542 18.208 254.758 18.752 254.758 19.424C254.758 20.064 254.542 20.6 254.11 21.032C253.694 21.464 253.158 21.68 252.502 21.68ZM250.582 35C250.47 35 250.382 34.968 250.318 34.904C250.254 34.84 250.222 34.752 250.222 34.64V22.88C250.222 22.768 250.254 22.68 250.318 22.616C250.382 22.552 250.47 22.52 250.582 22.52H254.374C254.486 22.52 254.574 22.552 254.638 22.616C254.702 22.68 254.734 22.768 254.734 22.88V34.64C254.734 34.752 254.702 34.84 254.638 34.904C254.574 34.968 254.486 35 254.374 35H250.582ZM256.675 35C256.563 35 256.475 34.968 256.411 34.904C256.347 34.84 256.315 34.752 256.315 34.64V18.56C256.315 18.448 256.347 18.36 256.411 18.296C256.475 18.232 256.563 18.2 256.675 18.2H260.467C260.579 18.2 260.667 18.232 260.731 18.296C260.795 18.36 260.827 18.448 260.827 18.56V25.448C260.827 25.496 260.843 25.528 260.875 25.544C260.907 25.56 260.939 25.544 260.971 25.496L263.011 22.736C263.107 22.592 263.251 22.52 263.443 22.52H267.763C267.859 22.52 267.931 22.544 267.979 22.592C268.043 22.624 268.075 22.672 268.075 22.736C268.075 22.8 268.051 22.872 268.003 22.952L264.907 27.128C264.875 27.176 264.875 27.232 264.907 27.296L268.435 34.568L268.483 34.76C268.483 34.92 268.379 35 268.171 35H264.211C264.003 35 263.859 34.904 263.779 34.712L261.835 30.104C261.819 30.072 261.787 30.056 261.739 30.056C261.707 30.04 261.683 30.048 261.667 30.08L260.875 31.424C260.843 31.488 260.827 31.536 260.827 31.568V34.64C260.827 34.752 260.795 34.84 260.731 34.904C260.667 34.968 260.579 35 260.467 35H256.675ZM274.325 22.328C275.413 22.328 276.413 22.512 277.325 22.88C278.237 23.248 278.957 23.752 279.485 24.392C280.013 25.032 280.277 25.728 280.277 26.48V34.64C280.277 34.752 280.245 34.84 280.181 34.904C280.117 34.968 280.029 35 279.917 35H276.125C276.013 35 275.925 34.968 275.861 34.904C275.797 34.84 275.765 34.752 275.765 34.64V33.8C275.765 33.736 275.749 33.704 275.717 33.704C275.701 33.688 275.677 33.704 275.645 33.752C275.373 34.248 274.997 34.616 274.517 34.856C274.037 35.08 273.405 35.192 272.621 35.192C271.309 35.192 270.277 34.896 269.525 34.304C268.773 33.696 268.397 32.816 268.397 31.664C268.397 30.448 268.821 29.512 269.669 28.856C270.533 28.2 271.781 27.872 273.413 27.872H275.645C275.725 27.872 275.765 27.832 275.765 27.752V27.32C275.765 26.984 275.637 26.712 275.381 26.504C275.141 26.296 274.813 26.192 274.397 26.192C274.109 26.192 273.853 26.24 273.629 26.336C273.405 26.432 273.245 26.56 273.149 26.72C273.085 26.832 273.021 26.912 272.957 26.96C272.909 26.992 272.837 27 272.741 26.984L268.877 26.504C268.653 26.472 268.541 26.376 268.541 26.216C268.605 25.496 268.893 24.84 269.405 24.248C269.917 23.656 270.597 23.192 271.445 22.856C272.309 22.504 273.269 22.328 274.325 22.328ZM274.013 32.072C274.525 32.072 274.941 31.936 275.261 31.664C275.597 31.392 275.765 31.024 275.765 30.56V30.248C275.765 30.168 275.725 30.128 275.645 30.128H274.445C273.437 30.128 272.933 30.456 272.933 31.112C272.933 31.4 273.021 31.632 273.197 31.808C273.389 31.984 273.661 32.072 274.013 32.072ZM287.454 35.192C285.646 35.192 284.214 34.84 283.158 34.136C282.118 33.432 281.598 32.496 281.598 31.328V31.112C281.598 31 281.63 30.912 281.694 30.848C281.758 30.784 281.846 30.752 281.958 30.752H285.558C285.798 30.752 285.918 30.84 285.918 31.016C285.918 31.272 286.054 31.48 286.326 31.64C286.614 31.8 286.982 31.88 287.43 31.88C287.782 31.88 288.062 31.832 288.27 31.736C288.494 31.624 288.606 31.472 288.606 31.28C288.606 31.056 288.478 30.904 288.222 30.824C287.966 30.728 287.51 30.624 286.854 30.512C286.246 30.432 285.702 30.336 285.222 30.224C284.742 30.112 284.278 29.944 283.83 29.72C282.454 29.048 281.766 27.992 281.766 26.552C281.766 25.256 282.27 24.232 283.278 23.48C284.286 22.712 285.614 22.328 287.262 22.328C288.382 22.328 289.358 22.512 290.19 22.88C291.038 23.232 291.694 23.736 292.158 24.392C292.622 25.048 292.854 25.808 292.854 26.672C292.854 26.848 292.734 26.936 292.494 26.936H289.014C288.774 26.936 288.654 26.848 288.654 26.672C288.654 26.4 288.534 26.192 288.294 26.048C288.054 25.888 287.734 25.808 287.334 25.808C286.966 25.808 286.662 25.872 286.422 26C286.198 26.112 286.086 26.272 286.086 26.48C286.086 26.736 286.238 26.912 286.542 27.008C286.846 27.104 287.334 27.2 288.006 27.296C288.086 27.312 288.39 27.36 288.918 27.44C289.462 27.52 289.982 27.648 290.478 27.824C291.342 28.128 291.998 28.552 292.446 29.096C292.91 29.624 293.142 30.32 293.142 31.184C293.142 32.496 292.63 33.496 291.606 34.184C290.582 34.856 289.198 35.192 287.454 35.192ZM296.564 21.68C295.908 21.68 295.364 21.472 294.932 21.056C294.516 20.624 294.308 20.08 294.308 19.424C294.308 18.752 294.516 18.208 294.932 17.792C295.364 17.376 295.908 17.168 296.564 17.168C297.22 17.168 297.756 17.376 298.172 17.792C298.604 18.208 298.82 18.752 298.82 19.424C298.82 20.064 298.604 20.6 298.172 21.032C297.756 21.464 297.22 21.68 296.564 21.68ZM294.644 35C294.532 35 294.444 34.968 294.38 34.904C294.316 34.84 294.284 34.752 294.284 34.64V22.88C294.284 22.768 294.316 22.68 294.38 22.616C294.444 22.552 294.532 22.52 294.644 22.52H298.436C298.548 22.52 298.636 22.552 298.7 22.616C298.764 22.68 298.796 22.768 298.796 22.88V34.64C298.796 34.752 298.764 34.84 298.7 34.904C298.636 34.968 298.548 35 298.436 35H294.644ZM148.52 43.56C148.52 43.448 148.552 43.36 148.616 43.296C148.68 43.232 148.768 43.2 148.88 43.2H152.672C152.784 43.2 152.872 43.232 152.936 43.296C153 43.36 153.032 43.448 153.032 43.56V59.64C153.032 59.752 153 59.84 152.936 59.904C152.872 59.968 152.784 60 152.672 60H148.88C148.768 60 148.68 59.968 148.616 59.904C148.552 59.84 148.52 59.752 148.52 59.64V58.92C148.52 58.872 148.504 58.84 148.472 58.824C148.44 58.808 148.408 58.824 148.376 58.872C147.784 59.752 146.856 60.192 145.592 60.192C144.52 60.192 143.552 59.856 142.688 59.184C141.84 58.496 141.24 57.568 140.888 56.4C140.648 55.6 140.528 54.704 140.528 53.712C140.528 52.56 140.704 51.536 141.056 50.64C141.44 49.664 142.04 48.872 142.856 48.264C143.672 47.64 144.648 47.328 145.784 47.328C146.952 47.328 147.816 47.696 148.376 48.432C148.408 48.464 148.44 48.48 148.472 48.48C148.504 48.464 148.52 48.432 148.52 48.384V43.56ZM148.16 55.512C148.4 55.048 148.52 54.472 148.52 53.784C148.52 53.016 148.392 52.4 148.136 51.936C147.848 51.44 147.432 51.192 146.888 51.192C146.312 51.192 145.888 51.456 145.616 51.984C145.376 52.432 145.256 53.032 145.256 53.784C145.256 54.504 145.376 55.088 145.616 55.536C145.904 56.064 146.328 56.328 146.888 56.328C147.448 56.328 147.872 56.056 148.16 55.512ZM166.666 52.872C166.714 53.224 166.738 53.584 166.738 53.952C166.738 54.208 166.73 54.408 166.714 54.552C166.714 54.776 166.594 54.888 166.354 54.888H159.154C159.09 54.888 159.058 54.92 159.058 54.984C159.058 55.128 159.122 55.296 159.25 55.488C159.41 55.76 159.69 55.992 160.09 56.184C160.506 56.36 160.97 56.448 161.482 56.448C161.914 56.448 162.314 56.384 162.682 56.256C163.05 56.128 163.362 55.944 163.618 55.704C163.698 55.64 163.778 55.608 163.858 55.608C163.97 55.608 164.058 55.656 164.122 55.752L165.946 58.08C166.01 58.16 166.042 58.248 166.042 58.344C166.042 58.44 166.002 58.52 165.922 58.584C165.362 59.128 164.666 59.536 163.834 59.808C163.002 60.064 162.106 60.192 161.146 60.192C159.658 60.192 158.386 59.88 157.33 59.256C156.274 58.632 155.506 57.744 155.026 56.592C154.674 55.76 154.498 54.864 154.498 53.904C154.498 52.896 154.642 52 154.93 51.216C155.362 50 156.074 49.048 157.066 48.36C158.058 47.672 159.226 47.328 160.57 47.328C161.594 47.328 162.538 47.568 163.402 48.048C164.282 48.528 165.002 49.192 165.562 50.04C166.138 50.872 166.506 51.816 166.666 52.872ZM160.546 51.192C159.89 51.192 159.434 51.512 159.178 52.152L159.082 52.416C159.066 52.464 159.074 52.504 159.106 52.536C159.138 52.552 159.17 52.56 159.202 52.56H161.938C162.002 52.56 162.034 52.528 162.034 52.464C162.034 52.4 162.01 52.296 161.962 52.152C161.882 51.848 161.714 51.616 161.458 51.456C161.218 51.28 160.914 51.192 160.546 51.192ZM175.421 47.328C176.221 47.328 176.941 47.504 177.581 47.856C178.221 48.208 178.725 48.728 179.093 49.416C179.477 50.088 179.669 50.888 179.669 51.816V59.64C179.669 59.752 179.637 59.84 179.573 59.904C179.509 59.968 179.421 60 179.309 60H175.517C175.405 60 175.317 59.968 175.253 59.904C175.189 59.84 175.157 59.752 175.157 59.64V52.8C175.157 52.32 175.029 51.936 174.773 51.648C174.533 51.344 174.213 51.192 173.813 51.192C173.397 51.192 173.061 51.344 172.805 51.648C172.565 51.936 172.445 52.32 172.445 52.8V59.64C172.445 59.752 172.413 59.84 172.349 59.904C172.285 59.968 172.197 60 172.085 60H168.293C168.181 60 168.093 59.968 168.029 59.904C167.965 59.84 167.933 59.752 167.933 59.64V47.88C167.933 47.768 167.965 47.68 168.029 47.616C168.093 47.552 168.181 47.52 168.293 47.52H172.085C172.197 47.52 172.285 47.552 172.349 47.616C172.413 47.68 172.445 47.768 172.445 47.88V48.744C172.445 48.808 172.461 48.848 172.493 48.864C172.525 48.88 172.549 48.864 172.565 48.816C173.173 47.824 174.125 47.328 175.421 47.328ZM188.735 47.88C188.735 47.768 188.767 47.68 188.831 47.616C188.895 47.552 188.983 47.52 189.095 47.52H192.887C192.999 47.52 193.087 47.552 193.151 47.616C193.215 47.68 193.247 47.768 193.247 47.88V58.368C193.247 60.656 192.583 62.28 191.255 63.24C189.943 64.216 188.287 64.704 186.287 64.704C185.391 64.704 184.551 64.632 183.767 64.488C183.559 64.44 183.455 64.304 183.455 64.08L183.599 60.84C183.599 60.568 183.743 60.472 184.031 60.552C184.703 60.728 185.335 60.816 185.927 60.816C186.695 60.816 187.327 60.656 187.823 60.336C188.319 60.016 188.615 59.528 188.711 58.872C188.727 58.808 188.711 58.768 188.663 58.752C188.631 58.736 188.591 58.752 188.543 58.8C187.999 59.312 187.215 59.568 186.191 59.568C183.631 59.568 181.999 58.528 181.295 56.448C181.023 55.648 180.887 54.712 180.887 53.64C180.887 52.456 181.055 51.448 181.391 50.616C181.775 49.608 182.375 48.808 183.191 48.216C184.023 47.624 184.975 47.328 186.047 47.328C187.151 47.328 187.999 47.664 188.591 48.336C188.623 48.368 188.655 48.384 188.687 48.384C188.719 48.368 188.735 48.336 188.735 48.288V47.88ZM188.495 55.272C188.655 54.856 188.735 54.304 188.735 53.616C188.735 52.976 188.647 52.456 188.471 52.056C188.199 51.48 187.743 51.192 187.103 51.192C186.543 51.192 186.119 51.472 185.831 52.032C185.575 52.48 185.447 53.032 185.447 53.688C185.447 54.328 185.551 54.848 185.759 55.248C186.047 55.808 186.511 56.088 187.151 56.088C187.791 56.088 188.239 55.816 188.495 55.272ZM200.263 47.328C201.351 47.328 202.351 47.512 203.263 47.88C204.175 48.248 204.895 48.752 205.423 49.392C205.951 50.032 206.215 50.728 206.215 51.48V59.64C206.215 59.752 206.183 59.84 206.119 59.904C206.055 59.968 205.967 60 205.855 60H202.063C201.951 60 201.863 59.968 201.799 59.904C201.735 59.84 201.703 59.752 201.703 59.64V58.8C201.703 58.736 201.687 58.704 201.655 58.704C201.639 58.688 201.615 58.704 201.583 58.752C201.311 59.248 200.935 59.616 200.455 59.856C199.975 60.08 199.343 60.192 198.559 60.192C197.247 60.192 196.215 59.896 195.463 59.304C194.711 58.696 194.335 57.816 194.335 56.664C194.335 55.448 194.759 54.512 195.607 53.856C196.471 53.2 197.719 52.872 199.351 52.872H201.583C201.663 52.872 201.703 52.832 201.703 52.752V52.32C201.703 51.984 201.575 51.712 201.319 51.504C201.079 51.296 200.751 51.192 200.335 51.192C200.047 51.192 199.791 51.24 199.567 51.336C199.343 51.432 199.183 51.56 199.087 51.72C199.023 51.832 198.959 51.912 198.895 51.96C198.847 51.992 198.775 52 198.679 51.984L194.815 51.504C194.591 51.472 194.479 51.376 194.479 51.216C194.543 50.496 194.831 49.84 195.343 49.248C195.855 48.656 196.535 48.192 197.383 47.856C198.247 47.504 199.207 47.328 200.263 47.328ZM199.951 57.072C200.463 57.072 200.879 56.936 201.199 56.664C201.535 56.392 201.703 56.024 201.703 55.56V55.248C201.703 55.168 201.663 55.128 201.583 55.128H200.383C199.375 55.128 198.871 55.456 198.871 56.112C198.871 56.4 198.959 56.632 199.135 56.808C199.327 56.984 199.599 57.072 199.951 57.072ZM215.288 47.328C216.088 47.328 216.808 47.504 217.448 47.856C218.088 48.208 218.592 48.728 218.96 49.416C219.344 50.088 219.536 50.888 219.536 51.816V59.64C219.536 59.752 219.504 59.84 219.44 59.904C219.376 59.968 219.288 60 219.176 60H215.384C215.272 60 215.184 59.968 215.12 59.904C215.056 59.84 215.024 59.752 215.024 59.64V52.8C215.024 52.32 214.896 51.936 214.64 51.648C214.4 51.344 214.08 51.192 213.68 51.192C213.264 51.192 212.928 51.344 212.672 51.648C212.432 51.936 212.312 52.32 212.312 52.8V59.64C212.312 59.752 212.28 59.84 212.216 59.904C212.152 59.968 212.064 60 211.952 60H208.16C208.048 60 207.96 59.968 207.896 59.904C207.832 59.84 207.8 59.752 207.8 59.64V47.88C207.8 47.768 207.832 47.68 207.896 47.616C207.96 47.552 208.048 47.52 208.16 47.52H211.952C212.064 47.52 212.152 47.552 212.216 47.616C212.28 47.68 212.312 47.768 212.312 47.88V48.744C212.312 48.808 212.328 48.848 212.36 48.864C212.392 48.88 212.416 48.864 212.432 48.816C213.04 47.824 213.992 47.328 215.288 47.328ZM232.399 60.192C231.087 60.192 229.927 59.928 228.919 59.4C227.927 58.872 227.151 58.128 226.591 57.168C226.047 56.208 225.775 55.104 225.775 53.856V49.32C225.775 48.072 226.047 46.976 226.591 46.032C227.151 45.072 227.927 44.328 228.919 43.8C229.927 43.272 231.087 43.008 232.399 43.008C233.679 43.008 234.823 43.264 235.831 43.776C236.839 44.272 237.615 44.952 238.159 45.816C238.719 46.68 238.999 47.624 238.999 48.648V48.672C238.999 48.784 238.967 48.872 238.903 48.936C238.839 49 238.751 49.032 238.639 49.032H234.871C234.631 49.032 234.511 48.96 234.511 48.816C234.511 48.288 234.319 47.832 233.935 47.448C233.567 47.064 233.055 46.872 232.399 46.872C231.759 46.872 231.247 47.088 230.863 47.52C230.479 47.936 230.287 48.496 230.287 49.2V54C230.287 54.688 230.503 55.248 230.935 55.68C231.383 56.112 231.935 56.328 232.591 56.328C233.183 56.328 233.663 56.168 234.031 55.848C234.415 55.512 234.607 55.056 234.607 54.48V54.168C234.607 54.088 234.567 54.048 234.487 54.048H232.375C232.263 54.048 232.175 54.016 232.111 53.952C232.047 53.888 232.015 53.8 232.015 53.688V50.808C232.015 50.696 232.047 50.608 232.111 50.544C232.175 50.48 232.263 50.448 232.375 50.448H238.639C238.751 50.448 238.839 50.48 238.903 50.544C238.967 50.608 238.999 50.696 238.999 50.808V54.096C238.999 55.28 238.719 56.336 238.159 57.264C237.615 58.192 236.839 58.912 235.831 59.424C234.839 59.936 233.695 60.192 232.399 60.192ZM247.671 47.88C247.671 47.768 247.703 47.68 247.767 47.616C247.831 47.552 247.919 47.52 248.031 47.52H251.823C251.935 47.52 252.023 47.552 252.087 47.616C252.151 47.68 252.183 47.768 252.183 47.88V59.64C252.183 59.752 252.151 59.84 252.087 59.904C252.023 59.968 251.935 60 251.823 60H248.031C247.919 60 247.831 59.968 247.767 59.904C247.703 59.84 247.671 59.752 247.671 59.64V58.848C247.671 58.8 247.655 58.768 247.623 58.752C247.591 58.736 247.559 58.752 247.527 58.8C246.871 59.728 245.847 60.192 244.455 60.192C243.239 60.192 242.271 59.8 241.551 59.016C240.831 58.216 240.471 57.112 240.471 55.704V47.88C240.471 47.768 240.503 47.68 240.567 47.616C240.631 47.552 240.719 47.52 240.831 47.52H244.623C244.735 47.52 244.823 47.552 244.887 47.616C244.951 47.68 244.983 47.768 244.983 47.88V54.72C244.983 55.2 245.103 55.592 245.343 55.896C245.599 56.184 245.927 56.328 246.327 56.328C246.679 56.328 246.967 56.224 247.191 56.016C247.431 55.792 247.583 55.496 247.647 55.128C247.663 55.096 247.671 55.048 247.671 54.984V47.88ZM260.769 47.352C261.313 47.352 261.745 47.456 262.065 47.664C262.209 47.744 262.265 47.896 262.233 48.12L261.657 51.816C261.641 51.944 261.593 52.024 261.513 52.056C261.449 52.088 261.353 52.088 261.225 52.056C260.937 51.992 260.681 51.96 260.457 51.96C260.217 51.96 259.993 51.984 259.785 52.032C259.369 52.112 259.009 52.288 258.705 52.56C258.417 52.816 258.273 53.168 258.273 53.616V59.64C258.273 59.752 258.241 59.84 258.177 59.904C258.113 59.968 258.025 60 257.913 60H254.121C254.009 60 253.921 59.968 253.857 59.904C253.793 59.84 253.761 59.752 253.761 59.64V47.88C253.761 47.768 253.793 47.68 253.857 47.616C253.921 47.552 254.009 47.52 254.121 47.52H257.913C258.025 47.52 258.113 47.552 258.177 47.616C258.241 47.68 258.273 47.768 258.273 47.88V48.456C258.273 48.504 258.289 48.536 258.321 48.552C258.353 48.568 258.377 48.56 258.393 48.528C259.001 47.744 259.793 47.352 260.769 47.352ZM270.428 47.88C270.428 47.768 270.46 47.68 270.524 47.616C270.588 47.552 270.676 47.52 270.788 47.52H274.58C274.692 47.52 274.78 47.552 274.844 47.616C274.908 47.68 274.94 47.768 274.94 47.88V59.64C274.94 59.752 274.908 59.84 274.844 59.904C274.78 59.968 274.692 60 274.58 60H270.788C270.676 60 270.588 59.968 270.524 59.904C270.46 59.84 270.428 59.752 270.428 59.64V58.848C270.428 58.8 270.412 58.768 270.38 58.752C270.348 58.736 270.316 58.752 270.284 58.8C269.628 59.728 268.604 60.192 267.212 60.192C265.996 60.192 265.028 59.8 264.308 59.016C263.588 58.216 263.228 57.112 263.228 55.704V47.88C263.228 47.768 263.26 47.68 263.324 47.616C263.388 47.552 263.476 47.52 263.588 47.52H267.38C267.492 47.52 267.58 47.552 267.644 47.616C267.708 47.68 267.74 47.768 267.74 47.88V54.72C267.74 55.2 267.86 55.592 268.1 55.896C268.356 56.184 268.684 56.328 269.084 56.328C269.436 56.328 269.724 56.224 269.948 56.016C270.188 55.792 270.34 55.496 270.404 55.128C270.42 55.096 270.428 55.048 270.428 54.984V47.88Z" fill="#CF4327"/>
<path d="M40 83.48H104V19.48H40V83.48Z" fill="#CF4327"/>
<defs>
<filter id="filter0_d_211_89" x="0" y="0" width="361" height="111" filterUnits="userSpaceOnUse" color-interpolation-filters="sRGB">
<feFlood flood-opacity="0" result="BackgroundImageFix"/>
<feColorMatrix in="SourceAlpha" type="matrix" values="0 0 0 0 0 0 0 0 0 0 0 0 0 0 0 0 0 0 127 0" result="hardAlpha"/>
<feOffset dx="4" dy="4"/>
<feGaussianBlur stdDeviation="2"/>
<feComposite in2="hardAlpha" operator="out"/>
<feColorMatrix type="matrix" values="0 0 0 0 0 0 0 0 0 0 0 0 0 0 0 0 0 0 0.25 0"/>
<feBlend mode="normal" in2="BackgroundImageFix" result="effect1_dropShadow_211_89"/>
<feBlend mode="normal" in="SourceGraphic" in2="effect1_dropShadow_211_89" result="shape"/>
</filter>
<filter id="filter1_d_211_89" x="136" y="68" width="187" height="31" filterUnits="userSpaceOnUse" color-interpolation-filters="sRGB">
<feFlood flood-opacity="0" result="BackgroundImageFix"/>
<feColorMatrix in="SourceAlpha" type="matrix" values="0 0 0 0 0 0 0 0 0 0 0 0 0 0 0 0 0 0 127 0" result="hardAlpha"/>
<feOffset dy="4"/>
<feGaussianBlur stdDeviation="2"/>
<feComposite in2="hardAlpha" operator="out"/>
<feColorMatrix type="matrix" values="0 0 0 0 0 0 0 0 0 0 0 0 0 0 0 0 0 0 0.25 0"/>
<feBlend mode="normal" in2="BackgroundImageFix" result="effect1_dropShadow_211_89"/>
<feBlend mode="normal" in="SourceGraphic" in2="effect1_dropShadow_211_89" result="shape"/>
</filter>
</defs>
</svg>
