<svg width="361" height="111" viewBox="0 0 361 111" fill="none" xmlns="http://www.w3.org/2000/svg">
<g filter="url(#filter0_d_110_110)">
<rect width="353" height="103" rx="15" fill="#FFF2EF"/>
</g>
<g filter="url(#filter1_d_110_110)">
<rect x="140" y="48" width="179" height="36" rx="10" fill="#FFDBB6"/>
</g>
<path d="M152.272 55.588C152.76 55.588 153.188 55.692 153.556 55.9C153.932 56.1 154.22 56.384 154.42 56.752C154.628 57.12 154.732 57.544 154.732 58.024C154.732 58.504 154.628 58.924 154.42 59.284C154.212 59.644 153.916 59.924 153.532 60.124C153.156 60.324 152.72 60.424 152.224 60.424H150.112C150.08 60.424 150.064 60.44 150.064 60.472V63.88C150.064 63.96 150.024 64 149.944 64H149.032C148.952 64 148.912 63.96 148.912 63.88V55.708C148.912 55.628 148.952 55.588 149.032 55.588H152.272ZM152.116 59.488C152.556 59.488 152.908 59.356 153.172 59.092C153.444 58.828 153.58 58.48 153.58 58.048C153.58 57.608 153.444 57.256 153.172 56.992C152.908 56.72 152.556 56.584 152.116 56.584H150.112C150.08 56.584 150.064 56.6 150.064 56.632V59.44C150.064 59.472 150.08 59.488 150.112 59.488H152.116ZM156.649 56.932C156.425 56.932 156.241 56.86 156.097 56.716C155.953 56.572 155.881 56.388 155.881 56.164C155.881 55.94 155.953 55.756 156.097 55.612C156.241 55.468 156.425 55.396 156.649 55.396C156.873 55.396 157.057 55.468 157.201 55.612C157.345 55.756 157.417 55.94 157.417 56.164C157.417 56.388 157.345 56.572 157.201 56.716C157.057 56.86 156.873 56.932 156.649 56.932ZM156.169 63.988C156.089 63.988 156.049 63.948 156.049 63.868V58.012C156.049 57.932 156.089 57.892 156.169 57.892H157.081C157.161 57.892 157.201 57.932 157.201 58.012V63.868C157.201 63.948 157.161 63.988 157.081 63.988H156.169ZM161.736 57.808C162.392 57.808 162.912 58 163.296 58.384C163.68 58.76 163.872 59.272 163.872 59.92V63.88C163.872 63.96 163.832 64 163.752 64H162.84C162.76 64 162.72 63.96 162.72 63.88V60.148C162.72 59.748 162.604 59.424 162.372 59.176C162.14 58.928 161.832 58.804 161.448 58.804C161.072 58.804 160.764 58.928 160.524 59.176C160.284 59.424 160.164 59.744 160.164 60.136V63.88C160.164 63.96 160.124 64 160.044 64H159.132C159.052 64 159.012 63.96 159.012 63.88V58.012C159.012 57.932 159.052 57.892 159.132 57.892H160.044C160.124 57.892 160.164 57.932 160.164 58.012V58.444C160.164 58.46 160.168 58.472 160.176 58.48C160.192 58.488 160.204 58.484 160.212 58.468C160.556 58.028 161.064 57.808 161.736 57.808ZM169.237 55.72C169.237 55.64 169.277 55.6 169.357 55.6H170.269C170.349 55.6 170.389 55.64 170.389 55.72V63.88C170.389 63.96 170.349 64 170.269 64H169.357C169.277 64 169.237 63.96 169.237 63.88V63.484C169.237 63.468 169.229 63.456 169.213 63.448C169.205 63.44 169.193 63.444 169.177 63.46C169.001 63.66 168.793 63.816 168.553 63.928C168.313 64.04 168.053 64.096 167.773 64.096C167.197 64.096 166.717 63.956 166.333 63.676C165.957 63.388 165.681 62.984 165.505 62.464C165.353 62.04 165.277 61.528 165.277 60.928C165.277 60.368 165.341 59.884 165.469 59.476C165.637 58.948 165.913 58.536 166.297 58.24C166.681 57.944 167.173 57.796 167.773 57.796C168.045 57.796 168.301 57.852 168.541 57.964C168.789 58.068 169.001 58.22 169.177 58.42C169.193 58.436 169.205 58.44 169.213 58.432C169.229 58.424 169.237 58.412 169.237 58.396V55.72ZM168.937 62.452C169.121 62.116 169.213 61.612 169.213 60.94C169.213 60.268 169.113 59.756 168.913 59.404C168.681 58.996 168.341 58.792 167.893 58.792C167.413 58.792 167.057 58.984 166.825 59.368C166.569 59.768 166.441 60.296 166.441 60.952C166.441 61.568 166.541 62.064 166.741 62.44C166.973 62.88 167.353 63.1 167.881 63.1C168.345 63.1 168.697 62.884 168.937 62.452ZM174.31 57.796C174.798 57.796 175.222 57.884 175.582 58.06C175.95 58.228 176.23 58.468 176.422 58.78C176.622 59.084 176.722 59.432 176.722 59.824V63.88C176.722 63.96 176.682 64 176.602 64H175.69C175.61 64 175.57 63.96 175.57 63.88V63.448C175.57 63.408 175.55 63.4 175.51 63.424C175.302 63.64 175.046 63.808 174.742 63.928C174.446 64.04 174.114 64.096 173.746 64.096C173.154 64.096 172.662 63.948 172.27 63.652C171.886 63.348 171.694 62.892 171.694 62.284C171.694 61.66 171.91 61.172 172.342 60.82C172.782 60.46 173.394 60.28 174.178 60.28H175.522C175.554 60.28 175.57 60.264 175.57 60.232V59.908C175.57 59.556 175.466 59.284 175.258 59.092C175.058 58.892 174.75 58.792 174.334 58.792C173.998 58.792 173.722 58.86 173.506 58.996C173.298 59.124 173.17 59.3 173.122 59.524C173.098 59.604 173.05 59.64 172.978 59.632L172.006 59.5C171.926 59.484 171.89 59.452 171.898 59.404C171.962 58.932 172.214 58.548 172.654 58.252C173.094 57.948 173.646 57.796 174.31 57.796ZM173.998 63.124C174.422 63.124 174.79 63.012 175.102 62.788C175.414 62.564 175.57 62.28 175.57 61.936V61.228C175.57 61.196 175.554 61.18 175.522 61.18H174.394C173.922 61.18 173.546 61.272 173.266 61.456C172.986 61.64 172.846 61.896 172.846 62.224C172.846 62.52 172.95 62.744 173.158 62.896C173.374 63.048 173.654 63.124 173.998 63.124ZM178.974 56.932C178.75 56.932 178.566 56.86 178.422 56.716C178.278 56.572 178.206 56.388 178.206 56.164C178.206 55.94 178.278 55.756 178.422 55.612C178.566 55.468 178.75 55.396 178.974 55.396C179.198 55.396 179.382 55.468 179.526 55.612C179.67 55.756 179.742 55.94 179.742 56.164C179.742 56.388 179.67 56.572 179.526 56.716C179.382 56.86 179.198 56.932 178.974 56.932ZM178.494 63.988C178.414 63.988 178.374 63.948 178.374 63.868V58.012C178.374 57.932 178.414 57.892 178.494 57.892H179.406C179.486 57.892 179.526 57.932 179.526 58.012V63.868C179.526 63.948 179.486 63.988 179.406 63.988H178.494ZM188.682 60.184C188.714 60.512 188.726 60.88 188.718 61.288C188.718 61.368 188.678 61.408 188.598 61.408H184.77C184.738 61.408 184.722 61.424 184.722 61.456C184.722 61.728 184.746 61.936 184.794 62.08C184.882 62.4 185.058 62.652 185.322 62.836C185.594 63.012 185.934 63.1 186.342 63.1C186.934 63.1 187.39 62.856 187.71 62.368C187.75 62.288 187.802 62.276 187.866 62.332L188.55 62.788C188.606 62.836 188.618 62.888 188.586 62.944C188.362 63.304 188.042 63.588 187.626 63.796C187.218 64.004 186.754 64.108 186.234 64.108C185.65 64.108 185.158 63.98 184.758 63.724C184.358 63.468 184.058 63.104 183.858 62.632C183.666 62.16 183.57 61.588 183.57 60.916C183.57 60.332 183.614 59.888 183.702 59.584C183.846 59.032 184.134 58.596 184.566 58.276C184.998 57.956 185.522 57.796 186.138 57.796C186.946 57.796 187.55 58 187.95 58.408C188.35 58.808 188.594 59.4 188.682 60.184ZM186.138 58.792C185.794 58.792 185.51 58.88 185.286 59.056C185.062 59.224 184.91 59.452 184.83 59.74C184.774 59.916 184.738 60.14 184.722 60.412C184.722 60.444 184.738 60.46 184.77 60.46H187.518C187.55 60.46 187.566 60.444 187.566 60.412C187.55 60.148 187.526 59.952 187.494 59.824C187.414 59.512 187.254 59.264 187.014 59.08C186.782 58.888 186.49 58.792 186.138 58.792ZM196.52 57.808C197.128 57.808 197.608 57.992 197.96 58.36C198.312 58.72 198.488 59.224 198.488 59.872V63.88C198.488 63.96 198.448 64 198.368 64H197.468C197.388 64 197.348 63.96 197.348 63.88V60.112C197.348 59.712 197.236 59.396 197.012 59.164C196.796 58.924 196.504 58.804 196.136 58.804C195.768 58.804 195.468 58.92 195.236 59.152C195.004 59.384 194.888 59.696 194.888 60.088V63.88C194.888 63.96 194.848 64 194.768 64H193.868C193.788 64 193.748 63.96 193.748 63.88V60.112C193.748 59.712 193.636 59.396 193.412 59.164C193.196 58.924 192.904 58.804 192.536 58.804C192.168 58.804 191.872 58.92 191.648 59.152C191.432 59.384 191.324 59.696 191.324 60.088V63.88C191.324 63.96 191.284 64 191.204 64H190.292C190.212 64 190.172 63.96 190.172 63.88V58.012C190.172 57.932 190.212 57.892 190.292 57.892H191.204C191.284 57.892 191.324 57.932 191.324 58.012V58.42C191.324 58.436 191.328 58.448 191.336 58.456C191.352 58.464 191.368 58.46 191.384 58.444C191.736 58.02 192.248 57.808 192.92 57.808C193.328 57.808 193.676 57.888 193.964 58.048C194.252 58.2 194.476 58.428 194.636 58.732C194.66 58.764 194.684 58.764 194.708 58.732C194.9 58.42 195.152 58.188 195.464 58.036C195.784 57.884 196.136 57.808 196.52 57.808ZM202.512 64.096C201.92 64.096 201.404 63.948 200.964 63.652C200.524 63.348 200.216 62.928 200.04 62.392C199.896 61.96 199.824 61.472 199.824 60.928C199.824 60.36 199.892 59.88 200.028 59.488C200.204 58.96 200.512 58.548 200.952 58.252C201.392 57.948 201.916 57.796 202.524 57.796C203.1 57.796 203.6 57.948 204.024 58.252C204.456 58.548 204.764 58.956 204.948 59.476C205.092 59.884 205.164 60.364 205.164 60.916C205.164 61.476 205.092 61.968 204.948 62.392C204.772 62.928 204.468 63.348 204.036 63.652C203.604 63.948 203.096 64.096 202.512 64.096ZM202.512 63.1C202.832 63.1 203.112 63.012 203.352 62.836C203.592 62.652 203.764 62.396 203.868 62.068C203.956 61.764 204 61.388 204 60.94C204 60.492 203.96 60.12 203.88 59.824C203.776 59.496 203.604 59.244 203.364 59.068C203.124 58.884 202.832 58.792 202.488 58.792C202.16 58.792 201.876 58.884 201.636 59.068C201.396 59.244 201.224 59.496 201.12 59.824C201.032 60.104 200.988 60.476 200.988 60.94C200.988 61.404 201.032 61.78 201.12 62.068C201.216 62.396 201.384 62.652 201.624 62.836C201.872 63.012 202.168 63.1 202.512 63.1ZM208.82 64.072C208.34 64.072 207.916 64 207.548 63.856C207.188 63.712 206.908 63.516 206.708 63.268C206.508 63.012 206.408 62.732 206.408 62.428V62.296C206.408 62.216 206.448 62.176 206.528 62.176H207.392C207.472 62.176 207.512 62.216 207.512 62.296V62.356C207.512 62.58 207.632 62.776 207.872 62.944C208.12 63.112 208.432 63.196 208.808 63.196C209.168 63.196 209.46 63.12 209.684 62.968C209.908 62.808 210.02 62.608 210.02 62.368C210.02 62.136 209.916 61.964 209.708 61.852C209.5 61.732 209.164 61.608 208.7 61.48C208.244 61.352 207.86 61.224 207.548 61.096C207.244 60.96 206.984 60.772 206.768 60.532C206.56 60.284 206.456 59.968 206.456 59.584C206.456 59.048 206.664 58.624 207.08 58.312C207.504 57.992 208.064 57.832 208.76 57.832C209.224 57.832 209.632 57.908 209.984 58.06C210.344 58.204 210.62 58.408 210.812 58.672C211.004 58.936 211.1 59.232 211.1 59.56V59.596C211.1 59.676 211.06 59.716 210.98 59.716H210.14C210.06 59.716 210.02 59.676 210.02 59.596V59.56C210.02 59.328 209.904 59.136 209.672 58.984C209.448 58.824 209.14 58.744 208.748 58.744C208.396 58.744 208.108 58.812 207.884 58.948C207.668 59.084 207.56 59.268 207.56 59.5C207.56 59.732 207.664 59.908 207.872 60.028C208.088 60.148 208.432 60.276 208.904 60.412C209.368 60.54 209.752 60.668 210.056 60.796C210.368 60.916 210.632 61.1 210.848 61.348C211.064 61.588 211.172 61.904 211.172 62.296C211.172 62.84 210.956 63.272 210.524 63.592C210.1 63.912 209.532 64.072 208.82 64.072ZM213.216 56.932C212.992 56.932 212.808 56.86 212.664 56.716C212.52 56.572 212.448 56.388 212.448 56.164C212.448 55.94 212.52 55.756 212.664 55.612C212.808 55.468 212.992 55.396 213.216 55.396C213.44 55.396 213.624 55.468 213.768 55.612C213.912 55.756 213.984 55.94 213.984 56.164C213.984 56.388 213.912 56.572 213.768 56.716C213.624 56.86 213.44 56.932 213.216 56.932ZM212.736 63.988C212.656 63.988 212.616 63.948 212.616 63.868V58.012C212.616 57.932 212.656 57.892 212.736 57.892H213.648C213.728 57.892 213.768 57.932 213.768 58.012V63.868C213.768 63.948 213.728 63.988 213.648 63.988H212.736ZM221.926 57.808C222.534 57.808 223.014 57.992 223.366 58.36C223.718 58.72 223.894 59.224 223.894 59.872V63.88C223.894 63.96 223.854 64 223.774 64H222.874C222.794 64 222.754 63.96 222.754 63.88V60.112C222.754 59.712 222.642 59.396 222.418 59.164C222.202 58.924 221.91 58.804 221.542 58.804C221.174 58.804 220.874 58.92 220.642 59.152C220.41 59.384 220.294 59.696 220.294 60.088V63.88C220.294 63.96 220.254 64 220.174 64H219.274C219.194 64 219.154 63.96 219.154 63.88V60.112C219.154 59.712 219.042 59.396 218.818 59.164C218.602 58.924 218.31 58.804 217.942 58.804C217.574 58.804 217.278 58.92 217.054 59.152C216.838 59.384 216.73 59.696 216.73 60.088V63.88C216.73 63.96 216.69 64 216.61 64H215.698C215.618 64 215.578 63.96 215.578 63.88V58.012C215.578 57.932 215.618 57.892 215.698 57.892H216.61C216.69 57.892 216.73 57.932 216.73 58.012V58.42C216.73 58.436 216.734 58.448 216.742 58.456C216.758 58.464 216.774 58.46 216.79 58.444C217.142 58.02 217.654 57.808 218.326 57.808C218.734 57.808 219.082 57.888 219.37 58.048C219.658 58.2 219.882 58.428 220.042 58.732C220.066 58.764 220.09 58.764 220.114 58.732C220.306 58.42 220.558 58.188 220.87 58.036C221.19 57.884 221.542 57.808 221.926 57.808ZM229.128 58.012C229.128 57.932 229.168 57.892 229.248 57.892H230.148C230.228 57.892 230.268 57.932 230.268 58.012V63.88C230.268 63.96 230.228 64 230.148 64H229.248C229.168 64 229.128 63.96 229.128 63.88V63.436C229.128 63.42 229.12 63.412 229.104 63.412C229.096 63.404 229.084 63.408 229.068 63.424C228.748 63.864 228.256 64.084 227.592 64.084C227.2 64.084 226.836 64.008 226.5 63.856C226.172 63.704 225.908 63.48 225.708 63.184C225.508 62.888 225.408 62.528 225.408 62.104V58.012C225.408 57.932 225.448 57.892 225.528 57.892H226.428C226.508 57.892 226.548 57.932 226.548 58.012V61.744C226.548 62.16 226.656 62.488 226.872 62.728C227.096 62.968 227.408 63.088 227.808 63.088C228.208 63.088 228.528 62.968 228.768 62.728C229.008 62.48 229.128 62.152 229.128 61.744V58.012ZM238.144 55.72C238.144 55.64 238.184 55.6 238.264 55.6H239.176C239.256 55.6 239.296 55.64 239.296 55.72V63.88C239.296 63.96 239.256 64 239.176 64H238.264C238.184 64 238.144 63.96 238.144 63.88V63.484C238.144 63.468 238.136 63.456 238.12 63.448C238.112 63.44 238.1 63.444 238.084 63.46C237.908 63.66 237.7 63.816 237.46 63.928C237.22 64.04 236.96 64.096 236.68 64.096C236.104 64.096 235.624 63.956 235.24 63.676C234.864 63.388 234.588 62.984 234.412 62.464C234.26 62.04 234.184 61.528 234.184 60.928C234.184 60.368 234.248 59.884 234.376 59.476C234.544 58.948 234.82 58.536 235.204 58.24C235.588 57.944 236.08 57.796 236.68 57.796C236.952 57.796 237.208 57.852 237.448 57.964C237.696 58.068 237.908 58.22 238.084 58.42C238.1 58.436 238.112 58.44 238.12 58.432C238.136 58.424 238.144 58.412 238.144 58.396V55.72ZM237.844 62.452C238.028 62.116 238.12 61.612 238.12 60.94C238.12 60.268 238.02 59.756 237.82 59.404C237.588 58.996 237.248 58.792 236.8 58.792C236.32 58.792 235.964 58.984 235.732 59.368C235.476 59.768 235.348 60.296 235.348 60.952C235.348 61.568 235.448 62.064 235.648 62.44C235.88 62.88 236.26 63.1 236.788 63.1C237.252 63.1 237.604 62.884 237.844 62.452ZM245.929 60.184C245.961 60.512 245.973 60.88 245.965 61.288C245.965 61.368 245.925 61.408 245.845 61.408H242.017C241.985 61.408 241.969 61.424 241.969 61.456C241.969 61.728 241.993 61.936 242.041 62.08C242.129 62.4 242.305 62.652 242.569 62.836C242.841 63.012 243.181 63.1 243.589 63.1C244.181 63.1 244.637 62.856 244.957 62.368C244.997 62.288 245.049 62.276 245.113 62.332L245.797 62.788C245.853 62.836 245.865 62.888 245.833 62.944C245.609 63.304 245.289 63.588 244.873 63.796C244.465 64.004 244.001 64.108 243.481 64.108C242.897 64.108 242.405 63.98 242.005 63.724C241.605 63.468 241.305 63.104 241.105 62.632C240.913 62.16 240.817 61.588 240.817 60.916C240.817 60.332 240.861 59.888 240.949 59.584C241.093 59.032 241.381 58.596 241.813 58.276C242.245 57.956 242.769 57.796 243.385 57.796C244.193 57.796 244.797 58 245.197 58.408C245.597 58.808 245.841 59.4 245.929 60.184ZM243.385 58.792C243.041 58.792 242.757 58.88 242.533 59.056C242.309 59.224 242.157 59.452 242.077 59.74C242.021 59.916 241.985 60.14 241.969 60.412C241.969 60.444 241.985 60.46 242.017 60.46H244.765C244.797 60.46 244.813 60.444 244.813 60.412C244.797 60.148 244.773 59.952 244.741 59.824C244.661 59.512 244.501 59.264 244.261 59.08C244.029 58.888 243.737 58.792 243.385 58.792ZM250.142 57.808C250.798 57.808 251.318 58 251.702 58.384C252.086 58.76 252.278 59.272 252.278 59.92V63.88C252.278 63.96 252.238 64 252.158 64H251.246C251.166 64 251.126 63.96 251.126 63.88V60.148C251.126 59.748 251.01 59.424 250.778 59.176C250.546 58.928 250.238 58.804 249.854 58.804C249.478 58.804 249.17 58.928 248.93 59.176C248.69 59.424 248.57 59.744 248.57 60.136V63.88C248.57 63.96 248.53 64 248.45 64H247.538C247.458 64 247.418 63.96 247.418 63.88V58.012C247.418 57.932 247.458 57.892 247.538 57.892H248.45C248.53 57.892 248.57 57.932 248.57 58.012V58.444C248.57 58.46 248.574 58.472 248.582 58.48C248.598 58.488 248.61 58.484 248.618 58.468C248.962 58.028 249.47 57.808 250.142 57.808ZM257.678 58.012C257.678 57.932 257.718 57.892 257.798 57.892H258.71C258.79 57.892 258.83 57.932 258.83 58.012V63.688C258.83 64.656 258.554 65.348 258.002 65.764C257.458 66.18 256.726 66.388 255.806 66.388C255.678 66.388 255.478 66.38 255.206 66.364C255.126 66.356 255.086 66.312 255.086 66.232L255.122 65.404C255.122 65.372 255.134 65.344 255.158 65.32C255.182 65.296 255.214 65.288 255.254 65.296C255.366 65.304 255.53 65.308 255.746 65.308C256.426 65.308 256.918 65.18 257.222 64.924C257.526 64.676 257.678 64.252 257.678 63.652V63.436C257.678 63.42 257.67 63.408 257.654 63.4C257.646 63.392 257.634 63.396 257.618 63.412C257.282 63.804 256.79 64 256.142 64C255.622 64 255.15 63.864 254.726 63.592C254.31 63.32 254.022 62.92 253.862 62.392C253.758 62.04 253.706 61.552 253.706 60.928C253.706 60.264 253.766 59.752 253.886 59.392C254.038 58.912 254.306 58.528 254.69 58.24C255.082 57.944 255.542 57.796 256.07 57.796C256.726 57.796 257.242 57.996 257.618 58.396C257.634 58.412 257.646 58.42 257.654 58.42C257.67 58.412 257.678 58.4 257.678 58.384V58.012ZM257.606 62.044C257.63 61.916 257.646 61.78 257.654 61.636C257.67 61.492 257.678 61.252 257.678 60.916C257.678 60.58 257.67 60.344 257.654 60.208C257.646 60.064 257.626 59.928 257.594 59.8C257.53 59.504 257.386 59.264 257.162 59.08C256.938 58.888 256.658 58.792 256.322 58.792C255.986 58.792 255.706 58.888 255.482 59.08C255.258 59.264 255.098 59.504 255.002 59.8C254.914 60.04 254.87 60.412 254.87 60.916C254.87 61.468 254.91 61.844 254.99 62.044C255.07 62.34 255.226 62.584 255.458 62.776C255.698 62.96 255.986 63.052 256.322 63.052C256.674 63.052 256.958 62.96 257.174 62.776C257.398 62.584 257.542 62.34 257.606 62.044ZM262.67 57.796C263.158 57.796 263.582 57.884 263.942 58.06C264.31 58.228 264.59 58.468 264.782 58.78C264.982 59.084 265.082 59.432 265.082 59.824V63.88C265.082 63.96 265.042 64 264.962 64H264.05C263.97 64 263.93 63.96 263.93 63.88V63.448C263.93 63.408 263.91 63.4 263.87 63.424C263.662 63.64 263.406 63.808 263.102 63.928C262.806 64.04 262.474 64.096 262.106 64.096C261.514 64.096 261.022 63.948 260.63 63.652C260.246 63.348 260.054 62.892 260.054 62.284C260.054 61.66 260.27 61.172 260.702 60.82C261.142 60.46 261.754 60.28 262.538 60.28H263.882C263.914 60.28 263.93 60.264 263.93 60.232V59.908C263.93 59.556 263.826 59.284 263.618 59.092C263.418 58.892 263.11 58.792 262.694 58.792C262.358 58.792 262.082 58.86 261.866 58.996C261.658 59.124 261.53 59.3 261.482 59.524C261.458 59.604 261.41 59.64 261.338 59.632L260.366 59.5C260.286 59.484 260.25 59.452 260.258 59.404C260.322 58.932 260.574 58.548 261.014 58.252C261.454 57.948 262.006 57.796 262.67 57.796ZM262.358 63.124C262.782 63.124 263.15 63.012 263.462 62.788C263.774 62.564 263.93 62.28 263.93 61.936V61.228C263.93 61.196 263.914 61.18 263.882 61.18H262.754C262.282 61.18 261.906 61.272 261.626 61.456C261.346 61.64 261.206 61.896 261.206 62.224C261.206 62.52 261.31 62.744 261.518 62.896C261.734 63.048 262.014 63.124 262.358 63.124ZM269.361 57.808C270.017 57.808 270.537 58 270.921 58.384C271.305 58.76 271.497 59.272 271.497 59.92V63.88C271.497 63.96 271.457 64 271.377 64H270.465C270.385 64 270.345 63.96 270.345 63.88V60.148C270.345 59.748 270.229 59.424 269.997 59.176C269.765 58.928 269.457 58.804 269.073 58.804C268.697 58.804 268.389 58.928 268.149 59.176C267.909 59.424 267.789 59.744 267.789 60.136V63.88C267.789 63.96 267.749 64 267.669 64H266.757C266.677 64 266.637 63.96 266.637 63.88V58.012C266.637 57.932 266.677 57.892 266.757 57.892H267.669C267.749 57.892 267.789 57.932 267.789 58.012V58.444C267.789 58.46 267.793 58.472 267.801 58.48C267.817 58.488 267.829 58.484 267.837 58.468C268.181 58.028 268.689 57.808 269.361 57.808ZM153.772 73.476C153.9 73.884 153.964 74.368 153.964 74.928C153.964 75.528 153.888 76.04 153.736 76.464C153.56 76.984 153.28 77.388 152.896 77.676C152.52 77.956 152.044 78.096 151.468 78.096C151.188 78.096 150.928 78.04 150.688 77.928C150.448 77.816 150.24 77.66 150.064 77.46C150.048 77.444 150.032 77.44 150.016 77.448C150.008 77.456 150.004 77.468 150.004 77.484V77.88C150.004 77.96 149.964 78 149.884 78H148.972C148.892 78 148.852 77.96 148.852 77.88V69.72C148.852 69.64 148.892 69.6 148.972 69.6H149.884C149.964 69.6 150.004 69.64 150.004 69.72V72.396C150.004 72.412 150.008 72.424 150.016 72.432C150.032 72.44 150.048 72.436 150.064 72.42C150.24 72.22 150.448 72.068 150.688 71.964C150.936 71.852 151.196 71.796 151.468 71.796C152.068 71.796 152.56 71.944 152.944 72.24C153.328 72.536 153.604 72.948 153.772 73.476ZM152.5 76.44C152.7 76.064 152.8 75.568 152.8 74.952C152.8 74.296 152.672 73.768 152.416 73.368C152.184 72.984 151.828 72.792 151.348 72.792C150.9 72.792 150.56 72.996 150.328 73.404C150.12 73.772 150.016 74.284 150.016 74.94C150.016 75.596 150.112 76.1 150.304 76.452C150.544 76.884 150.896 77.1 151.36 77.1C151.888 77.1 152.268 76.88 152.5 76.44ZM160.347 74.184C160.379 74.512 160.391 74.88 160.383 75.288C160.383 75.368 160.343 75.408 160.263 75.408H156.435C156.403 75.408 156.387 75.424 156.387 75.456C156.387 75.728 156.411 75.936 156.459 76.08C156.547 76.4 156.723 76.652 156.987 76.836C157.259 77.012 157.599 77.1 158.007 77.1C158.599 77.1 159.055 76.856 159.375 76.368C159.415 76.288 159.467 76.276 159.531 76.332L160.215 76.788C160.271 76.836 160.283 76.888 160.251 76.944C160.027 77.304 159.707 77.588 159.291 77.796C158.883 78.004 158.419 78.108 157.899 78.108C157.315 78.108 156.823 77.98 156.423 77.724C156.023 77.468 155.723 77.104 155.523 76.632C155.331 76.16 155.235 75.588 155.235 74.916C155.235 74.332 155.279 73.888 155.367 73.584C155.511 73.032 155.799 72.596 156.231 72.276C156.663 71.956 157.187 71.796 157.803 71.796C158.611 71.796 159.215 72 159.615 72.408C160.015 72.808 160.259 73.4 160.347 74.184ZM157.803 72.792C157.459 72.792 157.175 72.88 156.951 73.056C156.727 73.224 156.575 73.452 156.495 73.74C156.439 73.916 156.403 74.14 156.387 74.412C156.387 74.444 156.403 74.46 156.435 74.46H159.183C159.215 74.46 159.231 74.444 159.231 74.412C159.215 74.148 159.191 73.952 159.159 73.824C159.079 73.512 158.919 73.264 158.679 73.08C158.447 72.888 158.155 72.792 157.803 72.792ZM164.512 71.832C164.768 71.832 165 71.884 165.208 71.988C165.264 72.012 165.284 72.06 165.268 72.132L165.076 73.032C165.068 73.104 165.02 73.128 164.932 73.104C164.796 73.048 164.636 73.02 164.452 73.02L164.284 73.032C163.908 73.048 163.596 73.18 163.348 73.428C163.108 73.668 162.988 73.984 162.988 74.376V77.88C162.988 77.96 162.948 78 162.868 78H161.956C161.876 78 161.836 77.96 161.836 77.88V72.012C161.836 71.932 161.876 71.892 161.956 71.892H162.868C162.948 71.892 162.988 71.932 162.988 72.012V72.648C162.988 72.672 162.992 72.688 163 72.696C163.016 72.696 163.028 72.688 163.036 72.672C163.396 72.112 163.888 71.832 164.512 71.832ZM171.221 73.476C171.349 73.884 171.413 74.368 171.413 74.928C171.413 75.528 171.337 76.04 171.185 76.464C171.009 76.984 170.729 77.388 170.345 77.676C169.969 77.956 169.493 78.096 168.917 78.096C168.637 78.096 168.377 78.04 168.137 77.928C167.897 77.816 167.689 77.66 167.513 77.46C167.497 77.444 167.481 77.44 167.465 77.448C167.457 77.456 167.453 77.468 167.453 77.484V77.88C167.453 77.96 167.413 78 167.333 78H166.421C166.341 78 166.301 77.96 166.301 77.88V69.72C166.301 69.64 166.341 69.6 166.421 69.6H167.333C167.413 69.6 167.453 69.64 167.453 69.72V72.396C167.453 72.412 167.457 72.424 167.465 72.432C167.481 72.44 167.497 72.436 167.513 72.42C167.689 72.22 167.897 72.068 168.137 71.964C168.385 71.852 168.645 71.796 168.917 71.796C169.517 71.796 170.009 71.944 170.393 72.24C170.777 72.536 171.053 72.948 171.221 73.476ZM169.949 76.44C170.149 76.064 170.249 75.568 170.249 74.952C170.249 74.296 170.121 73.768 169.865 73.368C169.633 72.984 169.277 72.792 168.797 72.792C168.349 72.792 168.009 72.996 167.777 73.404C167.569 73.772 167.465 74.284 167.465 74.94C167.465 75.596 167.561 76.1 167.753 76.452C167.993 76.884 168.345 77.1 168.809 77.1C169.337 77.1 169.717 76.88 169.949 76.44ZM173.618 70.932C173.394 70.932 173.21 70.86 173.066 70.716C172.922 70.572 172.85 70.388 172.85 70.164C172.85 69.94 172.922 69.756 173.066 69.612C173.21 69.468 173.394 69.396 173.618 69.396C173.842 69.396 174.026 69.468 174.17 69.612C174.314 69.756 174.386 69.94 174.386 70.164C174.386 70.388 174.314 70.572 174.17 70.716C174.026 70.86 173.842 70.932 173.618 70.932ZM173.138 77.988C173.058 77.988 173.018 77.948 173.018 77.868V72.012C173.018 71.932 173.058 71.892 173.138 71.892H174.05C174.13 71.892 174.17 71.932 174.17 72.012V77.868C174.17 77.948 174.13 77.988 174.05 77.988H173.138ZM178.429 78.096C177.821 78.096 177.301 77.944 176.869 77.64C176.437 77.328 176.141 76.908 175.981 76.38C175.861 76.012 175.801 75.528 175.801 74.928C175.801 74.376 175.861 73.892 175.981 73.476C176.141 72.964 176.437 72.556 176.869 72.252C177.309 71.948 177.829 71.796 178.429 71.796C179.029 71.796 179.553 71.948 180.001 72.252C180.449 72.556 180.741 72.94 180.877 73.404C180.925 73.532 180.957 73.664 180.973 73.8C180.973 73.864 180.937 73.904 180.865 73.92L179.965 74.052H179.941C179.885 74.052 179.845 74.016 179.821 73.944L179.785 73.752C179.721 73.48 179.565 73.252 179.317 73.068C179.069 72.884 178.769 72.792 178.417 72.792C178.073 72.792 177.781 72.884 177.541 73.068C177.301 73.252 177.145 73.496 177.073 73.8C177.001 74.088 176.965 74.468 176.965 74.94C176.965 75.404 177.001 75.78 177.073 76.068C177.153 76.388 177.309 76.64 177.541 76.824C177.781 77.008 178.073 77.1 178.417 77.1C178.769 77.1 179.069 77.008 179.317 76.824C179.573 76.64 179.733 76.4 179.797 76.104C179.805 76.096 179.805 76.088 179.797 76.08C179.797 76.064 179.801 76.052 179.809 76.044V75.996C179.833 75.932 179.877 75.908 179.941 75.924L180.841 76.068C180.905 76.084 180.937 76.116 180.937 76.164V76.212C180.937 76.284 180.917 76.372 180.877 76.476C180.741 76.964 180.449 77.356 180.001 77.652C179.553 77.948 179.029 78.096 178.429 78.096ZM184.529 71.796C185.017 71.796 185.441 71.884 185.801 72.06C186.169 72.228 186.449 72.468 186.641 72.78C186.841 73.084 186.941 73.432 186.941 73.824V77.88C186.941 77.96 186.901 78 186.821 78H185.909C185.829 78 185.789 77.96 185.789 77.88V77.448C185.789 77.408 185.769 77.4 185.729 77.424C185.521 77.64 185.265 77.808 184.961 77.928C184.665 78.04 184.333 78.096 183.965 78.096C183.373 78.096 182.881 77.948 182.489 77.652C182.105 77.348 181.913 76.892 181.913 76.284C181.913 75.66 182.129 75.172 182.561 74.82C183.001 74.46 183.613 74.28 184.397 74.28H185.741C185.773 74.28 185.789 74.264 185.789 74.232V73.908C185.789 73.556 185.685 73.284 185.477 73.092C185.277 72.892 184.969 72.792 184.553 72.792C184.217 72.792 183.941 72.86 183.725 72.996C183.517 73.124 183.389 73.3 183.341 73.524C183.317 73.604 183.269 73.64 183.197 73.632L182.225 73.5C182.145 73.484 182.109 73.452 182.117 73.404C182.181 72.932 182.433 72.548 182.873 72.252C183.313 71.948 183.865 71.796 184.529 71.796ZM184.217 77.124C184.641 77.124 185.009 77.012 185.321 76.788C185.633 76.564 185.789 76.28 185.789 75.936V75.228C185.789 75.196 185.773 75.18 185.741 75.18H184.613C184.141 75.18 183.765 75.272 183.485 75.456C183.205 75.64 183.065 75.896 183.065 76.224C183.065 76.52 183.169 76.744 183.377 76.896C183.593 77.048 183.873 77.124 184.217 77.124ZM191.172 71.832C191.428 71.832 191.66 71.884 191.868 71.988C191.924 72.012 191.944 72.06 191.928 72.132L191.736 73.032C191.728 73.104 191.68 73.128 191.592 73.104C191.456 73.048 191.296 73.02 191.112 73.02L190.944 73.032C190.568 73.048 190.256 73.18 190.008 73.428C189.768 73.668 189.648 73.984 189.648 74.376V77.88C189.648 77.96 189.608 78 189.528 78H188.616C188.536 78 188.496 77.96 188.496 77.88V72.012C188.496 71.932 188.536 71.892 188.616 71.892H189.528C189.608 71.892 189.648 71.932 189.648 72.012V72.648C189.648 72.672 189.652 72.688 189.66 72.696C189.676 72.696 189.688 72.688 189.696 72.672C190.056 72.112 190.548 71.832 191.172 71.832ZM195.135 71.796C195.623 71.796 196.047 71.884 196.407 72.06C196.775 72.228 197.055 72.468 197.247 72.78C197.447 73.084 197.547 73.432 197.547 73.824V77.88C197.547 77.96 197.507 78 197.427 78H196.515C196.435 78 196.395 77.96 196.395 77.88V77.448C196.395 77.408 196.375 77.4 196.335 77.424C196.127 77.64 195.871 77.808 195.567 77.928C195.271 78.04 194.939 78.096 194.571 78.096C193.979 78.096 193.487 77.948 193.095 77.652C192.711 77.348 192.519 76.892 192.519 76.284C192.519 75.66 192.735 75.172 193.167 74.82C193.607 74.46 194.219 74.28 195.003 74.28H196.347C196.379 74.28 196.395 74.264 196.395 74.232V73.908C196.395 73.556 196.291 73.284 196.083 73.092C195.883 72.892 195.575 72.792 195.159 72.792C194.823 72.792 194.547 72.86 194.331 72.996C194.123 73.124 193.995 73.3 193.947 73.524C193.923 73.604 193.875 73.64 193.803 73.632L192.831 73.5C192.751 73.484 192.715 73.452 192.723 73.404C192.787 72.932 193.039 72.548 193.479 72.252C193.919 71.948 194.471 71.796 195.135 71.796ZM194.823 77.124C195.247 77.124 195.615 77.012 195.927 76.788C196.239 76.564 196.395 76.28 196.395 75.936V75.228C196.395 75.196 196.379 75.18 196.347 75.18H195.219C194.747 75.18 194.371 75.272 194.091 75.456C193.811 75.64 193.671 75.896 193.671 76.224C193.671 76.52 193.775 76.744 193.983 76.896C194.199 77.048 194.479 77.124 194.823 77.124Z" fill="black"/>
<path d="M151.664 21.44C151.76 21.28 151.904 21.2 152.096 21.2H155.84C155.952 21.2 156.04 21.232 156.104 21.296C156.168 21.36 156.2 21.448 156.2 21.56V37.64C156.2 37.752 156.168 37.84 156.104 37.904C156.04 37.968 155.952 38 155.84 38H152.048C151.936 38 151.848 37.968 151.784 37.904C151.72 37.84 151.688 37.752 151.688 37.64V28.928C151.688 28.864 151.672 28.832 151.64 28.832C151.608 28.816 151.576 28.832 151.544 28.88L149.912 31.544C149.816 31.704 149.672 31.784 149.48 31.784H147.656C147.464 31.784 147.32 31.704 147.224 31.544L145.592 28.88C145.56 28.832 145.528 28.816 145.496 28.832C145.464 28.832 145.448 28.864 145.448 28.928V37.64C145.448 37.752 145.416 37.84 145.352 37.904C145.288 37.968 145.2 38 145.088 38H141.296C141.184 38 141.096 37.968 141.032 37.904C140.968 37.84 140.936 37.752 140.936 37.64V21.56C140.936 21.448 140.968 21.36 141.032 21.296C141.096 21.232 141.184 21.2 141.296 21.2H145.04C145.232 21.2 145.376 21.28 145.472 21.44L148.496 26.312C148.544 26.408 148.592 26.408 148.64 26.312L151.664 21.44ZM163.829 38.192C162.309 38.192 161.021 37.784 159.965 36.968C158.925 36.152 158.237 35.048 157.901 33.656C157.741 33.08 157.661 32.44 157.661 31.736C157.661 30.952 157.757 30.24 157.949 29.6C158.333 28.272 159.037 27.232 160.061 26.48C161.101 25.712 162.365 25.328 163.853 25.328C165.341 25.328 166.589 25.712 167.597 26.48C168.621 27.232 169.325 28.256 169.709 29.552C169.901 30.224 169.997 30.936 169.997 31.688C169.997 32.296 169.933 32.904 169.805 33.512C169.469 34.952 168.773 36.096 167.717 36.944C166.677 37.776 165.381 38.192 163.829 38.192ZM163.829 34.328C164.245 34.328 164.581 34.192 164.837 33.92C165.093 33.632 165.269 33.256 165.365 32.792C165.429 32.488 165.461 32.128 165.461 31.712C165.461 31.344 165.421 30.976 165.341 30.608C165.101 29.664 164.597 29.192 163.829 29.192C163.029 29.192 162.525 29.664 162.317 30.608C162.237 30.88 162.197 31.248 162.197 31.712C162.197 32.128 162.229 32.488 162.293 32.792C162.533 33.816 163.045 34.328 163.829 34.328ZM177.212 38.192C175.692 38.192 174.404 37.784 173.348 36.968C172.308 36.152 171.62 35.048 171.284 33.656C171.124 33.08 171.044 32.44 171.044 31.736C171.044 30.952 171.14 30.24 171.332 29.6C171.716 28.272 172.42 27.232 173.444 26.48C174.484 25.712 175.748 25.328 177.236 25.328C178.724 25.328 179.972 25.712 180.98 26.48C182.004 27.232 182.708 28.256 183.092 29.552C183.284 30.224 183.38 30.936 183.38 31.688C183.38 32.296 183.316 32.904 183.188 33.512C182.852 34.952 182.156 36.096 181.1 36.944C180.06 37.776 178.764 38.192 177.212 38.192ZM177.212 34.328C177.628 34.328 177.964 34.192 178.22 33.92C178.476 33.632 178.652 33.256 178.748 32.792C178.812 32.488 178.844 32.128 178.844 31.712C178.844 31.344 178.804 30.976 178.724 30.608C178.484 29.664 177.98 29.192 177.212 29.192C176.412 29.192 175.908 29.664 175.7 30.608C175.62 30.88 175.58 31.248 175.58 31.712C175.58 32.128 175.612 32.488 175.676 32.792C175.916 33.816 176.428 34.328 177.212 34.328ZM192.418 21.56C192.418 21.448 192.45 21.36 192.514 21.296C192.578 21.232 192.666 21.2 192.778 21.2H196.57C196.682 21.2 196.77 21.232 196.834 21.296C196.898 21.36 196.93 21.448 196.93 21.56V37.64C196.93 37.752 196.898 37.84 196.834 37.904C196.77 37.968 196.682 38 196.57 38H192.778C192.666 38 192.578 37.968 192.514 37.904C192.45 37.84 192.418 37.752 192.418 37.64V36.92C192.418 36.872 192.402 36.84 192.37 36.824C192.338 36.808 192.306 36.824 192.274 36.872C191.682 37.752 190.754 38.192 189.49 38.192C188.418 38.192 187.45 37.856 186.586 37.184C185.738 36.496 185.138 35.568 184.786 34.4C184.546 33.6 184.426 32.704 184.426 31.712C184.426 30.56 184.602 29.536 184.954 28.64C185.338 27.664 185.938 26.872 186.754 26.264C187.57 25.64 188.546 25.328 189.682 25.328C190.85 25.328 191.714 25.696 192.274 26.432C192.306 26.464 192.338 26.48 192.37 26.48C192.402 26.464 192.418 26.432 192.418 26.384V21.56ZM192.058 33.512C192.298 33.048 192.418 32.472 192.418 31.784C192.418 31.016 192.29 30.4 192.034 29.936C191.746 29.44 191.33 29.192 190.786 29.192C190.21 29.192 189.786 29.456 189.514 29.984C189.274 30.432 189.154 31.032 189.154 31.784C189.154 32.504 189.274 33.088 189.514 33.536C189.802 34.064 190.226 34.328 190.786 34.328C191.346 34.328 191.77 34.056 192.058 33.512ZM209.946 38.192C208.634 38.192 207.474 37.936 206.466 37.424C205.474 36.912 204.698 36.192 204.138 35.264C203.594 34.32 203.322 33.232 203.322 32V27.152C203.322 25.936 203.594 24.864 204.138 23.936C204.698 23.008 205.474 22.288 206.466 21.776C207.474 21.264 208.634 21.008 209.946 21.008C211.258 21.008 212.41 21.248 213.402 21.728C214.41 22.208 215.186 22.888 215.73 23.768C216.29 24.632 216.57 25.64 216.57 26.792C216.57 26.936 216.45 27.024 216.21 27.056L212.418 27.296H212.346C212.154 27.296 212.058 27.208 212.058 27.032C212.058 26.376 211.866 25.856 211.482 25.472C211.098 25.072 210.586 24.872 209.946 24.872C209.306 24.872 208.794 25.072 208.41 25.472C208.026 25.856 207.834 26.376 207.834 27.032V32.192C207.834 32.832 208.026 33.352 208.41 33.752C208.794 34.136 209.306 34.328 209.946 34.328C210.586 34.328 211.098 34.136 211.482 33.752C211.866 33.352 212.058 32.832 212.058 32.192C212.058 32.096 212.09 32.024 212.154 31.976C212.218 31.928 212.306 31.912 212.418 31.928L216.21 32.12C216.45 32.136 216.57 32.216 216.57 32.36C216.57 33.512 216.29 34.528 215.73 35.408C215.186 36.288 214.41 36.976 213.402 37.472C212.41 37.952 211.258 38.192 209.946 38.192ZM225.507 25.328C226.307 25.328 227.027 25.504 227.667 25.856C228.307 26.208 228.811 26.728 229.179 27.416C229.563 28.088 229.755 28.888 229.755 29.816V37.64C229.755 37.752 229.723 37.84 229.659 37.904C229.595 37.968 229.507 38 229.395 38H225.603C225.491 38 225.403 37.968 225.339 37.904C225.275 37.84 225.243 37.752 225.243 37.64V30.8C225.243 30.32 225.115 29.936 224.859 29.648C224.619 29.344 224.299 29.192 223.899 29.192C223.483 29.192 223.147 29.344 222.891 29.648C222.651 29.936 222.531 30.32 222.531 30.8V37.64C222.531 37.752 222.499 37.84 222.435 37.904C222.371 37.968 222.283 38 222.171 38H218.379C218.267 38 218.179 37.968 218.115 37.904C218.051 37.84 218.019 37.752 218.019 37.64V21.56C218.019 21.448 218.051 21.36 218.115 21.296C218.179 21.232 218.267 21.2 218.379 21.2H222.171C222.283 21.2 222.371 21.232 222.435 21.296C222.499 21.36 222.531 21.448 222.531 21.56V26.744C222.531 26.808 222.547 26.848 222.579 26.864C222.611 26.88 222.635 26.864 222.651 26.816C223.259 25.824 224.211 25.328 225.507 25.328ZM243.237 30.872C243.285 31.224 243.309 31.584 243.309 31.952C243.309 32.208 243.301 32.408 243.285 32.552C243.285 32.776 243.165 32.888 242.925 32.888H235.725C235.661 32.888 235.629 32.92 235.629 32.984C235.629 33.128 235.693 33.296 235.821 33.488C235.981 33.76 236.261 33.992 236.661 34.184C237.077 34.36 237.541 34.448 238.053 34.448C238.485 34.448 238.885 34.384 239.253 34.256C239.621 34.128 239.933 33.944 240.189 33.704C240.269 33.64 240.349 33.608 240.429 33.608C240.541 33.608 240.629 33.656 240.693 33.752L242.517 36.08C242.581 36.16 242.613 36.248 242.613 36.344C242.613 36.44 242.573 36.52 242.493 36.584C241.933 37.128 241.237 37.536 240.405 37.808C239.573 38.064 238.677 38.192 237.717 38.192C236.229 38.192 234.957 37.88 233.901 37.256C232.845 36.632 232.077 35.744 231.597 34.592C231.245 33.76 231.069 32.864 231.069 31.904C231.069 30.896 231.213 30 231.501 29.216C231.933 28 232.645 27.048 233.637 26.36C234.629 25.672 235.797 25.328 237.141 25.328C238.165 25.328 239.109 25.568 239.973 26.048C240.853 26.528 241.573 27.192 242.133 28.04C242.709 28.872 243.077 29.816 243.237 30.872ZM237.117 29.192C236.461 29.192 236.005 29.512 235.749 30.152L235.653 30.416C235.637 30.464 235.645 30.504 235.677 30.536C235.709 30.552 235.741 30.56 235.773 30.56H238.509C238.573 30.56 238.605 30.528 238.605 30.464C238.605 30.4 238.581 30.296 238.533 30.152C238.453 29.848 238.285 29.616 238.029 29.456C237.789 29.28 237.485 29.192 237.117 29.192ZM250.479 38.192C249.119 38.192 247.935 37.864 246.927 37.208C245.919 36.536 245.183 35.608 244.719 34.424C244.399 33.608 244.239 32.696 244.239 31.688C244.239 30.696 244.399 29.792 244.719 28.976C245.167 27.84 245.903 26.952 246.927 26.312C247.951 25.656 249.135 25.328 250.479 25.328C251.839 25.328 253.039 25.672 254.079 26.36C255.135 27.032 255.847 27.88 256.215 28.904C256.327 29.192 256.399 29.496 256.431 29.816V29.888C256.431 30.048 256.327 30.152 256.119 30.2L252.399 30.8H252.327C252.119 30.8 252.007 30.696 251.991 30.488L251.895 30.152C251.815 29.88 251.639 29.656 251.367 29.48C251.111 29.288 250.807 29.192 250.455 29.192C249.815 29.192 249.359 29.48 249.087 30.056C248.895 30.456 248.799 31.008 248.799 31.712C248.799 32.368 248.887 32.92 249.063 33.368C249.335 34.008 249.799 34.328 250.455 34.328C251.159 34.328 251.639 33.96 251.895 33.224L251.919 33.128C251.967 32.856 252.103 32.744 252.327 32.792L256.071 33.416C256.279 33.464 256.383 33.576 256.383 33.752C256.383 33.944 256.327 34.208 256.215 34.544C255.799 35.712 255.071 36.616 254.031 37.256C253.007 37.88 251.823 38.192 250.479 38.192ZM258.035 38C257.923 38 257.835 37.968 257.771 37.904C257.707 37.84 257.675 37.752 257.675 37.64V21.56C257.675 21.448 257.707 21.36 257.771 21.296C257.835 21.232 257.923 21.2 258.035 21.2H261.827C261.939 21.2 262.027 21.232 262.091 21.296C262.155 21.36 262.187 21.448 262.187 21.56V28.448C262.187 28.496 262.203 28.528 262.235 28.544C262.267 28.56 262.299 28.544 262.331 28.496L264.371 25.736C264.467 25.592 264.611 25.52 264.803 25.52H269.123C269.219 25.52 269.291 25.544 269.339 25.592C269.403 25.624 269.435 25.672 269.435 25.736C269.435 25.8 269.411 25.872 269.363 25.952L266.267 30.128C266.235 30.176 266.235 30.232 266.267 30.296L269.795 37.568L269.843 37.76C269.843 37.92 269.739 38 269.531 38H265.571C265.363 38 265.219 37.904 265.139 37.712L263.195 33.104C263.179 33.072 263.147 33.056 263.099 33.056C263.067 33.04 263.043 33.048 263.027 33.08L262.235 34.424C262.203 34.488 262.187 34.536 262.187 34.568V37.64C262.187 37.752 262.155 37.84 262.091 37.904C262.027 37.968 261.939 38 261.827 38H258.035Z" fill="#CF4327"/>
<path opacity="0.4" d="M74.5 17.75C93.1401 17.75 108.25 32.8599 108.25 51.5C108.25 70.1401 93.1401 85.25 74.5 85.25C55.8599 85.25 40.75 70.1401 40.75 51.5C40.7445 47.0105 41.6375 42.5652 43.3764 38.4261C45.1153 34.287 47.6649 30.5377 50.875 27.3991" stroke="#CF4327" stroke-width="5.0625" stroke-linecap="round"/>
<path opacity="0.7" d="M50.875 51.5C50.875 56.1726 52.2606 60.7402 54.8565 64.6253C57.4525 68.5105 61.1422 71.5385 65.4591 73.3267C69.776 75.1148 74.5262 75.5826 79.109 74.6711C83.6918 73.7595 87.9014 71.5094 91.2054 68.2054C94.5094 64.9014 96.7595 60.6918 97.6711 56.109C98.5826 51.5262 98.1148 46.776 96.3267 42.4591C94.5385 38.1422 91.5105 34.4525 87.6253 31.8565C83.7402 29.2606 79.1726 27.875 74.5 27.875" stroke="#CF4327" stroke-width="5.0625" stroke-linecap="round"/>
<path d="M79.6232 42.6819C75.5151 42.6819 74.0057 46.88 74.0057 46.88C74.0057 46.88 72.517 42.6819 68.3807 42.6819C65.272 42.6819 61.7282 45.1456 63.037 50.7463C64.3457 56.3469 74.017 63.3238 74.017 63.3238C74.017 63.3238 83.6526 56.3469 84.9632 50.7463C86.272 45.1456 82.9832 42.6819 79.6232 42.6819Z" fill="#F44336"/>
<path d="M67.7469 43.1C70.9719 43.1 72.5731 46.5669 73.0906 47.9713C73.1637 48.1719 73.4431 48.1775 73.5275 47.9825L74 46.8781C73.3344 44.7519 71.5044 42.6819 68.3806 42.6819C67.0869 42.6819 65.72 43.1094 64.6569 44.0113C65.5962 43.3944 66.6969 43.1 67.7469 43.1ZM79.6231 42.6819C78.6312 42.6819 77.7275 42.8975 77.0225 43.3325C77.5175 43.1413 78.1306 43.1 78.7381 43.1C81.7775 43.1 84.4981 45.4044 83.27 50.7313C82.2162 55.3044 76.0587 60.8525 74.1781 62.9694C74.0581 63.1044 74.0169 63.3219 74.0169 63.3219C74.0169 63.3219 83.6525 56.345 84.9631 50.7444C86.2719 45.1456 82.9887 42.6819 79.6231 42.6819Z" fill="#CC3333"/>
<path d="M65.195 45.6537C65.8981 44.7762 67.1544 44.0505 68.2194 44.8868C68.795 45.3387 68.5437 46.2649 68.0281 46.6549C67.2781 47.2249 66.6256 47.568 66.1681 48.4605C65.8944 48.9968 65.7294 49.5837 65.645 50.1818C65.6112 50.418 65.3019 50.4762 65.1856 50.268C64.3944 48.8655 64.1694 46.9343 65.195 45.6537ZM76.4675 47.4987C76.1375 47.4987 75.905 47.1799 76.025 46.8724C76.2481 46.3062 76.5369 45.7587 76.8837 45.2712C77.3975 44.5512 78.3744 44.1312 78.9931 44.568C79.6269 45.0143 79.5444 45.9068 79.1 46.338C78.1456 47.2624 76.9419 47.4987 76.4675 47.4987Z" fill="#FF8A80"/>
<defs>
<filter id="filter0_d_110_110" x="0" y="0" width="361" height="111" filterUnits="userSpaceOnUse" color-interpolation-filters="sRGB">
<feFlood flood-opacity="0" result="BackgroundImageFix"/>
<feColorMatrix in="SourceAlpha" type="matrix" values="0 0 0 0 0 0 0 0 0 0 0 0 0 0 0 0 0 0 127 0" result="hardAlpha"/>
<feOffset dx="4" dy="4"/>
<feGaussianBlur stdDeviation="2"/>
<feComposite in2="hardAlpha" operator="out"/>
<feColorMatrix type="matrix" values="0 0 0 0 0 0 0 0 0 0 0 0 0 0 0 0 0 0 0.25 0"/>
<feBlend mode="normal" in2="BackgroundImageFix" result="effect1_dropShadow_110_110"/>
<feBlend mode="normal" in="SourceGraphic" in2="effect1_dropShadow_110_110" result="shape"/>
</filter>
<filter id="filter1_d_110_110" x="136" y="48" width="187" height="44" filterUnits="userSpaceOnUse" color-interpolation-filters="sRGB">
<feFlood flood-opacity="0" result="BackgroundImageFix"/>
<feColorMatrix in="SourceAlpha" type="matrix" values="0 0 0 0 0 0 0 0 0 0 0 0 0 0 0 0 0 0 127 0" result="hardAlpha"/>
<feOffset dy="4"/>
<feGaussianBlur stdDeviation="2"/>
<feComposite in2="hardAlpha" operator="out"/>
<feColorMatrix type="matrix" values="0 0 0 0 0 0 0 0 0 0 0 0 0 0 0 0 0 0 0.25 0"/>
<feBlend mode="normal" in2="BackgroundImageFix" result="effect1_dropShadow_110_110"/>
<feBlend mode="normal" in="SourceGraphic" in2="effect1_dropShadow_110_110" result="shape"/>
</filter>
</defs>
</svg>
